<svg width="30" height="30" viewBox="0 0 30 30" fill="none" xmlns="http://www.w3.org/2000/svg">
<path d="M15 29.1667C13.0403 29.1667 11.1987 28.7948 9.47504 28.051C7.75143 27.3073 6.25212 26.2979 4.97712 25.0229C3.70212 23.7479 2.69275 22.2486 1.949 20.525C1.20525 18.8014 0.833374 16.9597 0.833374 15C0.833374 13.0403 1.20525 11.1986 1.949 9.47499C2.69275 7.75138 3.70212 6.25208 4.97712 4.97708C6.25212 3.70208 7.75143 2.6927 9.47504 1.94895C11.1987 1.2052 13.0403 0.833328 15 0.833328C16.9598 0.833328 18.8014 1.2052 20.525 1.94895C22.2487 2.6927 23.748 3.70208 25.023 4.97708C26.298 6.25208 27.3073 7.75138 28.0511 9.47499C28.7948 11.1986 29.1667 13.0403 29.1667 15C29.1667 16.9597 28.7948 18.8014 28.0511 20.525C27.3073 22.2486 26.298 23.7479 25.023 25.0229C23.748 26.2979 22.2487 27.3073 20.525 28.051C18.8014 28.7948 16.9598 29.1667 15 29.1667ZM15 26.3333C18.1639 26.3333 20.8438 25.2354 23.0396 23.0396C25.2355 20.8437 26.3334 18.1639 26.3334 15C26.3334 13.725 26.1268 12.4972 25.7136 11.3167C25.3004 10.1361 24.7042 9.04999 23.925 8.05833L8.05837 23.925C9.05004 24.7042 10.1362 25.3003 11.3167 25.7135C12.4973 26.1267 13.725 26.3333 15 26.3333ZM6.07504 21.9417L21.9417 6.075C20.95 5.29583 19.8639 4.69965 18.6834 4.28645C17.5028 3.87326 16.275 3.66666 15 3.66666C11.8362 3.66666 9.15629 4.76458 6.96046 6.96041C4.76462 9.15625 3.66671 11.8361 3.66671 15C3.66671 16.275 3.8733 17.5028 4.2865 18.6833C4.69969 19.8639 5.29587 20.95 6.07504 21.9417Z" fill="#B72C47"/>
</svg>
