<svg width="27" height="24" viewBox="0 0 27 24" fill="none" xmlns="http://www.w3.org/2000/svg">
<path d="M20.9832 0.143576C18.0757 -0.296132 14.9349 1.24733 13.9254 3.98878C13.4184 2.67414 12.3685 1.58385 11.1436 0.897362C9.09309 -0.246777 7.07851 -0.264724 4.88446 0.65956C3.18844 1.37296 1.86034 3.25294 1.15142 4.88614C0.263034 6.95008 0.711716 9.47616 1.26359 11.567C1.36679 11.9574 1.96803 11.7914 1.86483 11.401C0.94503 7.91026 1.09758 4.05608 4.27874 1.72294C5.77285 0.628153 8.3438 0.237799 10.0039 1.00056C11.7448 1.79473 13.4767 3.35165 13.6113 5.38418C13.6382 5.788 14.2036 5.78351 14.235 5.38418C14.5625 1.65563 19.1301 -0.332027 22.3337 1.18452C25.7347 2.79529 27.1705 7.36287 26.0488 10.8222C25.3444 13.0073 22.5401 12.4644 20.696 12.4734C19.6506 12.4778 18.6007 12.4913 17.5552 12.4823C17.4161 12.4823 16.8329 12.4823 16.8508 12.4913C16.6848 12.3881 16.263 11.1408 16.1643 10.885C16.0342 10.544 15.5945 10.6158 15.5496 10.9703C15.3432 12.59 14.9215 14.1649 14.585 15.7622C14.2619 13.0791 14.1273 10.378 13.6786 7.71284C13.6248 7.40325 13.1402 7.42569 13.0774 7.71284C12.6467 9.57487 12.2159 11.4369 11.7852 13.2989C11.5923 12.433 11.3993 11.5715 11.2064 10.7056C11.1436 10.4184 10.65 10.396 10.6052 10.7056C10.5379 11.1363 10.4302 12.3029 10.1385 12.5048C9.9411 12.6439 9.1918 12.5003 8.93606 12.4958C7.80089 12.4868 6.66573 12.4823 5.53056 12.4734C4.2922 12.4644 2.34043 12.2176 2.39876 14.0796C2.42568 15.0533 3.33202 16.0404 3.90633 16.7628C4.74088 17.8082 5.73695 18.71 6.79136 19.5311C8.954 21.2227 11.3634 22.5328 13.7011 23.9596C13.7998 24.0179 13.9209 24.0135 14.0151 23.9596C18.2462 21.6489 21.6562 18.6562 24.6624 14.8918C24.9091 14.5822 24.4694 14.1335 24.2182 14.4476C22.2305 16.9377 20.0364 19.2978 17.4072 21.1195C16.5681 21.6983 14.733 23.3674 13.6921 23.2238C13.203 23.1565 12.5255 22.5283 12.0993 22.2771C11.4442 21.8867 10.7891 21.4964 10.143 21.0925C8.72069 20.1997 7.32529 19.2485 6.07347 18.1223C5.32417 17.4492 1.5687 13.8553 4.04094 13.0925C4.97419 12.8054 6.49971 13.1105 7.47784 13.115C8.44699 13.1195 9.42063 13.1284 10.3898 13.1329C10.5289 13.1329 10.65 13.0342 10.6904 12.9041C10.7667 12.6663 10.834 12.433 10.9013 12.1952C11.0942 13.0611 11.2871 13.9271 11.4801 14.793C11.5474 15.0937 12.014 15.0892 12.0813 14.793C12.4896 13.0252 12.8979 11.2529 13.3062 9.48514C13.6607 12.2625 13.7863 15.0667 14.2485 17.8351C14.3113 18.2165 14.8228 18.0684 14.8631 17.7499C15.1009 15.8654 15.6349 14.0393 15.9804 12.1727C16.1912 12.6394 16.4829 13.0118 17.0572 13.1015C18.475 13.3303 20.1307 13.1015 21.562 13.0925C22.8766 13.0836 24.6265 13.3752 25.7257 12.4868C26.6769 11.7151 26.8699 10.3511 26.9686 9.21144C27.3051 5.34829 25.1873 0.776218 20.9832 0.139089V0.143576Z" fill="#003278"/>
</svg>
