<svg width="30" height="30" viewBox="0 0 30 30" fill="none" xmlns="http://www.w3.org/2000/svg">
<path d="M3.08333 29.575C2.30417 29.575 1.63715 29.2976 1.08229 28.7427C0.527431 28.1879 0.25 27.5208 0.25 26.7417V6.90834C0.25 6.12918 0.527431 5.46216 1.08229 4.9073C1.63715 4.35244 2.30417 4.07501 3.08333 4.07501H15.7271L12.8938 6.90834H3.08333V26.7417H22.9167V16.8958L25.75 14.0625V26.7417C25.75 27.5208 25.4726 28.1879 24.9177 28.7427C24.3628 29.2976 23.6958 29.575 22.9167 29.575H3.08333ZM18.9146 4.88959L20.9333 6.87293L11.5833 16.2229V18.2417H13.5667L22.9521 8.85626L24.9708 10.8396L15.5854 20.225C15.3257 20.4847 15.0247 20.6913 14.6823 20.8448C14.3399 20.9983 13.9799 21.075 13.6021 21.075H10.1667C9.76528 21.075 9.42882 20.9392 9.15729 20.6677C8.88576 20.3962 8.75 20.0597 8.75 19.6583V16.2229C8.75 15.8451 8.82083 15.4851 8.9625 15.1427C9.10417 14.8004 9.30486 14.4993 9.56458 14.2396L18.9146 4.88959ZM24.9708 10.8396L18.9146 4.88959L22.4563 1.34792C23.0229 0.781258 23.7017 0.497925 24.4927 0.497925C25.2837 0.497925 25.9507 0.781258 26.4938 1.34792L28.4771 3.36668C29.0201 3.90973 29.2917 4.57084 29.2917 5.35001C29.2917 6.12918 29.0201 6.79029 28.4771 7.33334L24.9708 10.8396Z" fill="#229F64"/>
</svg>
