<svg width="12" height="7" viewBox="0 0 12 7" fill="none" xmlns="http://www.w3.org/2000/svg">
<path d="M6.00003 6.95001C5.8667 6.95001 5.7417 6.92917 5.62503 6.88751C5.50836 6.84584 5.40003 6.77501 5.30003 6.67501L0.675031 2.05001C0.491697 1.86667 0.404197 1.63751 0.412531 1.36251C0.420864 1.08751 0.516697 0.85834 0.700031 0.675006C0.883364 0.491673 1.1167 0.400006 1.40003 0.400006C1.68336 0.400006 1.9167 0.491673 2.10003 0.675006L6.00003 4.57501L9.92503 0.650006C10.1084 0.466673 10.3375 0.379173 10.6125 0.387506C10.8875 0.39584 11.1167 0.491673 11.3 0.675006C11.4834 0.85834 11.575 1.09167 11.575 1.37501C11.575 1.65834 11.4834 1.89167 11.3 2.07501L6.70003 6.67501C6.60003 6.77501 6.4917 6.84584 6.37503 6.88751C6.25836 6.92917 6.13336 6.95001 6.00003 6.95001Z" fill="white"/>
</svg>
