<svg width="13" height="12" viewBox="0 0 13 12" fill="none" xmlns="http://www.w3.org/2000/svg">
<path d="M6.50002 11.8333C6.26391 11.8333 6.06599 11.7535 5.90627 11.5937C5.74655 11.434 5.66669 11.2361 5.66669 11V6.83333H1.50002C1.26391 6.83333 1.06599 6.75347 0.90627 6.59375C0.746548 6.43403 0.666687 6.23611 0.666687 6C0.666687 5.76389 0.746548 5.56597 0.90627 5.40625C1.06599 5.24653 1.26391 5.16666 1.50002 5.16666H5.66669V0.999997C5.66669 0.763886 5.74655 0.56597 5.90627 0.406247C6.06599 0.246525 6.26391 0.166664 6.50002 0.166664C6.73613 0.166664 6.93405 0.246525 7.09377 0.406247C7.25349 0.56597 7.33335 0.763886 7.33335 0.999997V5.16666H11.5C11.7361 5.16666 11.934 5.24653 12.0938 5.40625C12.2535 5.56597 12.3334 5.76389 12.3334 6C12.3334 6.23611 12.2535 6.43403 12.0938 6.59375C11.934 6.75347 11.7361 6.83333 11.5 6.83333H7.33335V11C7.33335 11.2361 7.25349 11.434 7.09377 11.5937C6.93405 11.7535 6.73613 11.8333 6.50002 11.8333Z" fill="#FFEFCC"/>
</svg>
