<svg width="24" height="24" viewBox="0 0 24 24" fill="none" xmlns="http://www.w3.org/2000/svg">
<path d="M12 23.6667C11.5278 23.6667 11.132 23.507 10.8125 23.1875C10.4931 22.8681 10.3334 22.4723 10.3334 22V13.6667H2.00004C1.52782 13.6667 1.13199 13.507 0.812541 13.1875C0.493096 12.8681 0.333374 12.4723 0.333374 12C0.333374 11.5278 0.493096 11.132 0.812541 10.8125C1.13199 10.4931 1.52782 10.3334 2.00004 10.3334H10.3334V2.00004C10.3334 1.52782 10.4931 1.13199 10.8125 0.812541C11.132 0.493096 11.5278 0.333374 12 0.333374C12.4723 0.333374 12.8681 0.493096 13.1875 0.812541C13.507 1.13199 13.6667 1.52782 13.6667 2.00004V10.3334H22C22.4723 10.3334 22.8681 10.4931 23.1875 10.8125C23.507 11.132 23.6667 11.5278 23.6667 12C23.6667 12.4723 23.507 12.8681 23.1875 13.1875C22.8681 13.507 22.4723 13.6667 22 13.6667H13.6667V22C13.6667 22.4723 13.507 22.8681 13.1875 23.1875C12.8681 23.507 12.4723 23.6667 12 23.6667Z" fill="#1C1B1F"/>
</svg>
