<svg width="37" height="36" viewBox="0 0 37 36" fill="none" xmlns="http://www.w3.org/2000/svg">
<path d="M17 35.6666C14.6945 35.6666 12.5278 35.2291 10.5 34.3541C8.47226 33.4791 6.70837 32.2916 5.20837 30.7916C3.70837 29.2916 2.52087 27.5277 1.64587 25.5C0.770874 23.4722 0.333374 21.3055 0.333374 19C0.333374 16.6944 0.770874 14.5277 1.64587 12.5C2.52087 10.4722 3.70837 8.70829 5.20837 7.20829C6.70837 5.70829 8.47226 4.52079 10.5 3.64579C12.5278 2.77079 14.6945 2.33329 17 2.33329C18.1945 2.33329 19.3473 2.45135 20.4584 2.68746C21.5695 2.92357 22.6389 3.26385 23.6667 3.70829V7.45829C22.6945 6.90274 21.6459 6.46524 20.5209 6.14579C19.3959 5.82635 18.2223 5.66663 17 5.66663C13.3056 5.66663 10.1598 6.96524 7.56254 9.56246C4.96532 12.1597 3.66671 15.3055 3.66671 19C3.66671 22.6944 4.96532 25.8402 7.56254 28.4375C10.1598 31.0347 13.3056 32.3333 17 32.3333C20.6945 32.3333 23.8403 31.0347 26.4375 28.4375C29.0348 25.8402 30.3334 22.6944 30.3334 19C30.3334 18.1111 30.2431 17.25 30.0625 16.4166C29.882 15.5833 29.6389 14.7777 29.3334 14H32.9167C33.1667 14.8055 33.3542 15.618 33.4792 16.4375C33.6042 17.2569 33.6667 18.1111 33.6667 19C33.6667 21.3055 33.2292 23.4722 32.3542 25.5C31.4792 27.5277 30.2917 29.2916 28.7917 30.7916C27.2917 32.2916 25.5278 33.4791 23.5 34.3541C21.4723 35.2291 19.3056 35.6666 17 35.6666ZM30.3334 10.6666V7.33329H27V3.99996H30.3334V0.666626H33.6667V3.99996H37V7.33329H33.6667V10.6666H30.3334ZM22.8334 17.3333C23.5278 17.3333 24.1181 17.0902 24.6042 16.6041C25.0903 16.118 25.3334 15.5277 25.3334 14.8333C25.3334 14.1388 25.0903 13.5486 24.6042 13.0625C24.1181 12.5763 23.5278 12.3333 22.8334 12.3333C22.1389 12.3333 21.5487 12.5763 21.0625 13.0625C20.5764 13.5486 20.3334 14.1388 20.3334 14.8333C20.3334 15.5277 20.5764 16.118 21.0625 16.6041C21.5487 17.0902 22.1389 17.3333 22.8334 17.3333ZM11.1667 17.3333C11.8612 17.3333 12.4514 17.0902 12.9375 16.6041C13.4237 16.118 13.6667 15.5277 13.6667 14.8333C13.6667 14.1388 13.4237 13.5486 12.9375 13.0625C12.4514 12.5763 11.8612 12.3333 11.1667 12.3333C10.4723 12.3333 9.88199 12.5763 9.39587 13.0625C8.90976 13.5486 8.66671 14.1388 8.66671 14.8333C8.66671 15.5277 8.90976 16.118 9.39587 16.6041C9.88199 17.0902 10.4723 17.3333 11.1667 17.3333ZM17 28.1666C18.8889 28.1666 20.6042 27.6319 22.1459 26.5625C23.6875 25.493 24.8056 24.0833 25.5 22.3333H8.50004C9.19449 24.0833 10.3125 25.493 11.8542 26.5625C13.3959 27.6319 15.1112 28.1666 17 28.1666Z" fill="#1C1B1F"/>
</svg>
