<svg width="12" height="12" viewBox="0 0 12 12" fill="none" xmlns="http://www.w3.org/2000/svg">
<path d="M5.99996 11.8334C5.76385 11.8334 5.56593 11.7536 5.40621 11.5938C5.24649 11.4341 5.16663 11.2362 5.16663 11.0001V6.83342H0.999959C0.763848 6.83342 0.565932 6.75355 0.406209 6.59383C0.246487 6.43411 0.166626 6.23619 0.166626 6.00008C0.166626 5.76397 0.246487 5.56605 0.406209 5.40633C0.565932 5.24661 0.763848 5.16675 0.999959 5.16675H5.16663V1.00008C5.16663 0.76397 5.24649 0.566054 5.40621 0.406331C5.56593 0.246609 5.76385 0.166748 5.99996 0.166748C6.23607 0.166748 6.43399 0.246609 6.59371 0.406331C6.75343 0.566054 6.83329 0.76397 6.83329 1.00008V5.16675H11C11.2361 5.16675 11.434 5.24661 11.5937 5.40633C11.7534 5.56605 11.8333 5.76397 11.8333 6.00008C11.8333 6.23619 11.7534 6.43411 11.5937 6.59383C11.434 6.75355 11.2361 6.83342 11 6.83342H6.83329V11.0001C6.83329 11.2362 6.75343 11.4341 6.59371 11.5938C6.43399 11.7536 6.23607 11.8334 5.99996 11.8334Z" fill="#FFEFCC"/>
</svg>
