<svg width="19" height="34" viewBox="0 0 19 34" fill="none" xmlns="http://www.w3.org/2000/svg">
<path d="M9.16667 33.6667C6.61111 33.6667 4.44444 32.7778 2.66667 31C0.888889 29.2223 0 27.0556 0 24.5V7.00004C0 5.16671 0.652778 3.59726 1.95833 2.29171C3.26389 0.986152 4.83333 0.333374 6.66667 0.333374C8.5 0.333374 10.0694 0.986152 11.375 2.29171C12.6806 3.59726 13.3333 5.16671 13.3333 7.00004V22.8334C13.3333 24 12.9306 24.9862 12.125 25.7917C11.3194 26.5973 10.3333 27 9.16667 27C8 27 7.01389 26.5973 6.20833 25.7917C5.40278 24.9862 5 24 5 22.8334V7.00004H7.5V22.8334C7.5 23.3056 7.65972 23.7014 7.97917 24.0209C8.29861 24.3403 8.69444 24.5 9.16667 24.5C9.63889 24.5 10.0347 24.3403 10.3542 24.0209C10.6736 23.7014 10.8333 23.3056 10.8333 22.8334V7.00004C10.8333 5.83337 10.4306 4.84726 9.625 4.04171C8.81944 3.23615 7.83333 2.83337 6.66667 2.83337C5.5 2.83337 4.51389 3.23615 3.70833 4.04171C2.90278 4.84726 2.5 5.83337 2.5 7.00004V24.5C2.5 26.3334 3.15278 27.9028 4.45833 29.2084C5.76389 30.5139 7.33333 31.1667 9.16667 31.1667C11 31.1667 12.5694 30.5139 13.875 29.2084C15.1806 27.9028 15.8333 26.3334 15.8333 24.5V7.00004H18.3333V24.5C18.3333 27.0556 17.4444 29.2223 15.6667 31C13.8889 32.7778 11.7222 33.6667 9.16667 33.6667Z" fill="#1C1B1F"/>
</svg>
