<svg width="30" height="30" viewBox="0 0 30 30" fill="none" xmlns="http://www.w3.org/2000/svg">
<path d="M3.33333 30C2.41667 30 1.63194 29.6736 0.979167 29.0208C0.326389 28.3681 0 27.5833 0 26.6667V3.33333C0 2.41667 0.326389 1.63194 0.979167 0.979167C1.63194 0.326389 2.41667 0 3.33333 0H26.6667C27.5833 0 28.3681 0.326389 29.0208 0.979167C29.6736 1.63194 30 2.41667 30 3.33333V26.6667C30 27.5833 29.6736 28.3681 29.0208 29.0208C28.3681 29.6736 27.5833 30 26.6667 30H3.33333ZM5 15.9583L11.6667 9.29167L18.3333 15.9583L25 9.29167L26.6667 10.9583V3.33333H3.33333V14.2917L5 15.9583ZM3.33333 26.6667H26.6667V15.6667L25 14L18.3333 20.6667L11.6667 14L5 20.6667L3.33333 19V26.6667ZM3.33333 26.6667V15.6667V19V3.33333V26.6667Z" fill="#1C1B1F"/>
</svg>
