<svg width="30" height="34" viewBox="0 0 30 34" fill="none" xmlns="http://www.w3.org/2000/svg">
<path d="M3.33333 33.6667C2.41667 33.6667 1.63194 33.3403 0.979167 32.6875C0.326389 32.0348 0 31.25 0 30.3334V7.00004C0 6.08337 0.326389 5.29865 0.979167 4.64587C1.63194 3.9931 2.41667 3.66671 3.33333 3.66671H5V2.00004C5 1.52782 5.15972 1.13199 5.47917 0.812541C5.79861 0.493096 6.19444 0.333374 6.66667 0.333374C7.13889 0.333374 7.53472 0.493096 7.85417 0.812541C8.17361 1.13199 8.33333 1.52782 8.33333 2.00004V3.66671H21.6667V2.00004C21.6667 1.52782 21.8264 1.13199 22.1458 0.812541C22.4653 0.493096 22.8611 0.333374 23.3333 0.333374C23.8056 0.333374 24.2014 0.493096 24.5208 0.812541C24.8403 1.13199 25 1.52782 25 2.00004V3.66671H26.6667C27.5833 3.66671 28.3681 3.9931 29.0208 4.64587C29.6736 5.29865 30 6.08337 30 7.00004V30.3334C30 31.25 29.6736 32.0348 29.0208 32.6875C28.3681 33.3403 27.5833 33.6667 26.6667 33.6667H3.33333ZM3.33333 30.3334H26.6667V13.6667H3.33333V30.3334ZM3.33333 10.3334H26.6667V7.00004H3.33333V10.3334ZM15 20.3334C14.5278 20.3334 14.1319 20.1737 13.8125 19.8542C13.4931 19.5348 13.3333 19.1389 13.3333 18.6667C13.3333 18.1945 13.4931 17.7987 13.8125 17.4792C14.1319 17.1598 14.5278 17 15 17C15.4722 17 15.8681 17.1598 16.1875 17.4792C16.5069 17.7987 16.6667 18.1945 16.6667 18.6667C16.6667 19.1389 16.5069 19.5348 16.1875 19.8542C15.8681 20.1737 15.4722 20.3334 15 20.3334ZM8.33333 20.3334C7.86111 20.3334 7.46528 20.1737 7.14583 19.8542C6.82639 19.5348 6.66667 19.1389 6.66667 18.6667C6.66667 18.1945 6.82639 17.7987 7.14583 17.4792C7.46528 17.1598 7.86111 17 8.33333 17C8.80556 17 9.20139 17.1598 9.52083 17.4792C9.84028 17.7987 10 18.1945 10 18.6667C10 19.1389 9.84028 19.5348 9.52083 19.8542C9.20139 20.1737 8.80556 20.3334 8.33333 20.3334ZM21.6667 20.3334C21.1944 20.3334 20.7986 20.1737 20.4792 19.8542C20.1597 19.5348 20 19.1389 20 18.6667C20 18.1945 20.1597 17.7987 20.4792 17.4792C20.7986 17.1598 21.1944 17 21.6667 17C22.1389 17 22.5347 17.1598 22.8542 17.4792C23.1736 17.7987 23.3333 18.1945 23.3333 18.6667C23.3333 19.1389 23.1736 19.5348 22.8542 19.8542C22.5347 20.1737 22.1389 20.3334 21.6667 20.3334ZM15 27C14.5278 27 14.1319 26.8403 13.8125 26.5209C13.4931 26.2014 13.3333 25.8056 13.3333 25.3334C13.3333 24.8612 13.4931 24.4653 13.8125 24.1459C14.1319 23.8264 14.5278 23.6667 15 23.6667C15.4722 23.6667 15.8681 23.8264 16.1875 24.1459C16.5069 24.4653 16.6667 24.8612 16.6667 25.3334C16.6667 25.8056 16.5069 26.2014 16.1875 26.5209C15.8681 26.8403 15.4722 27 15 27ZM8.33333 27C7.86111 27 7.46528 26.8403 7.14583 26.5209C6.82639 26.2014 6.66667 25.8056 6.66667 25.3334C6.66667 24.8612 6.82639 24.4653 7.14583 24.1459C7.46528 23.8264 7.86111 23.6667 8.33333 23.6667C8.80556 23.6667 9.20139 23.8264 9.52083 24.1459C9.84028 24.4653 10 24.8612 10 25.3334C10 25.8056 9.84028 26.2014 9.52083 26.5209C9.20139 26.8403 8.80556 27 8.33333 27ZM21.6667 27C21.1944 27 20.7986 26.8403 20.4792 26.5209C20.1597 26.2014 20 25.8056 20 25.3334C20 24.8612 20.1597 24.4653 20.4792 24.1459C20.7986 23.8264 21.1944 23.6667 21.6667 23.6667C22.1389 23.6667 22.5347 23.8264 22.8542 24.1459C23.1736 24.4653 23.3333 24.8612 23.3333 25.3334C23.3333 25.8056 23.1736 26.2014 22.8542 26.5209C22.5347 26.8403 22.1389 27 21.6667 27Z" fill="#1C1B1F"/>
</svg>
