<svg width="33" height="37" viewBox="0 0 33 37" fill="none" xmlns="http://www.w3.org/2000/svg">
<path fill-rule="evenodd" clip-rule="evenodd" d="M31.4442 15.5071H1.73755C1.04755 15.5071 0.487549 14.9471 0.487549 14.2571C0.487549 13.5671 1.04755 13.0071 1.73755 13.0071H31.4442C32.1342 13.0071 32.6942 13.5671 32.6942 14.2571C32.6942 14.9471 32.1342 15.5071 31.4442 15.5071Z" fill="black"/>
<path fill-rule="evenodd" clip-rule="evenodd" d="M24.002 22.016C23.312 22.016 22.7454 21.456 22.7454 20.766C22.7454 20.076 23.297 19.516 23.987 19.516H24.002C24.692 19.516 25.252 20.076 25.252 20.766C25.252 21.456 24.692 22.016 24.002 22.016Z" fill="black"/>
<path fill-rule="evenodd" clip-rule="evenodd" d="M16.6062 22.016C15.9162 22.016 15.3495 21.456 15.3495 20.766C15.3495 20.076 15.9012 19.516 16.5912 19.516H16.6062C17.2962 19.516 17.8562 20.076 17.8562 20.766C17.8562 21.456 17.2962 22.016 16.6062 22.016Z" fill="black"/>
<path fill-rule="evenodd" clip-rule="evenodd" d="M9.19486 22.016C8.50486 22.016 7.93652 21.456 7.93652 20.766C7.93652 20.076 8.48986 19.516 9.17986 19.516H9.19486C9.88486 19.516 10.4449 20.076 10.4449 20.766C10.4449 21.456 9.88486 22.016 9.19486 22.016Z" fill="black"/>
<path fill-rule="evenodd" clip-rule="evenodd" d="M24.002 28.4938C23.312 28.4938 22.7454 27.9338 22.7454 27.2438C22.7454 26.5538 23.297 25.9938 23.987 25.9938H24.002C24.692 25.9938 25.252 26.5538 25.252 27.2438C25.252 27.9338 24.692 28.4938 24.002 28.4938Z" fill="black"/>
<path fill-rule="evenodd" clip-rule="evenodd" d="M16.6062 28.4938C15.9162 28.4938 15.3495 27.9338 15.3495 27.2438C15.3495 26.5538 15.9012 25.9938 16.5912 25.9938H16.6062C17.2962 25.9938 17.8562 26.5538 17.8562 27.2438C17.8562 27.9338 17.2962 28.4938 16.6062 28.4938Z" fill="black"/>
<path fill-rule="evenodd" clip-rule="evenodd" d="M9.19486 28.4938C8.50486 28.4938 7.93652 27.9338 7.93652 27.2438C7.93652 26.5538 8.48986 25.9938 9.17986 25.9938H9.19486C9.88486 25.9938 10.4449 26.5538 10.4449 27.2438C10.4449 27.9338 9.88486 28.4938 9.19486 28.4938Z" fill="black"/>
<path fill-rule="evenodd" clip-rule="evenodd" d="M23.3225 8.65163C22.6325 8.65163 22.0725 8.09163 22.0725 7.40163V1.91663C22.0725 1.22663 22.6325 0.666626 23.3225 0.666626C24.0125 0.666626 24.5725 1.22663 24.5725 1.91663V7.40163C24.5725 8.09163 24.0125 8.65163 23.3225 8.65163Z" fill="black"/>
<path fill-rule="evenodd" clip-rule="evenodd" d="M9.85889 8.65163C9.16889 8.65163 8.60889 8.09163 8.60889 7.40163V1.91663C8.60889 1.22663 9.16889 0.666626 9.85889 0.666626C10.5489 0.666626 11.1089 1.22663 11.1089 1.91663V7.40163C11.1089 8.09163 10.5489 8.65163 9.85889 8.65163Z" fill="black"/>
<mask id="mask0_172_370" style="mask-type:luminance" maskUnits="userSpaceOnUse" x="0" y="3" width="33" height="34">
<path fill-rule="evenodd" clip-rule="evenodd" d="M0.333374 3.29846H32.8334V36.5H0.333374V3.29846Z" fill="white"/>
</mask>
<g mask="url(#mask0_172_370)">
<path fill-rule="evenodd" clip-rule="evenodd" d="M9.53504 5.79846C5.21337 5.79846 2.83337 8.10346 2.83337 12.2885V27.3701C2.83337 31.6468 5.21337 34.0001 9.53504 34.0001H23.6317C27.9534 34.0001 30.3334 31.6901 30.3334 27.4968V12.2885C30.34 10.2301 29.7867 8.63013 28.6884 7.53013C27.5584 6.3968 25.8167 5.79846 23.6467 5.79846H9.53504ZM23.6317 36.5001H9.53504C3.86004 36.5001 0.333374 33.0018 0.333374 27.3701V12.2885C0.333374 6.7418 3.86004 3.29846 9.53504 3.29846H23.6467C26.495 3.29846 28.85 4.1518 30.4584 5.76346C32.02 7.3318 32.8417 9.58679 32.8334 12.2918V27.4968C32.8334 33.0501 29.3067 36.5001 23.6317 36.5001Z" fill="black"/>
</g>
</svg>
