<svg width="28" height="28" viewBox="0 0 28 28" fill="none" xmlns="http://www.w3.org/2000/svg">
<path d="M13.9998 15.8666L17.8665 19.7333C18.111 19.9777 18.4221 20.1 18.7998 20.1C19.1776 20.1 19.4887 19.9777 19.7332 19.7333C19.9776 19.4888 20.0998 19.1777 20.0998 18.8C20.0998 18.4222 19.9776 18.1111 19.7332 17.8666L15.8665 14L19.7332 10.1333C19.9776 9.88885 20.0998 9.57774 20.0998 9.19996C20.0998 8.82218 19.9776 8.51107 19.7332 8.26663C19.4887 8.02218 19.1776 7.89996 18.7998 7.89996C18.4221 7.89996 18.111 8.02218 17.8665 8.26663L13.9998 12.1333L10.1332 8.26663C9.88873 8.02218 9.57762 7.89996 9.19984 7.89996C8.82206 7.89996 8.51095 8.02218 8.2665 8.26663C8.02206 8.51107 7.89984 8.82218 7.89984 9.19996C7.89984 9.57774 8.02206 9.88885 8.2665 10.1333L12.1332 14L8.2665 17.8666C8.02206 18.1111 7.89984 18.4222 7.89984 18.8C7.89984 19.1777 8.02206 19.4888 8.2665 19.7333C8.51095 19.9777 8.82206 20.1 9.19984 20.1C9.57762 20.1 9.88873 19.9777 10.1332 19.7333L13.9998 15.8666ZM13.9998 27.3333C12.1554 27.3333 10.4221 26.9833 8.79984 26.2833C7.17762 25.5833 5.7665 24.6333 4.5665 23.4333C3.3665 22.2333 2.4165 20.8222 1.7165 19.2C1.0165 17.5777 0.666504 15.8444 0.666504 14C0.666504 12.1555 1.0165 10.4222 1.7165 8.79996C2.4165 7.17774 3.3665 5.76663 4.5665 4.56663C5.7665 3.36663 7.17762 2.41663 8.79984 1.71663C10.4221 1.01663 12.1554 0.666626 13.9998 0.666626C15.8443 0.666626 17.5776 1.01663 19.1998 1.71663C20.8221 2.41663 22.2332 3.36663 23.4332 4.56663C24.6332 5.76663 25.5832 7.17774 26.2832 8.79996C26.9832 10.4222 27.3332 12.1555 27.3332 14C27.3332 15.8444 26.9832 17.5777 26.2832 19.2C25.5832 20.8222 24.6332 22.2333 23.4332 23.4333C22.2332 24.6333 20.8221 25.5833 19.1998 26.2833C17.5776 26.9833 15.8443 27.3333 13.9998 27.3333ZM13.9998 24.6666C16.9776 24.6666 19.4998 23.6333 21.5665 21.5666C23.6332 19.5 24.6665 16.9777 24.6665 14C24.6665 11.0222 23.6332 8.49996 21.5665 6.43329C19.4998 4.36663 16.9776 3.33329 13.9998 3.33329C11.0221 3.33329 8.49984 4.36663 6.43317 6.43329C4.3665 8.49996 3.33317 11.0222 3.33317 14C3.33317 16.9777 4.3665 19.5 6.43317 21.5666C8.49984 23.6333 11.0221 24.6666 13.9998 24.6666Z" fill="#FF595C"/>
</svg>
