<svg width="21" height="14" viewBox="0 0 21 14" fill="none" xmlns="http://www.w3.org/2000/svg">
<path d="M19 0.999933H0V2.99993H2.3L5.58 11.9999C5.78631 12.5835 6.16807 13.0889 6.67294 13.447C7.1778 13.8051 7.78106 13.9982 8.4 13.9999H17V11.9999H8.4C8.19449 11.9998 7.99399 11.9364 7.8258 11.8183C7.6576 11.7003 7.52987 11.5332 7.46 11.3399L7 9.99993H16.28C16.714 9.99931 17.1361 9.85751 17.4824 9.59594C17.8288 9.33437 18.0806 8.96723 18.2 8.54993L20 2.26993C20.0406 2.13862 20.0538 2.00033 20.0386 1.86371C20.0234 1.72709 19.9802 1.59506 19.9117 1.47588C19.8432 1.35671 19.7509 1.25293 19.6404 1.17104C19.53 1.08915 19.4039 1.0309 19.27 0.999933C19.1806 0.985374 19.0894 0.985374 19 0.999933ZM16.25 7.99993H6.25L4.43 2.99993H17.67L16.25 7.99993Z" fill="#0B0B0B"/>
</svg>
