<svg width="40" height="40" viewBox="0 0 40 40" fill="none" xmlns="http://www.w3.org/2000/svg">
<path fill-rule="evenodd" clip-rule="evenodd" d="M10.4166 5.83337C5.83331 5.83337 5.83331 6.18004 5.83331 10.4167V10.4584C5.83331 12.3034 5.83331 13.6367 6.28498 14.2C6.72665 14.7467 8.03831 15 10.4166 15C12.795 15 14.1066 14.745 14.5483 14.1984C15 13.6367 15 12.3034 15 10.4567C15 6.18004 15 5.83337 10.4166 5.83337ZM10.4166 17.5C7.60665 17.5 5.49831 17.205 4.33998 15.7667C3.33331 14.5184 3.33331 12.815 3.33331 10.4584L4.58331 10.4167H3.33331C3.33331 5.63337 3.63498 3.33337 10.4166 3.33337C17.1983 3.33337 17.5 5.63337 17.5 10.4167C17.5 12.8134 17.5 14.5184 16.4933 15.7667C15.335 17.205 13.2266 17.5 10.4166 17.5Z" fill="black"/>
<path fill-rule="evenodd" clip-rule="evenodd" d="M28.75 5.83337C24.1666 5.83337 24.1666 6.18004 24.1666 10.4167V10.4584C24.1666 12.3034 24.1666 13.6367 24.6183 14.2C25.06 14.7467 26.3716 15 28.75 15C31.1283 15 32.44 14.745 32.8816 14.1984C33.3333 13.6367 33.3333 12.3034 33.3333 10.4567C33.3333 6.18004 33.3333 5.83337 28.75 5.83337ZM28.75 17.5C25.94 17.5 23.8316 17.205 22.6733 15.7667C21.6666 14.5184 21.6666 12.815 21.6666 10.4584L22.9166 10.4167H21.6666C21.6666 5.63337 21.9683 3.33337 28.75 3.33337C35.5316 3.33337 35.8333 5.63337 35.8333 10.4167C35.8333 12.8134 35.8333 14.5184 34.8266 15.7667C33.6683 17.205 31.56 17.5 28.75 17.5Z" fill="black"/>
<path fill-rule="evenodd" clip-rule="evenodd" d="M10.4166 24.1667C5.83331 24.1667 5.83331 24.5134 5.83331 28.7501V28.7917C5.83331 30.6367 5.83331 31.9701 6.28498 32.5334C6.72665 33.0801 8.03831 33.3334 10.4166 33.3334C12.795 33.3334 14.1066 33.0784 14.5483 32.5317C15 31.9701 15 30.6367 15 28.7901C15 24.5134 15 24.1667 10.4166 24.1667ZM10.4166 35.8334C7.60665 35.8334 5.49831 35.5384 4.33998 34.1001C3.33331 32.8517 3.33331 31.1484 3.33331 28.7917L4.58331 28.7501H3.33331C3.33331 23.9667 3.63498 21.6667 10.4166 21.6667C17.1983 21.6667 17.5 23.9667 17.5 28.7501C17.5 31.1467 17.5 32.8517 16.4933 34.1001C15.335 35.5384 13.2266 35.8334 10.4166 35.8334Z" fill="black"/>
<path fill-rule="evenodd" clip-rule="evenodd" d="M28.75 24.1667C24.1666 24.1667 24.1666 24.5134 24.1666 28.7501V28.7917C24.1666 30.6367 24.1666 31.9701 24.6183 32.5334C25.06 33.0801 26.3716 33.3334 28.75 33.3334C31.1283 33.3334 32.44 33.0784 32.8816 32.5317C33.3333 31.9701 33.3333 30.6367 33.3333 28.7901C33.3333 24.5134 33.3333 24.1667 28.75 24.1667ZM28.75 35.8334C25.94 35.8334 23.8316 35.5384 22.6733 34.1001C21.6666 32.8517 21.6666 31.1484 21.6666 28.7917L22.9166 28.7501H21.6666C21.6666 23.9667 21.9683 21.6667 28.75 21.6667C35.5316 21.6667 35.8333 23.9667 35.8333 28.7501C35.8333 31.1467 35.8333 32.8517 34.8266 34.1001C33.6683 35.5384 31.56 35.8334 28.75 35.8334Z" fill="black"/>
</svg>
