<svg width="17" height="12" viewBox="0 0 17 12" fill="none" xmlns="http://www.w3.org/2000/svg">
<path d="M6.05015 11.575C5.91682 11.575 5.79182 11.5542 5.67515 11.5125C5.55849 11.4708 5.45015 11.4 5.35015 11.3L1.05015 6.99999C0.86682 6.81666 0.77932 6.57916 0.787653 6.28749C0.795986 5.99583 0.89182 5.75833 1.07515 5.57499C1.25849 5.39166 1.49182 5.29999 1.77515 5.29999C2.05849 5.29999 2.29182 5.39166 2.47515 5.57499L6.05015 9.14999L14.5252 0.674994C14.7085 0.491661 14.946 0.399994 15.2377 0.399994C15.5293 0.399994 15.7668 0.491661 15.9502 0.674994C16.1335 0.858327 16.2252 1.09583 16.2252 1.38749C16.2252 1.67916 16.1335 1.91666 15.9502 2.09999L6.75015 11.3C6.65015 11.4 6.54182 11.4708 6.42515 11.5125C6.30849 11.5542 6.18349 11.575 6.05015 11.575Z" fill="#31BE6E"/>
</svg>
