<svg width="146" height="147" viewBox="0 0 146 147" fill="none" xmlns="http://www.w3.org/2000/svg">
<circle cx="73" cy="73.5" r="70" fill="#44DD77"/>
<mask id="mask0_5_40" style="mask-type:alpha" maskUnits="userSpaceOnUse" x="33" y="33" width="80" height="80">
<rect x="33" y="33" width="80" height="80" fill="#D9D9D9"/>
</mask>
<g mask="url(#mask0_5_40)">
<path d="M64.8333 91.5834C64.3889 91.5834 63.9722 91.5134 63.5833 91.3734C63.1944 91.2356 62.8333 91 62.5 90.6667L48.1667 76.3334C47.5556 75.7223 47.2633 74.93 47.29 73.9567C47.3189 72.9856 47.6389 72.1945 48.25 71.5834C48.8611 70.9723 49.6389 70.6667 50.5833 70.6667C51.5278 70.6667 52.3056 70.9723 52.9167 71.5834L64.8333 83.5L93.0833 55.25C93.6944 54.6389 94.4867 54.3334 95.46 54.3334C96.4311 54.3334 97.2222 54.6389 97.8333 55.25C98.4444 55.8612 98.75 56.6523 98.75 57.6234C98.75 58.5967 98.4444 59.3889 97.8333 60L67.1667 90.6667C66.8333 91 66.4722 91.2356 66.0833 91.3734C65.6944 91.5134 65.2778 91.5834 64.8333 91.5834Z" fill="#F6F6F6"/>
</g>
</svg>
