<svg width="11" height="20" viewBox="0 0 11 20" fill="none" xmlns="http://www.w3.org/2000/svg">
<path d="M0.500081 18.8333C0.194526 18.5277 0.041748 18.1388 0.041748 17.6666C0.041748 17.1944 0.194526 16.8055 0.500081 16.4999L7.00008 9.99992L0.500081 3.49992C0.194526 3.19436 0.041748 2.80547 0.041748 2.33325C0.041748 1.86103 0.194526 1.47214 0.500081 1.16659C0.805637 0.86103 1.19453 0.708252 1.66675 0.708252C2.13897 0.708252 2.52786 0.86103 2.83341 1.16659L10.5001 8.83325C10.6667 8.99992 10.7848 9.18047 10.8542 9.37492C10.9237 9.56936 10.9584 9.7777 10.9584 9.99992C10.9584 10.2221 10.9237 10.4305 10.8542 10.6249C10.7848 10.8194 10.6667 10.9999 10.5001 11.1666L2.83341 18.8333C2.52786 19.1388 2.13897 19.2916 1.66675 19.2916C1.19453 19.2916 0.805637 19.1388 0.500081 18.8333Z" fill="#1C1B1F"/>
</svg>
