<svg width="11" height="20" viewBox="0 0 11 20" fill="none" xmlns="http://www.w3.org/2000/svg">
<path d="M8.16675 18.8333L0.500081 11.1666C0.333415 10.9999 0.215359 10.8194 0.145915 10.6249C0.0764703 10.4305 0.041748 10.2221 0.041748 9.99992C0.041748 9.7777 0.0764703 9.56936 0.145915 9.37492C0.215359 9.18047 0.333415 8.99992 0.500081 8.83325L8.16675 1.16659C8.4723 0.86103 8.86119 0.708252 9.33342 0.708252C9.80564 0.708252 10.1945 0.86103 10.5001 1.16659C10.8056 1.47214 10.9584 1.86103 10.9584 2.33325C10.9584 2.80547 10.8056 3.19436 10.5001 3.49992L4.00008 9.99992L10.5001 16.4999C10.8056 16.8055 10.9584 17.1944 10.9584 17.6666C10.9584 18.1388 10.8056 18.5277 10.5001 18.8333C10.1945 19.1388 9.80564 19.2916 9.33342 19.2916C8.86119 19.2916 8.4723 19.1388 8.16675 18.8333Z" fill="#1C1B1F"/>
</svg>
