<svg width="22" height="22" viewBox="0 0 22 22" fill="none" xmlns="http://www.w3.org/2000/svg">
<path d="M11.0001 13.3334L2.83342 21.5001C2.52786 21.8056 2.13897 21.9584 1.66675 21.9584C1.19453 21.9584 0.805637 21.8056 0.500081 21.5001C0.194526 21.1945 0.041748 20.8056 0.041748 20.3334C0.041748 19.8612 0.194526 19.4723 0.500081 19.1667L8.66675 11.0001L0.500081 2.83342C0.194526 2.52786 0.041748 2.13897 0.041748 1.66675C0.041748 1.19453 0.194526 0.805637 0.500081 0.500081C0.805637 0.194526 1.19453 0.041748 1.66675 0.041748C2.13897 0.041748 2.52786 0.194526 2.83342 0.500081L11.0001 8.66675L19.1667 0.500081C19.4723 0.194526 19.8612 0.041748 20.3334 0.041748C20.8056 0.041748 21.1945 0.194526 21.5001 0.500081C21.8056 0.805637 21.9584 1.19453 21.9584 1.66675C21.9584 2.13897 21.8056 2.52786 21.5001 2.83342L13.3334 11.0001L21.5001 19.1667C21.8056 19.4723 21.9584 19.8612 21.9584 20.3334C21.9584 20.8056 21.8056 21.1945 21.5001 21.5001C21.1945 21.8056 20.8056 21.9584 20.3334 21.9584C19.8612 21.9584 19.4723 21.8056 19.1667 21.5001L11.0001 13.3334Z" fill="#1C1B1F"/>
</svg>
