<svg width="12" height="12" viewBox="0 0 12 12" fill="none" xmlns="http://www.w3.org/2000/svg">
<path d="M6.00004 7.16683L1.91671 11.2502C1.76393 11.4029 1.56949 11.4793 1.33337 11.4793C1.09726 11.4793 0.902819 11.4029 0.750041 11.2502C0.597263 11.0974 0.520874 10.9029 0.520874 10.6668C0.520874 10.4307 0.597263 10.2363 0.750041 10.0835L4.83337 6.00016L0.750041 1.91683C0.597263 1.76405 0.520874 1.56961 0.520874 1.3335C0.520874 1.09739 0.597263 0.902941 0.750041 0.750163C0.902819 0.597385 1.09726 0.520996 1.33337 0.520996C1.56949 0.520996 1.76393 0.597385 1.91671 0.750163L6.00004 4.8335L10.0834 0.750163C10.2362 0.597385 10.4306 0.520996 10.6667 0.520996C10.9028 0.520996 11.0973 0.597385 11.25 0.750163C11.4028 0.902941 11.4792 1.09739 11.4792 1.3335C11.4792 1.56961 11.4028 1.76405 11.25 1.91683L7.16671 6.00016L11.25 10.0835C11.4028 10.2363 11.4792 10.4307 11.4792 10.6668C11.4792 10.9029 11.4028 11.0974 11.25 11.2502C11.0973 11.4029 10.9028 11.4793 10.6667 11.4793C10.4306 11.4793 10.2362 11.4029 10.0834 11.2502L6.00004 7.16683Z" fill="#DB4151"/>
</svg>
