<svg width="62" height="45" viewBox="0 0 62 45" fill="none" xmlns="http://www.w3.org/2000/svg">
<g clip-path="url(#clip0_121_1769)">
<path d="M61.8 26.77C61.8 26.7 61.79 26.63 61.76 26.56C61.75 26.52 61.73 26.48 61.72 26.45C61.72 26.45 61.72 26.44 61.72 26.43C58.42 22.04 55.05 17.71 51.46 13.55C48.21 9.79 44.69 5.34 40.46 2.66C34.27 -1.26 26.15 0.509996 18.79 2.66C18.79 2.64 18.79 2.62 18.77 2.61C17.65 0.679996 15.96 -0.470004 13.69 0.179996C12.75 0.449996 11.86 1.11 11.63 2.11C11.43 2.99 12.05 3.8 12.67 4.43C-0.840014 5.75 -4.07001 28.85 8.99999 35.84C12.89 37.92 16.26 39.03 20.62 37.57C20.82 37.5 20.98 37.41 21.17 37.33C21.28 37.33 21.39 37.31 21.51 37.25C24.67 35.63 27.91 34.18 31.06 32.56C31.06 32.56 31.07 32.55 31.08 32.54C35.53 36.58 40.11 40.48 44.87 44.14C45.14 44.35 45.41 44.3 45.6 44.13C51.05 41.53 55.99 38.14 61.46 35.61C61.67 35.51 61.82 35.23 61.81 35.01C61.67 32.27 61.79 29.52 61.81 26.78C61.81 26.78 61.81 26.78 61.81 26.77H61.8ZM41.31 5.07C48.54 11.13 54.45 19.08 60.1 26.6C57.82 28.13 55.4 29.27 52.86 30.36C51.76 30.83 50.66 31.28 49.59 31.79C48.85 32.14 46.45 33.95 45.69 33.75C44.59 33.46 42.55 30.24 41.78 29.38C40.12 27.52 38.46 25.65 36.81 23.77C33.5 20 30.2 16.22 27.09 12.29C24.72 9.3 22.69 6.55 18.93 5.27C18.19 5.02 17.48 4.84 16.78 4.7C25.04 2.21 34.65 -0.510004 41.31 5.08V5.07ZM13.17 2.09C13.51 1.4 14.88 1.34 15.49 1.44C16.3 1.57 16.95 2.35 17.39 3.06C16.29 3.39 15.22 3.72 14.17 4.03C14.14 3.97 14.1 3.9 14.04 3.84C13.6 3.43 12.83 2.78 13.17 2.09ZM4.81999 30.58C-0.190014 24.08 0.829987 10.98 8.89999 7.08C9.43999 6.82 9.99999 6.61 10.57 6.43C10.63 6.43 10.68 6.43 10.74 6.43C11 6.37 11.27 6.29 11.53 6.22C15.45 5.37 19.84 6.38 22.74 9.15C25.23 11.52 27.19 14.67 29.4 17.3C34.45 23.33 39.74 29.15 44.96 35.03C44.91 37.41 44.72 39.79 44.59 42.17C38.71 37.58 33.09 32.61 27.67 27.49C27.56 27.38 27.44 27.34 27.31 27.32C27.03 27.23 26.72 27.3 26.57 27.63C26.57 27.63 26.57 27.67 26.56 27.7C26.54 27.73 26.53 27.77 26.52 27.81C26.52 27.81 26.52 27.81 26.51 27.81C25.1 33.05 22.15 37.23 16.07 36.96C12.03 36.78 7.20999 33.69 4.82999 30.59L4.81999 30.58ZM25.57 33.71C26.42 32.4 27.03 30.89 27.53 29.26C28.35 30.03 29.17 30.79 29.99 31.54C28.53 32.28 27.05 33 25.57 33.71ZM56.37 36.67C52.9 38.65 49.54 40.62 45.97 42.39C46.1 39.99 46.29 37.59 46.35 35.18C50.84 32.41 55.95 30.91 60.39 28.08C60.37 29.67 60.33 31.26 60.34 32.86C60.36 35.24 58.26 35.6 56.37 36.68V36.67Z" fill="#6666FF"/>
<path d="M28.3999 11.46C28.3999 11.46 28.3999 11.46 28.3999 11.47C28.4299 11.53 28.4499 11.6 28.4999 11.66C30.0999 13.54 30.6799 15.38 33.1299 14.44C36.7399 13.06 40.5099 12.03 44.0199 10.39C44.4399 10.19 44.4499 9.59001 44.1599 9.30001C42.3499 7.42001 41.5299 5.65001 39.0199 6.60001C35.6099 7.90001 32.0699 8.89001 28.7899 10.5C28.7799 10.5 28.7699 10.5 28.7599 10.52C28.7199 10.54 28.6899 10.55 28.6499 10.57C28.2899 10.75 28.2399 11.08 28.3599 11.36C28.3599 11.39 28.3799 11.43 28.3999 11.46ZM39.6599 7.86001C40.8099 7.74001 41.7299 8.67001 42.4999 9.54001C39.7199 10.72 36.7999 11.42 33.9999 12.56C33.5599 12.74 32.2299 13.57 31.8599 13.48C31.4699 13.39 30.6499 12.27 30.0699 11.45C32.3599 10.4 34.7599 9.65001 37.1399 8.81001C37.8999 8.54001 38.8799 7.93001 39.6599 7.85001V7.86001Z" fill="#6666FF"/>
<path d="M15.58 12.76C10.83 11.98 8.76998 15.18 8.20998 19.34C7.55998 24.15 8.57998 27.77 13.49 29.41C23.15 32.65 24.77 14.63 15.59 12.76H15.58ZM13.85 28.07C10.26 27.01 9.17998 24.47 9.40998 21.06C9.63998 17.61 10.56 13.33 15.2 14.1C18.66 14.81 20.27 18.1 20.22 21.33C20.16 25.19 18.61 29.48 13.85 28.07Z" fill="#6666FF"/>
<path d="M46.8199 31.71C50.2599 29.9 53.7599 28.28 57.3799 26.88C58.2099 26.56 57.8499 25.21 57.0099 25.54C53.2699 26.99 49.6599 28.64 46.1199 30.51C45.3299 30.93 46.0299 32.13 46.8199 31.71Z" fill="#6666FF"/>
<path d="M8.18999 9.50997C4.67999 12.08 3.24999 16 3.17999 20.25C3.16999 21.15 4.55999 21.15 4.56999 20.25C4.62999 16.54 5.80999 12.97 8.88999 10.72C9.60999 10.2 8.90999 8.98997 8.18999 9.51997V9.50997Z" fill="#6666FF"/>
<path d="M10.67 9.54002C11.57 9.54002 11.57 8.15002 10.67 8.15002C9.77 8.15002 9.77 9.54002 10.67 9.54002Z" fill="#6666FF"/>
</g>
<defs>
<clipPath id="clip0_121_1769">
<rect width="61.1" height="44.29" fill="white" transform="translate(0.699951)"/>
</clipPath>
</defs>
</svg>
