<svg width="30" height="24" viewBox="0 0 30 24" fill="none" xmlns="http://www.w3.org/2000/svg">
<path d="M1.66667 3.66671C1.19444 3.66671 0.798611 3.50699 0.479167 3.18754C0.159722 2.8681 0 2.47226 0 2.00004C0 1.52782 0.159722 1.13199 0.479167 0.812541C0.798611 0.493096 1.19444 0.333374 1.66667 0.333374H28.3333C28.8056 0.333374 29.2014 0.493096 29.5208 0.812541C29.8403 1.13199 30 1.52782 30 2.00004C30 2.47226 29.8403 2.8681 29.5208 3.18754C29.2014 3.50699 28.8056 3.66671 28.3333 3.66671H1.66667ZM1.66667 23.6667C1.19444 23.6667 0.798611 23.507 0.479167 23.1875C0.159722 22.8681 0 22.4723 0 22C0 21.5278 0.159722 21.132 0.479167 20.8125C0.798611 20.4931 1.19444 20.3334 1.66667 20.3334H28.3333C28.8056 20.3334 29.2014 20.4931 29.5208 20.8125C29.8403 21.132 30 21.5278 30 22C30 22.4723 29.8403 22.8681 29.5208 23.1875C29.2014 23.507 28.8056 23.6667 28.3333 23.6667H1.66667ZM1.66667 13.6667C1.19444 13.6667 0.798611 13.507 0.479167 13.1875C0.159722 12.8681 0 12.4723 0 12C0 11.5278 0.159722 11.132 0.479167 10.8125C0.798611 10.4931 1.19444 10.3334 1.66667 10.3334H28.3333C28.8056 10.3334 29.2014 10.4931 29.5208 10.8125C29.8403 11.132 30 11.5278 30 12C30 12.4723 29.8403 12.8681 29.5208 13.1875C29.2014 13.507 28.8056 13.6667 28.3333 13.6667H1.66667Z" fill="#1C1B1F"/>
</svg>
