<svg width="10" height="12" viewBox="0 0 10 12" fill="none" xmlns="http://www.w3.org/2000/svg">
<path d="M2.08331 11.25C1.76248 11.25 1.48783 11.1358 1.25935 10.9073C1.03088 10.6788 0.916646 10.4042 0.916646 10.0833V2.5C0.751369 2.5 0.612827 2.4441 0.501021 2.33229C0.389216 2.22049 0.333313 2.08194 0.333313 1.91667C0.333313 1.75139 0.389216 1.61285 0.501021 1.50104C0.612827 1.38924 0.751369 1.33333 0.916646 1.33333H3.24998C3.24998 1.16806 3.30588 1.02951 3.41769 0.917708C3.52949 0.805903 3.66804 0.75 3.83331 0.75H6.16665C6.33192 0.75 6.47047 0.805903 6.58227 0.917708C6.69408 1.02951 6.74998 1.16806 6.74998 1.33333H9.08331C9.24859 1.33333 9.38713 1.38924 9.49894 1.50104C9.61074 1.61285 9.66665 1.75139 9.66665 1.91667C9.66665 2.08194 9.61074 2.22049 9.49894 2.33229C9.38713 2.4441 9.24859 2.5 9.08331 2.5V10.0833C9.08331 10.4042 8.96908 10.6788 8.74061 10.9073C8.51213 11.1358 8.23748 11.25 7.91665 11.25H2.08331ZM2.08331 2.5V10.0833H7.91665V2.5H2.08331ZM3.24998 8.33333C3.24998 8.49861 3.30588 8.63715 3.41769 8.74896C3.52949 8.86076 3.66804 8.91667 3.83331 8.91667C3.99859 8.91667 4.13713 8.86076 4.24894 8.74896C4.36074 8.63715 4.41665 8.49861 4.41665 8.33333V4.25C4.41665 4.08472 4.36074 3.94618 4.24894 3.83437C4.13713 3.72257 3.99859 3.66667 3.83331 3.66667C3.66804 3.66667 3.52949 3.72257 3.41769 3.83437C3.30588 3.94618 3.24998 4.08472 3.24998 4.25V8.33333ZM5.58331 8.33333C5.58331 8.49861 5.63922 8.63715 5.75102 8.74896C5.86283 8.86076 6.00137 8.91667 6.16665 8.91667C6.33192 8.91667 6.47047 8.86076 6.58227 8.74896C6.69408 8.63715 6.74998 8.49861 6.74998 8.33333V4.25C6.74998 4.08472 6.69408 3.94618 6.58227 3.83437C6.47047 3.72257 6.33192 3.66667 6.16665 3.66667C6.00137 3.66667 5.86283 3.72257 5.75102 3.83437C5.63922 3.94618 5.58331 4.08472 5.58331 4.25V8.33333Z" fill="#919191"/>
</svg>
