<svg width="30" height="30" viewBox="0 0 30 30" fill="none" xmlns="http://www.w3.org/2000/svg">
<rect width="30" height="30" rx="2" fill="white"/>
<path d="M4.42871 6.07617H25.5715V8.17999H4.42871V6.07617Z" fill="#F60621"/>
<path d="M6.48047 4.55078H23.5565V6.6546H6.48047V4.55078Z" fill="#F60621"/>
<path d="M10.8628 2.5H18.9624V3.90241H10.8628V2.5Z" fill="#F60621"/>
<path d="M17.6296 3.63965H18.9618V5.46275H17.6296V3.63965Z" fill="#F60621"/>
<path d="M10.8628 3.42871H12.195V5.25181H10.8628V3.42871Z" fill="#F60621"/>
<path d="M5.32324 8.75879L8.37375 27.5001H21.7325L24.783 8.75879H5.32324ZM12.0907 24.4757C12.0907 24.9385 11.7121 25.3172 11.2492 25.3172H10.2326C9.76976 25.3172 9.37161 24.9393 9.34767 24.4771L8.69752 11.7819C8.67357 11.3195 9.03333 10.9413 9.49576 10.9413H11.2486C11.7114 10.9413 12.0902 11.3199 12.0902 11.7828L12.0904 24.4753L12.0907 24.4757ZM16.5264 24.4757C16.5264 24.9385 16.1478 25.3172 15.6849 25.3172H14.3523C13.8895 25.3172 13.5108 24.9386 13.5108 24.4757V11.7832C13.5108 11.3204 13.8894 10.9417 14.3523 10.9417H15.6849C16.1477 10.9417 16.5264 11.3203 16.5264 11.7832V24.4757ZM20.7242 24.4769C20.7002 24.9393 20.3021 25.3171 19.8393 25.3171H18.8227C18.3599 25.3171 17.9811 24.9385 17.9811 24.4755L17.9813 11.7835C17.9813 11.3207 18.3599 10.942 18.8229 10.942H20.5757C21.0385 10.942 21.3979 11.3202 21.374 11.7826L20.7242 24.4769Z" fill="#F60621"/>
</svg>
