<svg width="16" height="16" viewBox="0 0 16 16" fill="none" xmlns="http://www.w3.org/2000/svg">
<path d="M13.8334 15.5H1.33337C0.986152 15.5 0.739624 15.3507 0.593791 15.0521C0.447957 14.7535 0.472263 14.4653 0.666707 14.1875L4.58337 8.6875C4.73615 8.46527 4.9306 8.29514 5.16671 8.17708C5.40282 8.05902 5.65976 8 5.93754 8H9.29171L14.0417 2.45833C14.2917 2.16666 14.5973 2.0868 14.9584 2.21875C15.3195 2.35069 15.5 2.61111 15.5 3V13.8333C15.5 14.2917 15.3368 14.684 15.0105 15.0104C14.6841 15.3368 14.2917 15.5 13.8334 15.5ZM4.25004 6.33333L1.66671 9.97916C1.52782 10.1736 1.34726 10.2882 1.12504 10.3229C0.902819 10.3576 0.694485 10.3056 0.500041 10.1667C0.305596 10.0278 0.191013 9.84722 0.156291 9.625C0.121568 9.40277 0.173652 9.19444 0.312541 9L2.91671 5.375C3.06949 5.15277 3.26393 4.97916 3.50004 4.85416C3.73615 4.72916 3.9931 4.66666 4.27087 4.66666H7.62504L11 0.729163C11.1528 0.548608 11.3403 0.451385 11.5625 0.437497C11.7848 0.423608 11.9862 0.493052 12.1667 0.64583C12.3473 0.798608 12.4445 0.986108 12.4584 1.20833C12.4723 1.43055 12.4028 1.63194 12.25 1.8125L8.87504 5.75C8.72226 5.94444 8.53476 6.09027 8.31254 6.1875C8.09032 6.28472 7.86115 6.33333 7.62504 6.33333H4.25004ZM2.95837 13.8333H13.8334V5.25L10.5417 9.08333C10.3889 9.27777 10.2014 9.42361 9.97921 9.52083C9.75699 9.61805 9.52782 9.66666 9.29171 9.66666H5.91671L2.95837 13.8333Z" fill="#B5B5B5"/>
</svg>
