<svg width="34" height="34" viewBox="0 0 34 34" fill="none" xmlns="http://www.w3.org/2000/svg">
<path d="M31.4167 12.625L29.0833 10.2916L30.3333 8.99996L25 3.66662L23.7083 4.91662L21.3333 2.54162L22.5833 1.24996C23.2222 0.611066 24.0139 0.298566 24.9583 0.312455C25.9028 0.326344 26.6944 0.652733 27.3333 1.29162L32.7083 6.66662C33.3472 7.30551 33.6667 8.09023 33.6667 9.02079C33.6667 9.95134 33.3472 10.7361 32.7083 11.375L31.4167 12.625ZM11.4167 32.6666C10.7778 33.3055 9.99306 33.625 9.0625 33.625C8.13195 33.625 7.34722 33.3055 6.70833 32.6666L1.33333 27.2916C0.694444 26.6527 0.375 25.868 0.375 24.9375C0.375 24.0069 0.694444 23.2222 1.33333 22.5833L2.58333 21.3333L4.95833 23.7083L3.66667 24.9583L9.04167 30.3333L10.2917 29.0416L12.6667 31.4166L11.4167 32.6666ZM27.9583 18.6666L30.3333 16.2916L17.7083 3.66662L15.3333 6.04162L27.9583 18.6666ZM16.2917 30.3333L18.6667 27.9166L6.08333 15.3333L3.66667 17.7083L16.2917 30.3333ZM16.0417 20.5833L20.625 16.0416L17.9583 13.375L13.4167 17.9583L16.0417 20.5833ZM18.6667 32.6666C18.0278 33.3055 17.2361 33.625 16.2917 33.625C15.3472 33.625 14.5556 33.3055 13.9167 32.6666L1.33333 20.0833C0.694444 19.4444 0.375 18.6527 0.375 17.7083C0.375 16.7638 0.694444 15.9722 1.33333 15.3333L3.70833 12.9583C4.34722 12.3194 5.13195 12 6.0625 12C6.99306 12 7.77778 12.3194 8.41667 12.9583L11.0417 15.5833L15.625 11L13 8.41662C12.3611 7.77773 12.0417 6.98607 12.0417 6.04162C12.0417 5.09718 12.3611 4.30551 13 3.66662L15.375 1.29162C16.0139 0.652733 16.7986 0.333288 17.7292 0.333288C18.6597 0.333288 19.4444 0.652733 20.0833 1.29162L32.7083 13.9166C33.3472 14.5555 33.6667 15.3402 33.6667 16.2708C33.6667 17.2013 33.3472 17.9861 32.7083 18.625L30.3333 21C29.6944 21.6388 28.9028 21.9583 27.9583 21.9583C27.0139 21.9583 26.2222 21.6388 25.5833 21L23 18.375L18.4167 22.9583L21.0417 25.5833C21.6806 26.2222 22 27.0069 22 27.9375C22 28.868 21.6806 29.6527 21.0417 30.2916L18.6667 32.6666Z" fill="#1C1B1F"/>
</svg>
