<svg width="20" height="11" viewBox="0 0 20 11" fill="none" xmlns="http://www.w3.org/2000/svg">
<path d="M1.16683 10.4583C0.861274 10.1528 0.708496 9.76389 0.708496 9.29167C0.708496 8.81945 0.861274 8.43056 1.16683 8.125L8.8335 0.458333C9.00016 0.291667 9.18072 0.173611 9.37516 0.104167C9.56961 0.0347222 9.77794 0 10.0002 0C10.2224 0 10.4307 0.0347222 10.6252 0.104167C10.8196 0.173611 11.0002 0.291667 11.1668 0.458333L18.8752 8.16667C19.1807 8.47222 19.3335 8.84722 19.3335 9.29167C19.3335 9.73611 19.1668 10.125 18.8335 10.4583C18.5279 10.7639 18.1391 10.9167 17.6668 10.9167C17.1946 10.9167 16.8057 10.7639 16.5002 10.4583L10.0002 3.95833L3.4585 10.5C3.15294 10.8056 2.77794 10.9583 2.3335 10.9583C1.88905 10.9583 1.50016 10.7917 1.16683 10.4583Z" fill="#1C1B1F"/>
</svg>
