<svg width="20" height="12" viewBox="0 0 20 12" fill="none" xmlns="http://www.w3.org/2000/svg">
<path d="M9.99993 11.9167C9.77771 11.9167 9.56937 11.882 9.37493 11.8125C9.18049 11.7431 8.99993 11.625 8.83326 11.4583L1.12493 3.75001C0.819374 3.44445 0.67354 3.06251 0.687429 2.60418C0.701318 2.14584 0.86104 1.7639 1.1666 1.45834C1.47215 1.15279 1.86104 1.00001 2.33326 1.00001C2.80549 1.00001 3.19437 1.15279 3.49993 1.45834L9.99993 7.95834L16.5416 1.41668C16.8472 1.11112 17.2291 0.965288 17.6874 0.979177C18.1458 0.993066 18.5277 1.15279 18.8333 1.45834C19.1388 1.7639 19.2916 2.15279 19.2916 2.62501C19.2916 3.09723 19.1388 3.48612 18.8333 3.79168L11.1666 11.4583C10.9999 11.625 10.8194 11.7431 10.6249 11.8125C10.4305 11.882 10.2222 11.9167 9.99993 11.9167Z" fill="#1C1B1F"/>
</svg>
