<svg width="34" height="34" viewBox="0 0 34 34" fill="none" xmlns="http://www.w3.org/2000/svg">
<path d="M16.9999 18.6667C16.5277 18.6667 16.1319 18.507 15.8124 18.1875C15.493 17.8681 15.3333 17.4723 15.3333 17C15.3333 16.5278 15.493 16.132 15.8124 15.8125C16.1319 15.4931 16.5277 15.3334 16.9999 15.3334C17.4721 15.3334 17.868 15.4931 18.1874 15.8125C18.5069 16.132 18.6666 16.5278 18.6666 17C18.6666 17.4723 18.5069 17.8681 18.1874 18.1875C17.868 18.507 17.4721 18.6667 16.9999 18.6667ZM16.9999 33.6667C14.6944 33.6667 12.5277 33.2292 10.4999 32.3542C8.47214 31.4792 6.70825 30.2917 5.20825 28.7917C3.70825 27.2917 2.52075 25.5278 1.64575 23.5C0.770752 21.4723 0.333252 19.3056 0.333252 17C0.333252 14.6945 0.770752 12.5278 1.64575 10.5C2.52075 8.47226 3.70825 6.70837 5.20825 5.20837C6.70825 3.70837 8.47214 2.52087 10.4999 1.64587C12.5277 0.770874 14.6944 0.333374 16.9999 0.333374C19.3055 0.333374 21.4721 0.770874 23.4999 1.64587C25.5277 2.52087 27.2916 3.70837 28.7916 5.20837C30.2916 6.70837 31.4791 8.47226 32.3541 10.5C33.2291 12.5278 33.6666 14.6945 33.6666 17C33.6666 19.3056 33.2291 21.4723 32.3541 23.5C31.4791 25.5278 30.2916 27.2917 28.7916 28.7917C27.2916 30.2917 25.5277 31.4792 23.4999 32.3542C21.4721 33.2292 19.3055 33.6667 16.9999 33.6667ZM16.9999 30.3334C20.7221 30.3334 23.8749 29.0417 26.4583 26.4584C29.0416 23.875 30.3333 20.7223 30.3333 17C30.3333 13.2778 29.0416 10.125 26.4583 7.54171C23.8749 4.95837 20.7221 3.66671 16.9999 3.66671C13.2777 3.66671 10.1249 4.95837 7.54159 7.54171C4.95825 10.125 3.66659 13.2778 3.66659 17C3.66659 20.7223 4.95825 23.875 7.54159 26.4584C10.1249 29.0417 13.2777 30.3334 16.9999 30.3334ZM9.37492 25.4584L19.7916 20.5834C19.9583 20.5 20.111 20.3889 20.2499 20.25C20.3888 20.1112 20.4999 19.9584 20.5833 19.7917L25.4583 9.37504C25.5971 9.09726 25.5624 8.85421 25.3541 8.64587C25.1458 8.43754 24.9027 8.40282 24.6249 8.54171L14.2083 13.4167C14.0416 13.5 13.8888 13.6112 13.7499 13.75C13.611 13.8889 13.4999 14.0417 13.4166 14.2084L8.54158 24.625C8.4027 24.9028 8.43742 25.1459 8.64575 25.3542C8.85408 25.5625 9.09714 25.5973 9.37492 25.4584Z" fill="#1C1B1F"/>
</svg>
