<svg width="146" height="147" viewBox="0 0 146 147" fill="none" xmlns="http://www.w3.org/2000/svg">
<circle cx="73" cy="73.5" r="70" fill="#DD4444"/>
<mask id="mask0_8_48" style="mask-type:alpha" maskUnits="userSpaceOnUse" x="34" y="31" width="80" height="80">
<rect x="34" y="31" width="80" height="80" fill="#D9D9D9"/>
</mask>
<g mask="url(#mask0_8_48)">
<path d="M40.8956 43.6758C41.4956 43.1445 42.2082 42.7231 42.9927 42.4356C43.7771 42.148 44.618 42 45.4672 42C46.3164 42 47.1573 42.148 47.9417 42.4356C48.7262 42.7231 49.4388 43.1445 50.0389 43.6758L73.501 64.41L96.963 43.6758C97.5634 43.145 98.2761 42.724 99.0605 42.4368C99.8449 42.1495 100.686 42.0017 101.535 42.0017C102.384 42.0017 103.224 42.1495 104.009 42.4368C104.793 42.724 105.506 43.145 106.106 43.6758C106.707 44.2065 107.183 44.8366 107.508 45.5301C107.833 46.2235 108 46.9668 108 47.7174C108 48.468 107.833 49.2112 107.508 49.9047C107.183 50.5982 106.707 51.2282 106.106 51.759L82.6529 72.5008L106.106 93.2427C107.319 94.3146 108 95.7684 108 97.2843C108 98.8002 107.319 100.254 106.106 101.326C104.894 102.398 103.249 103 101.535 103C99.82 103 98.1755 102.398 96.963 101.326L73.501 80.5917L50.0389 101.326C48.8264 102.398 47.1819 103 45.4672 103C43.7525 103 42.108 102.398 40.8956 101.326C39.6831 100.254 39.0019 98.8002 39.0019 97.2843C39.0019 95.7684 39.6831 94.3146 40.8956 93.2427L64.349 72.5008L40.8956 51.759C40.2946 51.2285 39.8179 50.5985 39.4927 49.905C39.1674 49.2115 39 48.4681 39 47.7174C39 46.9666 39.1674 46.2233 39.4927 45.5298C39.8179 44.8363 40.2946 44.2063 40.8956 43.6758Z" fill="#F6F6F6"/>
</g>
</svg>
