<svg width="24" height="24" viewBox="0 0 24 24" fill="none" xmlns="http://www.w3.org/2000/svg">
<g clip-path="url(#clip0_591_208)">
<rect width="24" height="24" rx="12" fill="white"/>
<g clip-path="url(#clip1_591_208)">
<mask id="mask0_591_208" style="mask-type:luminance" maskUnits="userSpaceOnUse" x="-7" y="0" width="47" height="28">
<path d="M40 0H-7V28H40V0Z" fill="white"/>
</mask>
<g mask="url(#mask0_591_208)">
<path d="M40 23.6956H-7V25.8549H40V23.6956Z" fill="white"/>
<path d="M40 21.5363H-7V23.6813H40V21.5363Z" fill="#CB001C"/>
<path d="M40 19.3912H-7V21.5506H40V19.3912Z" fill="white"/>
<path d="M40 17.2318H-7V19.3912H40V17.2318Z" fill="#CB001C"/>
<path d="M40 15.0725H-7V17.2176H40V15.0725Z" fill="white"/>
<path d="M40 12.9275H-7V15.0868H40V12.9275Z" fill="#CB001C"/>
<path d="M40 10.7682H-7V12.9132H40V10.7682Z" fill="white"/>
<path d="M40 8.62305H-7V10.7824H40V8.62305Z" fill="#CB001C"/>
<path d="M40 6.46375H-7V8.62309H40V6.46375Z" fill="white"/>
<path d="M40 4.30444H-7V6.46379H40V4.30444Z" fill="#CB001C"/>
<path d="M40 2.1593H-7V4.31865H40V2.1593Z" fill="white"/>
<path d="M40 0H-7V2.15935H40V0Z" fill="#CB001C"/>
<path d="M14.4693 0H-7V15.0725H14.4693V0Z" fill="#2A3560"/>
<path d="M0.114378 2.98877L0.29644 3.56078H0.884641L0.408478 3.91829L0.59054 4.476L0.114378 4.13279L-0.361784 4.476L-0.179722 3.91829L-0.655884 3.56078H-0.0676841L0.114378 2.98877Z" fill="white"/>
<path d="M0.114378 5.50562L0.29644 6.07763H0.884641L0.408478 6.42083L0.59054 6.99285L0.114378 6.64964L-0.361784 6.99285L-0.179722 6.42083L-0.655884 6.07763H-0.0676841L0.114378 5.50562Z" fill="white"/>
<path d="M0.114378 8.02246L0.29644 8.59447H0.884641L0.408478 8.93768L0.59054 9.50969L0.114378 9.16649L-0.361784 9.50969L-0.179722 8.93768L-0.655884 8.59447H-0.0676841L0.114378 8.02246Z" fill="white"/>
<path d="M0.114378 10.5393L0.29644 11.1113H0.884641L0.408478 11.4545L0.59054 12.0265L0.114378 11.669L-0.361784 12.0265L-0.179722 11.4545L-0.655884 11.1113H-0.0676841L0.114378 10.5393Z" fill="white"/>
<path d="M1.85107 1.65881L2.03313 2.23083H2.62133L2.14517 2.58833L2.32723 3.16035L1.85107 2.80284L1.37491 3.16035L1.55697 2.58833L1.08081 2.23083H1.66901L1.85107 1.65881Z" fill="white"/>
<path d="M1.85107 4.17566L2.03313 4.74767H2.62133L2.14517 5.10518L2.32723 5.67719L1.85107 5.31968L1.37491 5.67719L1.55697 5.10518L1.08081 4.74767H1.66901L1.85107 4.17566Z" fill="white"/>
<path d="M1.85107 6.6925L2.03313 7.26452H2.62133L2.14517 7.62202L2.32723 8.19404L1.85107 7.83653L1.37491 8.19404L1.55697 7.62202L1.08081 7.26452H1.66901L1.85107 6.6925Z" fill="white"/>
<path d="M1.85107 9.20935L2.03313 9.78136H2.62133L2.14517 10.1389L2.32723 10.6966L1.85107 10.3534L1.37491 10.6966L1.55697 10.1389L1.08081 9.78136H1.66901L1.85107 9.20935Z" fill="white"/>
<path d="M1.85107 11.7262L2.03313 12.2982H2.62133L2.14517 12.6557L2.32723 13.2134L1.85107 12.8702L1.37491 13.2134L1.55697 12.6557L1.08081 12.2982H1.66901L1.85107 11.7262Z" fill="white"/>
<path d="M3.57361 2.98877L3.74166 3.56078H4.32986L3.8537 3.91829L4.03576 4.476L3.57361 4.13279L3.09744 4.476L3.2655 3.91829L2.80334 3.56078H3.37754L3.57361 2.98877Z" fill="white"/>
<path d="M3.57361 5.50562L3.74166 6.07763H4.32986L3.8537 6.42083L4.03576 6.99285L3.57361 6.64964L3.09744 6.99285L3.2655 6.42083L2.80334 6.07763H3.37754L3.57361 5.50562Z" fill="white"/>
<path d="M3.57361 8.02246L3.74166 8.59447H4.32986L3.8537 8.93768L4.03576 9.50969L3.57361 9.16649L3.09744 9.50969L3.2655 8.93768L2.80334 8.59447H3.37754L3.57361 8.02246Z" fill="white"/>
<path d="M3.57361 10.5393L3.74166 11.1113H4.32986L3.8537 11.4545L4.03576 12.0265L3.57361 11.669L3.09744 12.0265L3.2655 11.4545L2.80334 11.1113H3.37754L3.57361 10.5393Z" fill="white"/>
<path d="M5.29617 1.65881L5.47824 2.23083H6.06644L5.59027 2.58833L5.77234 3.16035L5.29617 2.80284L4.83402 3.16035L5.00207 2.58833L4.53992 2.23083H5.11411L5.29617 1.65881Z" fill="white"/>
<path d="M5.29617 4.17566L5.47824 4.74767H6.06644L5.59027 5.10518L5.77234 5.67719L5.29617 5.31968L4.83402 5.67719L5.00207 5.10518L4.53992 4.74767H5.11411L5.29617 4.17566Z" fill="white"/>
<path d="M5.29617 6.6925L5.47824 7.26452H6.06644L5.59027 7.62202L5.77234 8.19404L5.29617 7.83653L4.83402 8.19404L5.00207 7.62202L4.53992 7.26452H5.11411L5.29617 6.6925Z" fill="white"/>
<path d="M5.29617 9.20935L5.47824 9.78136H6.06644L5.59027 10.1389L5.77234 10.6966L5.29617 10.3534L4.83402 10.6966L5.00207 10.1389L4.53992 9.78136H5.11411L5.29617 9.20935Z" fill="white"/>
<path d="M5.29617 11.7262L5.47824 12.2982H6.06644L5.59027 12.6557L5.77234 13.2134L5.29617 12.8702L4.83402 13.2134L5.00207 12.6557L4.53992 12.2982H5.11411L5.29617 11.7262Z" fill="white"/>
<path d="M7.0188 2.98877L7.20086 3.56078H7.78906L7.3129 3.91829L7.49496 4.476L7.0188 4.13279L6.54264 4.476L6.7247 3.91829L6.24854 3.56078H6.83674L7.0188 2.98877Z" fill="white"/>
<path d="M7.0188 5.50562L7.20086 6.07763H7.78906L7.3129 6.42083L7.49496 6.99285L7.0188 6.64964L6.54264 6.99285L6.7247 6.42083L6.24854 6.07763H6.83674L7.0188 5.50562Z" fill="white"/>
<path d="M7.0188 8.02246L7.20086 8.59447H7.78906L7.3129 8.93768L7.49496 9.50969L7.0188 9.16649L6.54264 9.50969L6.7247 8.93768L6.24854 8.59447H6.83674L7.0188 8.02246Z" fill="white"/>
<path d="M7.0188 10.5393L7.20086 11.1113H7.78906L7.3129 11.4545L7.49496 12.0265L7.0188 11.669L6.54264 12.0265L6.7247 11.4545L6.24854 11.1113H6.83674L7.0188 10.5393Z" fill="white"/>
<path d="M8.7554 1.65881L8.93747 2.23083H9.52567L9.0495 2.58833L9.23157 3.16035L8.7554 2.80284L8.29325 3.16035L8.4613 2.58833L7.99915 2.23083H8.57334L8.7554 1.65881Z" fill="white"/>
<path d="M8.7554 4.17566L8.93747 4.74767H9.52567L9.0495 5.10518L9.23157 5.67719L8.7554 5.31968L8.29325 5.67719L8.4613 5.10518L7.99915 4.74767H8.57334L8.7554 4.17566Z" fill="white"/>
<path d="M8.7554 6.6925L8.93747 7.26452H9.52567L9.0495 7.62202L9.23157 8.19404L8.7554 7.83653L8.29325 8.19404L8.4613 7.62202L7.99915 7.26452H8.57334L8.7554 6.6925Z" fill="white"/>
<path d="M8.7554 9.20935L8.93747 9.78136H9.52567L9.0495 10.1389L9.23157 10.6966L8.7554 10.3534L8.29325 10.6966L8.4613 10.1389L7.99915 9.78136H8.57334L8.7554 9.20935Z" fill="white"/>
<path d="M8.7554 11.7262L8.93747 12.2982H9.52567L9.0495 12.6557L9.23157 13.2134L8.7554 12.8702L8.29325 13.2134L8.4613 12.6557L7.99915 12.2982H8.57334L8.7554 11.7262Z" fill="white"/>
<path d="M10.4779 2.98877L10.66 3.56078H11.2482L10.772 3.91829L10.9401 4.476L10.4779 4.13279L10.0017 4.476L10.1838 3.91829L9.70764 3.56078H10.2958L10.4779 2.98877Z" fill="white"/>
<path d="M10.4779 5.50562L10.66 6.07763H11.2482L10.772 6.42083L10.9401 6.99285L10.4779 6.64964L10.0017 6.99285L10.1838 6.42083L9.70764 6.07763H10.2958L10.4779 5.50562Z" fill="white"/>
<path d="M10.4779 8.02246L10.66 8.59447H11.2482L10.772 8.93768L10.9401 9.50969L10.4779 9.16649L10.0017 9.50969L10.1838 8.93768L9.70764 8.59447H10.2958L10.4779 8.02246Z" fill="white"/>
<path d="M10.4779 10.5393L10.66 11.1113H11.2482L10.772 11.4545L10.9401 12.0265L10.4779 11.669L10.0017 12.0265L10.1838 11.4545L9.70764 11.1113H10.2958L10.4779 10.5393Z" fill="white"/>
<path d="M12.2146 1.65881L12.3967 2.23083H12.9849L12.5087 2.58833L12.6908 3.16035L12.2146 2.80284L11.7384 3.16035L11.9205 2.58833L11.4443 2.23083H12.0325L12.2146 1.65881Z" fill="white"/>
<path d="M12.2146 4.17566L12.3967 4.74767H12.9849L12.5087 5.10518L12.6908 5.67719L12.2146 5.31968L11.7384 5.67719L11.9205 5.10518L11.4443 4.74767H12.0325L12.2146 4.17566Z" fill="white"/>
<path d="M12.2146 6.6925L12.3967 7.26452H12.9849L12.5087 7.62202L12.6908 8.19404L12.2146 7.83653L11.7384 8.19404L11.9205 7.62202L11.4443 7.26452H12.0325L12.2146 6.6925Z" fill="white"/>
<path d="M12.2146 9.20935L12.3967 9.78136H12.9849L12.5087 10.1389L12.6908 10.6966L12.2146 10.3534L11.7384 10.6966L11.9205 10.1389L11.4443 9.78136H12.0325L12.2146 9.20935Z" fill="white"/>
<path d="M12.2146 11.7262L12.3967 12.2982H12.9849L12.5087 12.6557L12.6908 13.2134L12.2146 12.8702L11.7384 13.2134L11.9205 12.6557L11.4443 12.2982H12.0325L12.2146 11.7262Z" fill="white"/>
</g>
</g>
</g>
<defs>
<clipPath id="clip0_591_208">
<rect width="24" height="24" rx="12" fill="white"/>
</clipPath>
<clipPath id="clip1_591_208">
<rect width="47" height="28" fill="white" transform="translate(-7)"/>
</clipPath>
</defs>
</svg>
