<svg width="200" height="141" viewBox="0 0 200 141" fill="none" xmlns="http://www.w3.org/2000/svg">
<g clip-path="url(#clip0_1796_28917)">
<path d="M71.74 81.0713C78.594 68.3715 91.6682 58.6201 105.508 59.5595C95.2994 71.2531 89.3464 86.3733 88.7025 102.245C88.4753 108.367 88.8277 115.201 84.9686 119.785C82.5675 122.638 78.8972 124.019 75.2886 124.309C71.6798 124.598 68.0718 123.912 64.5112 123.228L63.6475 123.507C63.3186 108.903 64.8859 93.7711 71.74 81.0713Z" fill="#7A2400"/>
<path d="M105.529 59.8652C95.2944 65.0549 86.5676 73.7221 81.2104 84.2924C80.0522 86.5777 79.0661 89.0021 78.636 91.5655C78.2056 94.13 78.5062 96.5713 79.3378 99.007C80.0981 101.234 81.1205 103.419 81.3536 105.801C81.5994 108.313 80.7221 110.661 79.1429 112.525C77.2107 114.805 74.6159 116.218 72.0328 117.507C69.1648 118.938 66.1643 120.377 64.1329 123.048C63.8868 123.371 63.4245 122.95 63.6702 122.627C67.2045 117.98 73.2542 117.106 77.4494 113.363C79.4069 111.616 80.8766 109.238 80.7838 106.45C80.7027 104.013 79.6502 101.759 78.8619 99.5113C78.0342 97.1513 77.6214 94.7783 77.9183 92.2621C78.2219 89.6882 79.1201 87.2181 80.2177 84.9116C82.6932 79.71 86.081 74.9345 89.9619 70.8064C94.4222 66.0613 99.6202 62.1548 105.331 59.256C105.685 59.0767 105.88 59.6871 105.529 59.8652Z" fill="white"/>
<path d="M82.7796 80.7598C81.2106 79.5514 80.1005 77.7949 79.6475 75.804C79.1945 73.813 79.4282 71.7173 80.3068 69.8911C80.4858 69.5222 81.0384 69.7978 80.8592 70.1672C80.0381 71.8662 79.8206 73.8184 80.246 75.6714C80.6714 77.5245 81.7116 79.1563 83.179 80.2724C83.4976 80.5154 83.0963 81.0014 82.7796 80.7598Z" fill="white"/>
<path d="M78.8111 97.9314C82.7426 97.3263 86.3132 95.1826 88.8109 91.9278C89.0581 91.6051 89.5205 92.0262 89.2736 92.3485C86.6685 95.7304 82.9484 97.9533 78.8559 98.5735C78.4658 98.6324 78.4231 97.9899 78.8111 97.9314Z" fill="white"/>
<path d="M94.7242 66.8536C95.2388 67.4544 95.887 67.9112 96.6106 68.1829C97.3342 68.4546 98.1106 68.5328 98.8699 68.4104C99.2592 68.3464 99.3014 68.9889 98.9147 69.0525C98.0751 69.1836 97.2178 69.0962 96.4177 68.7978C95.6176 68.4995 94.8991 67.9993 94.3248 67.341C94.2658 67.2837 94.2296 67.2049 94.2237 67.1205C94.2179 67.0362 94.2427 66.9527 94.2932 66.8869C94.3464 66.8227 94.4215 66.7831 94.5022 66.7769C94.5829 66.7706 94.6627 66.7982 94.7242 66.8536Z" fill="white"/>
<path d="M133.046 99.6227C132.804 99.67 132.562 99.7172 132.318 99.7694C129.068 100.422 125.874 101.352 122.768 102.55C122.526 102.639 122.282 102.732 122.044 102.828C114.588 105.798 107.72 110.2 101.79 115.811C99.4323 118.045 97.2394 120.466 95.2302 123.051C92.4557 126.622 89.7172 130.726 86.0916 133.054C85.7159 133.301 85.326 133.524 84.9242 133.72L64.0382 124.595C64.0006 124.55 63.9608 124.509 63.923 124.463L63.0732 124.138C63.168 123.998 63.2692 123.853 63.364 123.713C63.4186 123.63 63.4779 123.551 63.5326 123.469C63.5705 123.414 63.6087 123.361 63.64 123.309C63.6525 123.291 63.6653 123.274 63.6759 123.26C63.7072 123.209 63.7414 123.166 63.7707 123.12C64.3341 122.313 64.9039 121.509 65.4801 120.707C65.4821 120.702 65.4821 120.702 65.4887 120.699C69.8936 114.605 74.8202 108.845 80.4202 104.056C80.5888 103.912 80.759 103.763 80.9371 103.623C83.4727 101.479 86.1704 99.557 89.0033 97.8759C90.5573 96.9607 92.1543 96.1289 93.7882 95.3837C98.0134 93.4669 102.498 92.262 107.079 91.8133C116.211 90.9201 125.512 93.113 132.515 99.1555C132.695 99.3102 132.869 99.463 133.046 99.6227Z" fill="#7A2400"/>
<path d="M132.889 99.8814C121.751 97.5346 109.829 98.9206 99.5097 103.963C97.2786 105.053 95.1055 106.364 93.2968 108.138C91.4874 109.912 90.332 112.052 89.6037 114.524C88.9379 116.784 88.5053 119.177 87.3296 121.228C86.0902 123.389 84.0475 124.707 81.7214 125.194C78.8753 125.789 75.9958 125.272 73.1966 124.663C70.0886 123.987 66.8706 123.233 63.7219 124.077C63.3404 124.179 63.212 123.55 63.5929 123.448C69.071 121.979 74.4007 125.118 79.8901 124.789C82.4515 124.636 84.9846 123.669 86.5037 121.384C87.832 119.387 88.2801 116.92 88.9354 114.625C89.6236 112.216 90.6504 110.059 92.3256 108.239C94.0393 106.376 96.1684 104.973 98.3632 103.828C103.313 101.245 108.748 99.5801 114.206 98.7452C120.479 97.785 126.863 97.9623 133.079 99.2694C133.464 99.3505 133.271 99.9619 132.889 99.8814Z" fill="white"/>
<path d="M102.782 102.138C102.22 100.178 102.338 98.0713 103.114 96.1944C103.89 94.3175 105.275 92.7924 107.02 91.8914C107.374 91.7104 107.658 92.2809 107.303 92.4622C105.677 93.298 104.387 94.7188 103.668 96.4681C102.948 98.2174 102.846 100.18 103.379 102.002C103.495 102.398 102.897 102.531 102.782 102.138Z" fill="white"/>
<path d="M89.7981 113.331C93.2831 115.342 97.3593 115.894 101.214 114.879C101.596 114.779 101.724 115.408 101.343 115.509C97.3298 116.557 93.089 115.973 89.4668 113.873C89.1217 113.672 89.4549 113.132 89.7981 113.331Z" fill="white"/>
<path d="M120.268 98.6091C120.335 99.4151 120.592 100.191 121.014 100.867C121.436 101.543 122.012 102.097 122.688 102.481C123.035 102.677 122.702 103.217 122.357 103.022C121.611 102.594 120.977 101.981 120.508 101.235C120.04 100.49 119.752 99.6347 119.67 98.7449C119.656 98.6617 119.672 98.5759 119.715 98.5048C119.759 98.4338 119.827 98.3828 119.904 98.3623C119.984 98.3448 120.066 98.3608 120.134 98.407C120.202 98.4532 120.25 98.5258 120.268 98.6091Z" fill="white"/>
<path d="M93.2596 114.677C90.3345 99.7803 86.6782 94.8135 86.6782 94.8135L85.2814 93.6726L83.6017 92.2983L83.6098 92.1216L83.2114 91.9789L83.1178 91.9023L82.9644 91.7783L82.9398 91.8062L82.8877 91.863L75.2865 89.1415L65.6432 85.6913L61.1777 79.5776C60.4505 78.582 59.5142 77.7772 58.4422 77.2264C57.3702 76.6757 56.1918 76.3939 54.9991 76.4032L40.7378 76.5144C38.8095 76.5294 36.9563 77.3037 35.5425 78.685L26.1688 87.8434L11.5628 95.191L11.5381 95.165L11.3847 95.2804L9.12797 96.4171L9.2211 96.9277L7.8243 97.9893C7.8243 97.9893 4.168 102.611 1.24295 116.472C0.49885 119.999 0.132576 127.565 0.000371524 136.889C-0.00626912 137.36 0.0761714 137.828 0.242897 138.266C0.409623 138.704 0.65731 139.103 0.971554 139.439C1.2858 139.775 1.66033 140.041 2.07338 140.224C2.48642 140.406 2.92974 140.5 3.37755 140.5H81.3914L91.1285 140.5C91.576 140.5 92.019 140.406 92.4318 140.224C92.8445 140.042 93.2189 139.775 93.5331 139.44C93.8473 139.104 94.095 138.706 94.262 138.269C94.429 137.831 94.5118 137.364 94.5057 136.892C94.3766 126.747 94.0104 118.502 93.2596 114.677Z" fill="#393939"/>
<path d="M103.269 13.4915C100.234 13.4915 97.3231 14.7615 95.1769 17.0221C93.0307 19.2827 91.825 22.3488 91.825 25.5458C91.825 28.7428 93.0307 31.8089 95.1769 34.0695C97.3231 36.3301 100.234 37.6001 103.269 37.6001H188.556C191.591 37.6001 194.502 36.3301 196.648 34.0695C198.794 31.8089 200 28.7428 200 25.5458C200 22.3488 198.794 19.2827 196.648 17.0221C194.502 14.7615 191.591 13.4915 188.556 13.4915H103.269Z" fill="white"/>
<path d="M103.269 15.931C100.848 15.931 98.5265 16.944 96.8147 18.7471C95.1028 20.5503 94.1411 22.9958 94.1411 25.5458C94.1411 28.0958 95.1028 30.5414 96.8147 32.3445C98.5265 34.1476 100.848 35.1606 103.269 35.1606H188.556C190.977 35.1606 193.299 34.1476 195.01 32.3445C196.722 30.5414 197.684 28.0958 197.684 25.5458C197.684 22.9958 196.722 20.5503 195.01 18.7471C193.299 16.944 190.977 15.931 188.556 15.931H103.269Z" fill="white"/>
<path d="M50.108 70.76C60.4267 70.76 68.7916 61.949 68.7916 51.0802C68.7916 40.2114 60.4267 31.4005 50.108 31.4005C39.7893 31.4005 31.4243 40.2114 31.4243 51.0802C31.4243 61.949 39.7893 70.76 50.108 70.76Z" fill="#FFDB99"/>
<path d="M45.3284 69.7963C45.2486 69.6112 45.169 69.4255 45.0896 69.2391C45.1202 69.2401 45.1505 69.2447 45.1811 69.2456L45.3284 69.7963Z" fill="#030303"/>
<path d="M30.9048 32.2954C31.8498 31.5014 32.9542 30.7708 34.1624 30.8119C35.3705 30.8529 36.5957 32.0022 36.3454 33.2479C38.5646 29.1092 42.0968 25.9261 46.3221 24.2572C50.5474 22.5884 55.1957 22.5405 59.4512 24.1219C62.454 25.2378 65.3987 27.4702 66.0885 30.7446C66.2656 31.5851 66.3036 32.5067 66.8018 33.1892C67.43 34.0498 68.632 34.2445 69.6217 33.9417C69.6316 33.9387 69.6415 33.9356 69.6513 33.9325C69.8185 33.8724 69.999 33.8665 70.1694 33.9156C70.3398 33.9646 70.4924 34.0664 70.6072 34.2078C70.7221 34.3492 70.7941 34.5236 70.8138 34.7086C70.8336 34.8935 70.8002 35.0804 70.718 35.2451L69.8684 36.9142C70.9394 37.1656 72.0522 37.1407 73.1121 36.8415C73.2882 36.7929 73.4743 36.8028 73.6447 36.8699C73.8153 36.9371 73.9619 37.0581 74.0645 37.2165C74.1671 37.3749 74.2206 37.5628 74.2178 37.7545C74.215 37.9462 74.1559 38.1323 74.0487 38.2873C71.2472 42.3387 66.5667 44.9549 61.7903 44.9242C58.3956 44.9024 54.9659 43.67 51.6621 44.4923C50.3839 44.8104 49.1896 45.4259 48.1668 46.2936C47.1439 47.1613 46.3185 48.2592 45.751 49.5067C45.1836 50.7543 44.8884 52.1198 44.8874 53.5031C44.8863 54.8865 45.1792 56.2525 45.7447 57.501C44.7298 56.3317 42.7678 56.6086 41.7295 57.7551C40.6914 58.9016 40.4226 60.6128 40.5272 62.1934C40.6872 64.6108 41.5864 66.8887 42.5343 69.1057C34.5865 68.8421 27.0692 62.9696 24.5388 55.0269C21.9979 47.0509 24.6609 37.5419 30.9048 32.2954Z" fill="#030303"/>
<path opacity="0.2" d="M18.3896 110.18L23.63 140.212L26.7743 140.5L18.3896 110.18Z" fill="#030303"/>
<path opacity="0.2" d="M76.1129 107.915L70.8726 140.19L67.7283 140.5L76.1129 107.915Z" fill="#030303"/>
<path d="M35.3743 22.1882C34.3696 22.6301 33.3212 22.1458 32.8815 21.0367C32.4351 19.9106 32.852 18.7675 33.8729 18.3185C34.8938 17.8694 35.9236 18.3549 36.3772 19.4992C36.824 20.6262 36.4116 21.732 35.3743 22.1882ZM33.4496 16.102L32.6507 16.4534C32.4512 16.5401 32.228 16.5448 32.0253 16.4665C31.8226 16.3882 31.6552 16.2326 31.5561 16.0305L31.5166 15.9491C30.657 14.3161 30.5586 12.3316 31.2256 10.0535C31.8436 8.01003 32.1002 6.57285 31.5841 5.27084C30.9873 3.76547 29.713 3.29391 28.0879 3.97701C27.4576 4.25423 27.2571 4.24981 26.7611 4.76807C26.6532 4.88218 26.5246 4.97223 26.3829 5.03286C26.2413 5.09349 26.0895 5.12345 25.9366 5.12096C25.7889 5.11913 25.6429 5.08597 25.5076 5.02345C25.3722 4.96094 25.2502 4.87035 25.1488 4.7571C24.9534 4.53884 24.844 4.25063 24.8425 3.95067C24.8411 3.6507 24.9478 3.36134 25.141 3.14102C25.9747 2.22178 26.9803 1.49455 28.0942 1.00521C31.5858 -0.530474 33.3434 1.73674 34.1478 3.76569C34.9345 5.75023 34.492 7.59155 33.7809 9.97624C33.185 11.9578 33.2197 13.4261 33.8966 14.886C33.9455 14.9964 33.9726 15.116 33.9765 15.2377C33.9804 15.3594 33.9609 15.4807 33.9191 15.5943C33.8774 15.7079 33.8143 15.8114 33.7336 15.8986C33.6529 15.9859 33.5563 16.055 33.4496 16.102Z" fill="#FF7F00"/>
<path d="M122.108 31.2949H105.139C105.085 31.2953 105.032 31.2845 104.982 31.263C104.932 31.2415 104.886 31.2099 104.848 31.1699C104.81 31.1299 104.78 31.0823 104.759 31.0299C104.738 30.9774 104.728 30.9212 104.728 30.8644C104.728 30.8076 104.738 30.7514 104.759 30.699C104.78 30.6466 104.81 30.599 104.848 30.559C104.886 30.5189 104.932 30.4873 104.982 30.4658C105.032 30.4444 105.085 30.4335 105.139 30.4339H122.108C122.216 30.4347 122.319 30.4804 122.395 30.561C122.471 30.6417 122.514 30.7507 122.514 30.8644C122.514 30.9781 122.471 31.0872 122.395 31.1678C122.319 31.2485 122.216 31.2942 122.108 31.2949Z" fill="#FF7F00"/>
<path d="M143.634 31.4384H126.665C126.611 31.4388 126.558 31.4279 126.508 31.4065C126.458 31.385 126.412 31.3534 126.374 31.3133C126.336 31.2733 126.306 31.2257 126.285 31.1733C126.264 31.1209 126.253 31.0647 126.253 31.0079C126.253 30.9511 126.264 30.8949 126.285 30.8425C126.306 30.79 126.336 30.7424 126.374 30.7024C126.412 30.6624 126.458 30.6308 126.508 30.6093C126.558 30.5878 126.611 30.577 126.665 30.5774H143.634C143.688 30.577 143.741 30.5878 143.791 30.6093C143.841 30.6308 143.886 30.6624 143.925 30.7024C143.963 30.7424 143.993 30.79 144.014 30.8425C144.035 30.8949 144.045 30.9511 144.045 31.0079C144.045 31.0647 144.035 31.1209 144.014 31.1733C143.993 31.2257 143.963 31.2733 143.925 31.3133C143.886 31.3534 143.841 31.385 143.791 31.4065C143.741 31.4279 143.688 31.4388 143.634 31.4384Z" fill="#FF7F00"/>
<path d="M165.16 31.5819H148.191C148.083 31.5811 147.98 31.5354 147.904 31.4548C147.828 31.3741 147.785 31.2651 147.785 31.1514C147.785 31.0377 147.828 30.9287 147.904 30.848C147.98 30.7674 148.083 30.7217 148.191 30.7209H165.16C165.214 30.7205 165.267 30.7314 165.317 30.7528C165.367 30.7743 165.413 30.8059 165.451 30.8459C165.489 30.886 165.519 30.9336 165.54 30.986C165.561 31.0384 165.571 31.0946 165.571 31.1514C165.571 31.2082 165.561 31.2644 165.54 31.3168C165.519 31.3693 165.489 31.4169 165.451 31.4569C165.413 31.4969 165.367 31.5285 165.317 31.55C165.267 31.5715 165.214 31.5823 165.16 31.5819Z" fill="#FF7F00"/>
<path d="M186.686 31.7254H169.717C169.609 31.7246 169.506 31.6789 169.43 31.5983C169.354 31.5176 169.311 31.4086 169.311 31.2949C169.311 31.1812 169.354 31.0722 169.43 30.9915C169.506 30.9108 169.609 30.8652 169.717 30.8644H186.686C186.794 30.8652 186.897 30.9108 186.973 30.9915C187.049 31.0722 187.092 31.1812 187.092 31.2949C187.092 31.4086 187.049 31.5176 186.973 31.5983C186.897 31.6789 186.794 31.7246 186.686 31.7254Z" fill="#FF7F00"/>
<path d="M113.586 27.3329C115.328 27.3329 116.74 25.8456 116.74 24.0109C116.74 22.1763 115.328 20.689 113.586 20.689C111.844 20.689 110.432 22.1763 110.432 24.0109C110.432 25.8456 111.844 27.3329 113.586 27.3329Z" fill="#FF7F00"/>
<path d="M135.242 27.3329C136.984 27.3329 138.396 25.8456 138.396 24.0109C138.396 22.1763 136.984 20.689 135.242 20.689C133.5 20.689 132.088 22.1763 132.088 24.0109C132.088 25.8456 133.5 27.3329 135.242 27.3329Z" fill="#FF7F00"/>
<path d="M156.898 27.3329C158.64 27.3329 160.052 25.8456 160.052 24.0109C160.052 22.1763 158.64 20.689 156.898 20.689C155.156 20.689 153.744 22.1763 153.744 24.0109C153.744 25.8456 155.156 27.3329 156.898 27.3329Z" fill="#FF7F00"/>
<path d="M178.554 27.3329C180.296 27.3329 181.708 25.8456 181.708 24.0109C181.708 22.1763 180.296 20.689 178.554 20.689C176.812 20.689 175.4 22.1763 175.4 24.0109C175.4 25.8456 176.812 27.3329 178.554 27.3329Z" fill="#FF7F00"/>
</g>
<defs>
<clipPath id="clip0_1796_28917">
<rect width="200" height="140" fill="white" transform="translate(0 0.5)"/>
</clipPath>
</defs>
</svg>
