<svg width="30" height="35" viewBox="0 0 30 35" fill="none" xmlns="http://www.w3.org/2000/svg">
<path d="M15 34.6667C12.9167 34.6667 10.9653 34.2709 9.14583 33.4792C7.32639 32.6875 5.74306 31.6181 4.39583 30.2709C3.04861 28.9236 1.97917 27.3403 1.1875 25.5209C0.395833 23.7014 0 21.75 0 19.6667C0 17.5834 0.395833 15.632 1.1875 13.8125C1.97917 11.9931 3.04861 10.4097 4.39583 9.06252C5.74306 7.7153 7.32639 6.64585 9.14583 5.85419C10.9653 5.06252 12.9167 4.66669 15 4.66669H15.25L13.8333 3.25002C13.5278 2.94446 13.375 2.56252 13.375 2.10419C13.375 1.64585 13.5278 1.25002 13.8333 0.916686C14.1667 0.583353 14.5625 0.409742 15.0208 0.395853C15.4792 0.381964 15.875 0.541686 16.2083 0.87502L20.5 5.16669C20.8056 5.47224 20.9583 5.86113 20.9583 6.33335C20.9583 6.80558 20.8056 7.19446 20.5 7.50002L16.2083 11.7917C15.875 12.125 15.4792 12.2847 15.0208 12.2709C14.5625 12.257 14.1667 12.0834 13.8333 11.75C13.5278 11.4167 13.375 11.0209 13.375 10.5625C13.375 10.1042 13.5278 9.72224 13.8333 9.41669L15.25 8.00002H15C11.75 8.00002 8.99306 9.13196 6.72917 11.3959C4.46528 13.6597 3.33333 16.4167 3.33333 19.6667C3.33333 22.9167 4.46528 25.6736 6.72917 27.9375C8.99306 30.2014 11.75 31.3334 15 31.3334C17.9444 31.3334 20.5139 30.375 22.7083 28.4584C24.9028 26.5417 26.1944 24.125 26.5833 21.2084C26.6389 20.7639 26.8333 20.3959 27.1667 20.1042C27.5 19.8125 27.8889 19.6667 28.3333 19.6667C28.7778 19.6667 29.1667 19.8056 29.5 20.0834C29.8333 20.3611 29.9722 20.7084 29.9167 21.125C29.5278 24.9861 27.9167 28.2084 25.0833 30.7917C22.25 33.375 18.8889 34.6667 15 34.6667Z" fill="#1C1B1F"/>
</svg>
