<svg width="38" height="24" viewBox="0 0 38 24" fill="none" xmlns="http://www.w3.org/2000/svg">
<path d="M4.00008 23.6667C3.08341 23.6667 2.29869 23.3403 1.64591 22.6875C0.993137 22.0348 0.666748 21.25 0.666748 20.3334V3.66671C0.666748 2.75004 0.993137 1.96532 1.64591 1.31254C2.29869 0.659763 3.08341 0.333374 4.00008 0.333374H20.6667C21.5834 0.333374 22.3681 0.659763 23.0209 1.31254C23.6737 1.96532 24.0001 2.75004 24.0001 3.66671V20.3334C24.0001 21.25 23.6737 22.0348 23.0209 22.6875C22.3681 23.3403 21.5834 23.6667 20.6667 23.6667H4.00008ZM29.0001 10.3334C28.5279 10.3334 28.132 10.1737 27.8126 9.85421C27.4931 9.53476 27.3334 9.13893 27.3334 8.66671V2.00004C27.3334 1.52782 27.4931 1.13199 27.8126 0.812541C28.132 0.493096 28.5279 0.333374 29.0001 0.333374H35.6667C36.139 0.333374 36.5348 0.493096 36.8542 0.812541C37.1737 1.13199 37.3334 1.52782 37.3334 2.00004V8.66671C37.3334 9.13893 37.1737 9.53476 36.8542 9.85421C36.5348 10.1737 36.139 10.3334 35.6667 10.3334H29.0001ZM30.6667 7.00004H34.0001V3.66671H30.6667V7.00004ZM4.00008 20.3334H20.6667V3.66671H4.00008V20.3334ZM7.33342 17H17.3334C17.6667 17 17.9167 16.8473 18.0834 16.5417C18.2501 16.2362 18.2223 15.9445 18.0001 15.6667L15.2917 12.0417C15.1251 11.8195 14.9029 11.7084 14.6251 11.7084C14.3473 11.7084 14.1251 11.8195 13.9584 12.0417L11.5001 15.3334L9.87508 13.1667C9.70842 12.9445 9.48619 12.8334 9.20842 12.8334C8.93064 12.8334 8.70842 12.9445 8.54175 13.1667L6.66675 15.6667C6.44453 15.9445 6.41675 16.2362 6.58342 16.5417C6.75008 16.8473 7.00008 17 7.33342 17ZM29.0001 23.6667C28.5279 23.6667 28.132 23.507 27.8126 23.1875C27.4931 22.8681 27.3334 22.4723 27.3334 22V15.3334C27.3334 14.8612 27.4931 14.4653 27.8126 14.1459C28.132 13.8264 28.5279 13.6667 29.0001 13.6667H35.6667C36.139 13.6667 36.5348 13.8264 36.8542 14.1459C37.1737 14.4653 37.3334 14.8612 37.3334 15.3334V22C37.3334 22.4723 37.1737 22.8681 36.8542 23.1875C36.5348 23.507 36.139 23.6667 35.6667 23.6667H29.0001ZM30.6667 20.3334H34.0001V17H30.6667V20.3334Z" fill="#1C1B1F"/>
</svg>
