<svg width="6" height="16" viewBox="0 0 6 16" fill="none" xmlns="http://www.w3.org/2000/svg">
<path d="M3 15.1458C2.88889 15.1458 2.78472 15.1285 2.6875 15.0937C2.59028 15.059 2.5 15 2.41667 14.9167L0.229167 12.7292C0.0763889 12.5764 0 12.3889 0 12.1667C0 11.9444 0.0833333 11.75 0.25 11.5833C0.402778 11.4306 0.597222 11.3542 0.833333 11.3542C1.06944 11.3542 1.26389 11.4306 1.41667 11.5833L2.16667 12.3333V3.66666L1.39583 4.4375C1.24306 4.59028 1.05556 4.66666 0.833333 4.66666C0.611111 4.66666 0.416667 4.58333 0.25 4.41666C0.0972222 4.26389 0.0208333 4.06944 0.0208333 3.83333C0.0208333 3.59722 0.0972222 3.40278 0.25 3.25L2.41667 1.08333C2.5 0.999997 2.59028 0.94097 2.6875 0.906247C2.78472 0.871525 2.88889 0.854164 3 0.854164C3.11111 0.854164 3.21528 0.871525 3.3125 0.906247C3.40972 0.94097 3.5 0.999997 3.58333 1.08333L5.77083 3.27083C5.92361 3.42361 6 3.61111 6 3.83333C6 4.05555 5.91667 4.25 5.75 4.41666C5.59722 4.56944 5.40278 4.64583 5.16667 4.64583C4.93056 4.64583 4.73611 4.56944 4.58333 4.41666L3.83333 3.66666V12.3333L4.60417 11.5625C4.75694 11.4097 4.94445 11.3333 5.16667 11.3333C5.38889 11.3333 5.58333 11.4167 5.75 11.5833C5.90278 11.7361 5.97917 11.9306 5.97917 12.1667C5.97917 12.4028 5.90278 12.5972 5.75 12.75L3.58333 14.9167C3.5 15 3.40972 15.059 3.3125 15.0937C3.21528 15.1285 3.11111 15.1458 3 15.1458Z" fill="#B5B5B5"/>
</svg>
