<svg width="34" height="34" viewBox="0 0 34 34" fill="none" xmlns="http://www.w3.org/2000/svg">
<path d="M16.9166 27C17.4999 27 17.993 26.7987 18.3958 26.3959C18.7985 25.9931 18.9999 25.5 18.9999 24.9167C18.9999 24.3334 18.7985 23.8403 18.3958 23.4375C17.993 23.0348 17.4999 22.8334 16.9166 22.8334C16.3333 22.8334 15.8402 23.0348 15.4374 23.4375C15.0346 23.8403 14.8333 24.3334 14.8333 24.9167C14.8333 25.5 15.0346 25.9931 15.4374 26.3959C15.8402 26.7987 16.3333 27 16.9166 27ZM16.9999 33.6667C14.6944 33.6667 12.5277 33.2292 10.4999 32.3542C8.47214 31.4792 6.70825 30.2917 5.20825 28.7917C3.70825 27.2917 2.52075 25.5278 1.64575 23.5C0.770752 21.4723 0.333252 19.3056 0.333252 17C0.333252 14.6945 0.770752 12.5278 1.64575 10.5C2.52075 8.47226 3.70825 6.70837 5.20825 5.20837C6.70825 3.70837 8.47214 2.52087 10.4999 1.64587C12.5277 0.770874 14.6944 0.333374 16.9999 0.333374C19.3055 0.333374 21.4721 0.770874 23.4999 1.64587C25.5277 2.52087 27.2916 3.70837 28.7916 5.20837C30.2916 6.70837 31.4791 8.47226 32.3541 10.5C33.2291 12.5278 33.6666 14.6945 33.6666 17C33.6666 19.3056 33.2291 21.4723 32.3541 23.5C31.4791 25.5278 30.2916 27.2917 28.7916 28.7917C27.2916 30.2917 25.5277 31.4792 23.4999 32.3542C21.4721 33.2292 19.3055 33.6667 16.9999 33.6667ZM16.9999 30.3334C20.7221 30.3334 23.8749 29.0417 26.4583 26.4584C29.0416 23.875 30.3333 20.7223 30.3333 17C30.3333 13.2778 29.0416 10.125 26.4583 7.54171C23.8749 4.95837 20.7221 3.66671 16.9999 3.66671C13.2777 3.66671 10.1249 4.95837 7.54159 7.54171C4.95825 10.125 3.66659 13.2778 3.66659 17C3.66659 20.7223 4.95825 23.875 7.54159 26.4584C10.1249 29.0417 13.2777 30.3334 16.9999 30.3334ZM17.1666 9.83337C17.861 9.83337 18.4652 10.0556 18.9791 10.5C19.493 10.9445 19.7499 11.5 19.7499 12.1667C19.7499 12.7778 19.5624 13.3195 19.1874 13.7917C18.8124 14.2639 18.3888 14.7084 17.9166 15.125C17.2777 15.6806 16.7152 16.2917 16.2291 16.9584C15.743 17.625 15.4999 18.375 15.4999 19.2084C15.4999 19.5973 15.6458 19.9237 15.9374 20.1875C16.2291 20.4514 16.5694 20.5834 16.9583 20.5834C17.3749 20.5834 17.7291 20.4445 18.0208 20.1667C18.3124 19.8889 18.4999 19.5417 18.5833 19.125C18.6944 18.5417 18.9444 18.0209 19.3333 17.5625C19.7221 17.1042 20.1388 16.6667 20.5833 16.25C21.2221 15.6389 21.7708 14.9723 22.2291 14.25C22.6874 13.5278 22.9166 12.7223 22.9166 11.8334C22.9166 10.4167 22.3402 9.25698 21.1874 8.35421C20.0346 7.45143 18.6944 7.00004 17.1666 7.00004C16.111 7.00004 15.1041 7.22226 14.1458 7.66671C13.1874 8.11115 12.4583 8.79171 11.9583 9.70837C11.7638 10.0417 11.7013 10.3959 11.7708 10.7709C11.8402 11.1459 12.0277 11.4306 12.3333 11.625C12.7221 11.8473 13.1249 11.9167 13.5416 11.8334C13.9583 11.75 14.3055 11.5139 14.5833 11.125C14.8888 10.7084 15.2708 10.3889 15.7291 10.1667C16.1874 9.94448 16.6666 9.83337 17.1666 9.83337Z" fill="#1C1B1F"/>
</svg>
