<svg width="28" height="30" viewBox="0 0 28 30" fill="none" xmlns="http://www.w3.org/2000/svg">
<path d="M4.00008 26.6667H9.00008V16.6667H19.0001V26.6667H24.0001V11.6667L14.0001 4.16671L4.00008 11.6667V26.6667ZM4.00008 30C3.08341 30 2.29869 29.6737 1.64591 29.0209C0.993137 28.3681 0.666748 27.5834 0.666748 26.6667V11.6667C0.666748 11.1389 0.784804 10.6389 1.02091 10.1667C1.25703 9.69448 1.58341 9.3056 2.00008 9.00004L12.0001 1.50004C12.3056 1.27782 12.6251 1.11115 12.9584 1.00004C13.2917 0.88893 13.639 0.833374 14.0001 0.833374C14.3612 0.833374 14.7084 0.88893 15.0417 1.00004C15.3751 1.11115 15.6945 1.27782 16.0001 1.50004L26.0001 9.00004C26.4167 9.3056 26.7431 9.69448 26.9792 10.1667C27.2154 10.6389 27.3334 11.1389 27.3334 11.6667V26.6667C27.3334 27.5834 27.007 28.3681 26.3542 29.0209C25.7015 29.6737 24.9167 30 24.0001 30H15.6667V20H12.3334V30H4.00008Z" fill="#1C1B1F"/>
</svg>
