<svg width="33" height="28" viewBox="0 0 33 28" fill="none" xmlns="http://www.w3.org/2000/svg">
<path d="M1.99992 27.3333C1.5277 27.3333 1.13186 27.1736 0.812419 26.8541C0.492974 26.5347 0.333252 26.1388 0.333252 25.6666V22.6666C0.333252 21.75 0.569363 20.8888 1.04159 20.0833C1.51381 19.2777 2.16659 18.6666 2.99992 18.25C4.41659 17.5277 6.01381 16.9166 7.79158 16.4166C9.56936 15.9166 11.5277 15.6666 13.6666 15.6666C14.4999 15.6666 15.3124 15.7083 16.1041 15.7916C16.8958 15.875 17.6666 16 18.4166 16.1666L15.4999 19.0833C15.1944 19.0277 14.8958 19 14.6041 19H13.6666C11.6944 19 9.92353 19.2361 8.35408 19.7083C6.78464 20.1805 5.49992 20.6944 4.49992 21.25C4.24992 21.3888 4.04853 21.5833 3.89575 21.8333C3.74297 22.0833 3.66659 22.3611 3.66659 22.6666V24H14.0833L17.4166 27.3333H1.99992ZM22.9166 27.2916C22.6944 27.2916 22.486 27.2569 22.2916 27.1875C22.0971 27.118 21.9166 27 21.7499 26.8333L18.3333 23.4166C18.0277 23.1111 17.8749 22.7222 17.8749 22.25C17.8749 21.7777 18.0277 21.3888 18.3333 21.0833C18.6388 20.7777 19.0277 20.625 19.4999 20.625C19.9721 20.625 20.361 20.7777 20.6666 21.0833L22.9166 23.3333L30.1666 16.0833C30.4721 15.7777 30.861 15.625 31.3333 15.625C31.8055 15.625 32.1944 15.7777 32.4999 16.0833C32.8055 16.3888 32.9583 16.7777 32.9583 17.25C32.9583 17.7222 32.8055 18.1111 32.4999 18.4166L24.0833 26.8333C23.9166 27 23.736 27.118 23.5416 27.1875C23.3471 27.2569 23.1388 27.2916 22.9166 27.2916ZM13.6666 14C11.8333 14 10.2638 13.3472 8.95825 12.0416C7.6527 10.7361 6.99992 9.16663 6.99992 7.33329C6.99992 5.49996 7.6527 3.93052 8.95825 2.62496C10.2638 1.3194 11.8333 0.666626 13.6666 0.666626C15.4999 0.666626 17.0694 1.3194 18.3749 2.62496C19.6805 3.93052 20.3333 5.49996 20.3333 7.33329C20.3333 9.16663 19.6805 10.7361 18.3749 12.0416C17.0694 13.3472 15.4999 14 13.6666 14ZM13.6666 10.6666C14.5833 10.6666 15.368 10.3402 16.0208 9.68746C16.6735 9.03468 16.9999 8.24996 16.9999 7.33329C16.9999 6.41663 16.6735 5.6319 16.0208 4.97913C15.368 4.32635 14.5833 3.99996 13.6666 3.99996C12.7499 3.99996 11.9652 4.32635 11.3124 4.97913C10.6596 5.6319 10.3333 6.41663 10.3333 7.33329C10.3333 8.24996 10.6596 9.03468 11.3124 9.68746C11.9652 10.3402 12.7499 10.6666 13.6666 10.6666Z" fill="#1C1B1F"/>
</svg>
