<svg width="30" height="34" viewBox="0 0 30 34" fill="none" xmlns="http://www.w3.org/2000/svg">
<path d="M9.75 19L12.1667 16.5833C12.5 16.25 12.6597 15.8611 12.6458 15.4166C12.6319 14.9722 12.4722 14.5833 12.1667 14.25C11.8333 13.9166 11.4375 13.743 10.9792 13.7291C10.5208 13.7152 10.125 13.875 9.79167 14.2083L6.16667 17.8333C5.83333 18.1666 5.66667 18.5555 5.66667 19C5.66667 19.4444 5.83333 19.8333 6.16667 20.1666L9.79167 23.7916C10.125 24.125 10.5208 24.2847 10.9792 24.2708C11.4375 24.2569 11.8333 24.0833 12.1667 23.75C12.4722 23.4166 12.6319 23.0277 12.6458 22.5833C12.6597 22.1388 12.5 21.75 12.1667 21.4166L9.75 19ZM20.25 19L17.8333 21.4166C17.5 21.75 17.3403 22.1388 17.3542 22.5833C17.3681 23.0277 17.5278 23.4166 17.8333 23.75C18.1667 24.0833 18.5625 24.2569 19.0208 24.2708C19.4792 24.2847 19.875 24.125 20.2083 23.7916L23.8333 20.1666C24.1667 19.8333 24.3333 19.4444 24.3333 19C24.3333 18.5555 24.1667 18.1666 23.8333 17.8333L20.2083 14.2083C19.875 13.875 19.4792 13.7152 19.0208 13.7291C18.5625 13.743 18.1667 13.9166 17.8333 14.25C17.5278 14.5833 17.3681 14.9722 17.3542 15.4166C17.3403 15.8611 17.5 16.25 17.8333 16.5833L20.25 19ZM3.33333 34C2.41667 34 1.63194 33.6736 0.979167 33.0208C0.326389 32.368 0 31.5833 0 30.6666V7.33329C0 6.41663 0.326389 5.6319 0.979167 4.97913C1.63194 4.32635 2.41667 3.99996 3.33333 3.99996H10.3333C10.6944 2.99996 11.2986 2.1944 12.1458 1.58329C12.9931 0.972182 13.9444 0.666626 15 0.666626C16.0556 0.666626 17.0069 0.972182 17.8542 1.58329C18.7014 2.1944 19.3056 2.99996 19.6667 3.99996H26.6667C27.5833 3.99996 28.3681 4.32635 29.0208 4.97913C29.6736 5.6319 30 6.41663 30 7.33329V30.6666C30 31.5833 29.6736 32.368 29.0208 33.0208C28.3681 33.6736 27.5833 34 26.6667 34H3.33333ZM3.33333 30.6666H26.6667V7.33329H3.33333V30.6666ZM15 6.08329C15.3611 6.08329 15.6597 5.96524 15.8958 5.72913C16.1319 5.49301 16.25 5.1944 16.25 4.83329C16.25 4.47218 16.1319 4.17357 15.8958 3.93746C15.6597 3.70135 15.3611 3.58329 15 3.58329C14.6389 3.58329 14.3403 3.70135 14.1042 3.93746C13.8681 4.17357 13.75 4.47218 13.75 4.83329C13.75 5.1944 13.8681 5.49301 14.1042 5.72913C14.3403 5.96524 14.6389 6.08329 15 6.08329Z" fill="#1C1B1F"/>
</svg>
