<svg width="29" height="33" viewBox="0 0 29 33" fill="none" xmlns="http://www.w3.org/2000/svg">
<path fill-rule="evenodd" clip-rule="evenodd" d="M14.4175 11.1667C12.8092 11.1667 11.5009 12.4751 11.5009 14.0851C11.5009 15.6934 12.8092 17.0001 14.4175 17.0001C16.0259 17.0001 17.3342 15.6934 17.3342 14.0851C17.3342 12.4751 16.0259 11.1667 14.4175 11.1667ZM14.4175 19.5001C11.4309 19.5001 9.00085 17.0717 9.00085 14.0851C9.00085 11.0967 11.4309 8.66675 14.4175 8.66675C17.4042 8.66675 19.8342 11.0967 19.8342 14.0851C19.8342 17.0717 17.4042 19.5001 14.4175 19.5001Z" fill="black"/>
<mask id="mask0_172_640" style="mask-type:luminance" maskUnits="userSpaceOnUse" x="0" y="0" width="29" height="33">
<path fill-rule="evenodd" clip-rule="evenodd" d="M0.666687 0.333374H28.1659V32.8334H0.666687V0.333374Z" fill="white"/>
</mask>
<g mask="url(#mask0_172_640)">
<path fill-rule="evenodd" clip-rule="evenodd" d="M14.4158 2.83337C8.2125 2.83337 3.16583 7.92837 3.16583 14.1884C3.16583 22.1534 12.5392 29.9134 14.4158 30.3267C16.2925 29.9117 25.6658 22.1517 25.6658 14.1884C25.6658 7.92837 20.6192 2.83337 14.4158 2.83337ZM14.4158 32.8334C11.4258 32.8334 0.665833 23.58 0.665833 14.1884C0.665833 6.54837 6.83417 0.333374 14.4158 0.333374C21.9975 0.333374 28.1658 6.54837 28.1658 14.1884C28.1658 23.58 17.4058 32.8334 14.4158 32.8334Z" fill="black"/>
</g>
</svg>
