<svg width="30" height="30" viewBox="0 0 30 30" fill="none" xmlns="http://www.w3.org/2000/svg">
<path d="M10.5417 22.125C10.2361 21.7639 10.0833 21.3542 10.0833 20.8958C10.0833 20.4375 10.2361 20.0556 10.5417 19.75L13.625 16.6667H1.66667C1.19444 16.6667 0.798611 16.5069 0.479167 16.1875C0.159722 15.8681 0 15.4722 0 15C0 14.5278 0.159722 14.1319 0.479167 13.8125C0.798611 13.4931 1.19444 13.3333 1.66667 13.3333H13.625L10.5417 10.25C10.2083 9.91667 10.0417 9.52083 10.0417 9.0625C10.0417 8.60417 10.2083 8.20833 10.5417 7.875C10.8472 7.54167 11.2292 7.375 11.6875 7.375C12.1458 7.375 12.5278 7.52778 12.8333 7.83333L18.8333 13.8333C19 14 19.1181 14.1806 19.1875 14.375C19.2569 14.5694 19.2917 14.7778 19.2917 15C19.2917 15.2222 19.2569 15.4306 19.1875 15.625C19.1181 15.8194 19 16 18.8333 16.1667L12.8333 22.1667C12.5 22.5 12.1111 22.6528 11.6667 22.625C11.2222 22.5972 10.8472 22.4306 10.5417 22.125ZM16.6667 30C16.1944 30 15.7986 29.8403 15.4792 29.5208C15.1597 29.2014 15 28.8056 15 28.3333C15 27.8611 15.1597 27.4653 15.4792 27.1458C15.7986 26.8264 16.1944 26.6667 16.6667 26.6667H26.6667V3.33333H16.6667C16.1944 3.33333 15.7986 3.17361 15.4792 2.85417C15.1597 2.53472 15 2.13889 15 1.66667C15 1.19444 15.1597 0.798611 15.4792 0.479167C15.7986 0.159722 16.1944 0 16.6667 0H26.6667C27.5833 0 28.3681 0.326389 29.0208 0.979167C29.6736 1.63194 30 2.41667 30 3.33333V26.6667C30 27.5833 29.6736 28.3681 29.0208 29.0208C28.3681 29.6736 27.5833 30 26.6667 30H16.6667Z" fill="#1C1B1F"/>
</svg>
