<svg width="30" height="30" viewBox="0 0 30 30" fill="none" xmlns="http://www.w3.org/2000/svg">
<path d="M20.5417 22.125C20.2361 21.7639 20.0833 21.3542 20.0833 20.8958C20.0833 20.4375 20.2361 20.0556 20.5417 19.75L23.625 16.6667H11.6667C11.1944 16.6667 10.7986 16.5069 10.4792 16.1875C10.1597 15.8681 10 15.4722 10 15C10 14.5278 10.1597 14.1319 10.4792 13.8125C10.7986 13.4931 11.1944 13.3333 11.6667 13.3333H23.625L20.5417 10.25C20.2083 9.91667 20.0417 9.52083 20.0417 9.0625C20.0417 8.60417 20.2083 8.20833 20.5417 7.875C20.8472 7.54167 21.2292 7.375 21.6875 7.375C22.1458 7.375 22.5278 7.52778 22.8333 7.83333L28.8333 13.8333C29 14 29.1181 14.1806 29.1875 14.375C29.2569 14.5694 29.2917 14.7778 29.2917 15C29.2917 15.2222 29.2569 15.4306 29.1875 15.625C29.1181 15.8194 29 16 28.8333 16.1667L22.8333 22.1667C22.4722 22.5278 22.0764 22.6875 21.6458 22.6458C21.2153 22.6042 20.8472 22.4306 20.5417 22.125ZM3.33333 30C2.41667 30 1.63194 29.6736 0.979167 29.0208C0.326389 28.3681 0 27.5833 0 26.6667V3.33333C0 2.41667 0.326389 1.63194 0.979167 0.979167C1.63194 0.326389 2.41667 0 3.33333 0H13.3333C13.8056 0 14.2014 0.159722 14.5208 0.479167C14.8403 0.798611 15 1.19444 15 1.66667C15 2.13889 14.8403 2.53472 14.5208 2.85417C14.2014 3.17361 13.8056 3.33333 13.3333 3.33333H3.33333V26.6667H13.3333C13.8056 26.6667 14.2014 26.8264 14.5208 27.1458C14.8403 27.4653 15 27.8611 15 28.3333C15 28.8056 14.8403 29.2014 14.5208 29.5208C14.2014 29.8403 13.8056 30 13.3333 30H3.33333Z" fill="#1C1B1F"/>
</svg>
