<svg width="34" height="29" viewBox="0 0 34 29" fill="none" xmlns="http://www.w3.org/2000/svg">
<path d="M13.6666 14C11.8333 14 10.2638 13.3472 8.95825 12.0416C7.6527 10.7361 6.99992 9.16663 6.99992 7.33329C6.99992 5.49996 7.6527 3.93052 8.95825 2.62496C10.2638 1.3194 11.8333 0.666626 13.6666 0.666626C15.4999 0.666626 17.0694 1.3194 18.3749 2.62496C19.6805 3.93052 20.3333 5.49996 20.3333 7.33329C20.3333 9.16663 19.6805 10.7361 18.3749 12.0416C17.0694 13.3472 15.4999 14 13.6666 14ZM1.99992 27.3333C1.5277 27.3333 1.13186 27.1736 0.812419 26.8541C0.492974 26.5347 0.333252 26.1388 0.333252 25.6666V22.6666C0.333252 21.75 0.569363 20.8888 1.04159 20.0833C1.51381 19.2777 2.16659 18.6666 2.99992 18.25C4.41659 17.5277 6.01381 16.9166 7.79159 16.4166C9.56936 15.9166 11.5277 15.6666 13.6666 15.6666H14.2499C14.4166 15.6666 14.5833 15.6944 14.7499 15.75C14.5277 16.25 14.3402 16.7708 14.1874 17.3125C14.0346 17.8541 13.9166 18.4166 13.8333 19H13.6666C11.6944 19 9.92353 19.25 8.35409 19.75C6.78464 20.25 5.49992 20.75 4.49992 21.25C4.24992 21.3888 4.04853 21.5833 3.89575 21.8333C3.74297 22.0833 3.66659 22.3611 3.66659 22.6666V24H14.1666C14.3333 24.5833 14.5555 25.1597 14.8333 25.7291C15.111 26.2986 15.4166 26.8333 15.7499 27.3333H1.99992ZM13.6666 10.6666C14.5833 10.6666 15.368 10.3402 16.0208 9.68746C16.6735 9.03468 16.9999 8.24996 16.9999 7.33329C16.9999 6.41663 16.6735 5.6319 16.0208 4.97913C15.368 4.32635 14.5833 3.99996 13.6666 3.99996C12.7499 3.99996 11.9652 4.32635 11.3124 4.97913C10.6596 5.6319 10.3333 6.41663 10.3333 7.33329C10.3333 8.24996 10.6596 9.03468 11.3124 9.68746C11.9652 10.3402 12.7499 10.6666 13.6666 10.6666ZM25.3333 24C26.2499 24 27.0346 23.6736 27.6874 23.0208C28.3402 22.368 28.6666 21.5833 28.6666 20.6666C28.6666 19.75 28.3402 18.9652 27.6874 18.3125C27.0346 17.6597 26.2499 17.3333 25.3333 17.3333C24.4166 17.3333 23.6319 17.6597 22.9791 18.3125C22.3263 18.9652 21.9999 19.75 21.9999 20.6666C21.9999 21.5833 22.3263 22.368 22.9791 23.0208C23.6319 23.6736 24.4166 24 25.3333 24ZM23.1666 26.5C22.8333 26.3611 22.5208 26.2152 22.2291 26.0625C21.9374 25.9097 21.6388 25.7222 21.3333 25.5L19.5416 26.0416C19.3471 26.0972 19.1666 26.0902 18.9999 26.0208C18.8333 25.9514 18.6944 25.8333 18.5833 25.6666L17.5833 24C17.4721 23.8333 17.4374 23.6527 17.4791 23.4583C17.5208 23.2638 17.6249 23.0972 17.7916 22.9583L19.1666 21.75C19.111 21.3611 19.0833 21 19.0833 20.6666C19.0833 20.3333 19.111 19.9722 19.1666 19.5833L17.7916 18.375C17.6249 18.2361 17.5208 18.0694 17.4791 17.875C17.4374 17.6805 17.4721 17.5 17.5833 17.3333L18.5833 15.6666C18.6944 15.5 18.8333 15.3819 18.9999 15.3125C19.1666 15.243 19.3471 15.2361 19.5416 15.2916L21.3333 15.8333C21.6388 15.6111 21.9374 15.4236 22.2291 15.2708C22.5208 15.118 22.8333 14.9722 23.1666 14.8333L23.5416 13C23.5971 12.8055 23.6944 12.6458 23.8333 12.5208C23.9721 12.3958 24.1388 12.3333 24.3333 12.3333H26.3333C26.5277 12.3333 26.6944 12.3958 26.8333 12.5208C26.9721 12.6458 27.0694 12.8055 27.1249 13L27.4999 14.8333C27.8333 14.9722 28.1458 15.125 28.4374 15.2916C28.7291 15.4583 29.0277 15.6666 29.3333 15.9166L31.0833 15.2916C31.2777 15.2083 31.4652 15.2083 31.6458 15.2916C31.8263 15.375 31.9721 15.5 32.0833 15.6666L33.0833 17.4166C33.1944 17.5833 33.236 17.7638 33.2083 17.9583C33.1805 18.1527 33.0833 18.3194 32.9166 18.4583L31.4999 19.6666C31.5555 20 31.5833 20.3472 31.5833 20.7083C31.5833 21.0694 31.5555 21.4166 31.4999 21.75L32.8749 22.9583C33.0416 23.0972 33.1458 23.2638 33.1874 23.4583C33.2291 23.6527 33.1944 23.8333 33.0833 24L32.0833 25.6666C31.9721 25.8333 31.8333 25.9514 31.6666 26.0208C31.4999 26.0902 31.3194 26.0972 31.1249 26.0416L29.3333 25.5C29.0277 25.7222 28.7291 25.9097 28.4374 26.0625C28.1458 26.2152 27.8333 26.3611 27.4999 26.5L27.1249 28.3333C27.0694 28.5277 26.9721 28.6875 26.8333 28.8125C26.6944 28.9375 26.5277 29 26.3333 29H24.3333C24.1388 29 23.9721 28.9375 23.8333 28.8125C23.6944 28.6875 23.5971 28.5277 23.5416 28.3333L23.1666 26.5Z" fill="#1C1B1F"/>
</svg>
