<svg width="60" height="54" viewBox="0 0 60 54" fill="none" xmlns="http://www.w3.org/2000/svg">
<path d="M45.7051 0.320003C39.2251 -0.659997 32.2251 2.78 29.9751 8.89C28.8451 5.96 26.5051 3.53 23.7751 2C19.2051 -0.549997 14.7151 -0.589997 9.82505 1.47C6.04505 3.06 3.08505 7.25 1.50505 10.89C-0.474946 15.49 0.525054 21.12 1.75505 25.78C1.98505 26.65 3.32505 26.28 3.09505 25.41C1.04505 17.63 1.38505 9.04 8.47505 3.84C11.8051 1.4 17.5351 0.530003 21.2351 2.23C25.1151 4 28.9751 7.47 29.2751 12C29.3351 12.9 30.5951 12.89 30.6651 12C31.3951 3.69 41.5751 -0.739997 48.7151 2.64C56.2951 6.23 59.4951 16.41 56.9951 24.12C55.4251 28.99 49.1751 27.78 45.0651 27.8C42.7351 27.81 40.3951 27.84 38.0651 27.82C37.7551 27.82 36.4551 27.82 36.4951 27.84C36.1251 27.61 35.1851 24.83 34.9651 24.26C34.6751 23.5 33.6951 23.66 33.5951 24.45C33.1351 28.06 32.1951 31.57 31.4451 35.13C30.7251 29.15 30.4251 23.13 29.4251 17.19C29.3051 16.5 28.2251 16.55 28.0851 17.19C27.1251 21.34 26.1651 25.49 25.2051 29.64C24.7751 27.71 24.3451 25.79 23.9151 23.86C23.7751 23.22 22.6751 23.17 22.5751 23.86C22.4251 24.82 22.1851 27.42 21.5351 27.87C21.0951 28.18 19.4251 27.86 18.8551 27.85C16.3251 27.83 13.7951 27.82 11.2651 27.8C8.50505 27.78 4.15505 27.23 4.28505 31.38C4.34505 33.55 6.36505 35.75 7.64505 37.36C9.50505 39.69 11.7251 41.7 14.0751 43.53C18.8951 47.3 24.2651 50.22 29.4751 53.4C29.6951 53.53 29.9651 53.52 30.1751 53.4C39.6051 48.25 47.2051 41.58 53.9051 33.19C54.4551 32.5 53.4751 31.5 52.9151 32.2C48.4851 37.75 43.5951 43.01 37.7351 47.07C35.8651 48.36 31.7751 52.08 29.4551 51.76C28.3651 51.61 26.8551 50.21 25.9051 49.65C24.4451 48.78 22.9851 47.91 21.5451 47.01C18.3751 45.02 15.2651 42.9 12.4751 40.39C10.8051 38.89 2.43505 30.88 7.94505 29.18C10.0251 28.54 13.4251 29.22 15.6051 29.23C17.7651 29.24 19.9351 29.26 22.0951 29.27C22.4051 29.27 22.6751 29.05 22.7651 28.76C22.9351 28.23 23.0851 27.71 23.2351 27.18C23.6651 29.11 24.0951 31.04 24.5251 32.97C24.6751 33.64 25.7151 33.63 25.8651 32.97C26.7751 29.03 27.6851 25.08 28.5951 21.14C29.3851 27.33 29.6651 33.58 30.6951 39.75C30.8351 40.6 31.9751 40.27 32.0651 39.56C32.5951 35.36 33.7851 31.29 34.5551 27.13C35.0251 28.17 35.6751 29 36.9551 29.2C40.1151 29.71 43.8051 29.2 46.9951 29.18C49.9251 29.16 53.8251 29.81 56.2751 27.83C58.3951 26.11 58.8251 23.07 59.0451 20.53C59.7951 11.92 55.0751 1.73 45.7051 0.310003V0.320003Z" fill="#FF7F00"/>
</svg>
