<svg width="16" height="16" viewBox="0 0 16 16" fill="none" xmlns="http://www.w3.org/2000/svg">
<path d="M8 8C8.69444 8 9.28472 7.75694 9.77083 7.27083C10.2569 6.78472 10.5 6.19444 10.5 5.5C10.5 4.80556 10.2569 4.21528 9.77083 3.72917C9.28472 3.24306 8.69444 3 8 3C7.30556 3 6.71528 3.24306 6.22917 3.72917C5.74306 4.21528 5.5 4.80556 5.5 5.5C5.5 6.19444 5.74306 6.78472 6.22917 7.27083C6.71528 7.75694 7.30556 8 8 8ZM6.75 5.91667C6.63889 5.91667 6.54167 5.875 6.45833 5.79167C6.375 5.70833 6.33333 5.61111 6.33333 5.5C6.33333 5.38889 6.375 5.29167 6.45833 5.20833C6.54167 5.125 6.63889 5.08333 6.75 5.08333C6.86111 5.08333 6.95833 5.125 7.04167 5.20833C7.125 5.29167 7.16667 5.38889 7.16667 5.5C7.16667 5.61111 7.125 5.70833 7.04167 5.79167C6.95833 5.875 6.86111 5.91667 6.75 5.91667ZM8 5.91667C7.88889 5.91667 7.79167 5.875 7.70833 5.79167C7.625 5.70833 7.58333 5.61111 7.58333 5.5C7.58333 5.38889 7.625 5.29167 7.70833 5.20833C7.79167 5.125 7.88889 5.08333 8 5.08333C8.11111 5.08333 8.20833 5.125 8.29167 5.20833C8.375 5.29167 8.41667 5.38889 8.41667 5.5C8.41667 5.61111 8.375 5.70833 8.29167 5.79167C8.20833 5.875 8.11111 5.91667 8 5.91667ZM9.25 5.91667C9.13889 5.91667 9.04167 5.875 8.95833 5.79167C8.875 5.70833 8.83333 5.61111 8.83333 5.5C8.83333 5.38889 8.875 5.29167 8.95833 5.20833C9.04167 5.125 9.13889 5.08333 9.25 5.08333C9.36111 5.08333 9.45833 5.125 9.54167 5.20833C9.625 5.29167 9.66667 5.38889 9.66667 5.5C9.66667 5.61111 9.625 5.70833 9.54167 5.79167C9.45833 5.875 9.36111 5.91667 9.25 5.91667ZM2.16667 15.5C1.70833 15.5 1.31597 15.3368 0.989583 15.0104C0.663194 14.684 0.5 14.2917 0.5 13.8333V2.16667C0.5 1.70833 0.663194 1.31597 0.989583 0.989583C1.31597 0.663194 1.70833 0.5 2.16667 0.5H13.8333C14.2917 0.5 14.684 0.663194 15.0104 0.989583C15.3368 1.31597 15.5 1.70833 15.5 2.16667V13.8333C15.5 14.2917 15.3368 14.684 15.0104 15.0104C14.684 15.3368 14.2917 15.5 13.8333 15.5H2.16667ZM2.16667 13.8333H13.8333V2.16667H2.16667V13.8333Z" fill="#B5B5B5"/>
</svg>
