<svg width="28" height="8" viewBox="0 0 28 8" fill="none" xmlns="http://www.w3.org/2000/svg">
<path d="M3.99996 7.33329C3.08329 7.33329 2.29857 7.0069 1.64579 6.35413C0.993015 5.70135 0.666626 4.91663 0.666626 3.99996C0.666626 3.08329 0.993015 2.29857 1.64579 1.64579C2.29857 0.993015 3.08329 0.666626 3.99996 0.666626C4.91663 0.666626 5.70135 0.993015 6.35413 1.64579C7.0069 2.29857 7.33329 3.08329 7.33329 3.99996C7.33329 4.91663 7.0069 5.70135 6.35413 6.35413C5.70135 7.0069 4.91663 7.33329 3.99996 7.33329ZM14 7.33329C13.0833 7.33329 12.2986 7.0069 11.6458 6.35413C10.993 5.70135 10.6666 4.91663 10.6666 3.99996C10.6666 3.08329 10.993 2.29857 11.6458 1.64579C12.2986 0.993015 13.0833 0.666626 14 0.666626C14.9166 0.666626 15.7013 0.993015 16.3541 1.64579C17.0069 2.29857 17.3333 3.08329 17.3333 3.99996C17.3333 4.91663 17.0069 5.70135 16.3541 6.35413C15.7013 7.0069 14.9166 7.33329 14 7.33329ZM24 7.33329C23.0833 7.33329 22.2986 7.0069 21.6458 6.35413C20.993 5.70135 20.6666 4.91663 20.6666 3.99996C20.6666 3.08329 20.993 2.29857 21.6458 1.64579C22.2986 0.993015 23.0833 0.666626 24 0.666626C24.9166 0.666626 25.7013 0.993015 26.3541 1.64579C27.0069 2.29857 27.3333 3.08329 27.3333 3.99996C27.3333 4.91663 27.0069 5.70135 26.3541 6.35413C25.7013 7.0069 24.9166 7.33329 24 7.33329Z" fill="#1C1B1F"/>
</svg>
