<svg width="34" height="34" viewBox="0 0 34 34" fill="none" xmlns="http://www.w3.org/2000/svg">
<path d="M1.99998 13.6667C1.52775 13.6667 1.13192 13.5 0.812476 13.1667C0.493031 12.8334 0.361087 12.4445 0.416643 12C0.611087 10.1667 1.09025 8.40976 1.85414 6.72921C2.61803 5.04865 3.62498 3.54171 4.87498 2.20837C5.18053 1.90282 5.56942 1.75004 6.04164 1.75004C6.51387 1.75004 6.91664 1.91671 7.24998 2.25004C7.55553 2.5556 7.70831 2.9306 7.70831 3.37504C7.70831 3.81949 7.55553 4.22226 7.24998 4.58337C6.27775 5.63893 5.49303 6.78476 4.89581 8.02087C4.29859 9.25699 3.91664 10.5834 3.74998 12C3.69442 12.4723 3.50692 12.8681 3.18748 13.1875C2.86803 13.507 2.4722 13.6667 1.99998 13.6667ZM32 13.6667C31.5555 13.6667 31.1666 13.507 30.8333 13.1875C30.5 12.8681 30.3055 12.4723 30.25 12C30.0833 10.5834 29.7014 9.25699 29.1041 8.02087C28.5069 6.78476 27.7222 5.63893 26.75 4.58337C26.4444 4.22226 26.2916 3.81949 26.2916 3.37504C26.2916 2.9306 26.4583 2.5556 26.7916 2.25004C27.125 1.91671 27.5208 1.75004 27.9791 1.75004C28.4375 1.75004 28.8194 1.90282 29.125 2.20837C30.375 3.54171 31.3819 5.04865 32.1458 6.72921C32.9097 8.40976 33.3889 10.1667 33.5833 12C33.6389 12.4445 33.5069 12.8334 33.1875 13.1667C32.868 13.5 32.4722 13.6667 32 13.6667ZM5.33331 28.6667C4.86109 28.6667 4.46525 28.507 4.14581 28.1875C3.82637 27.8681 3.66664 27.4723 3.66664 27C3.66664 26.5278 3.82637 26.132 4.14581 25.8125C4.46525 25.4931 4.86109 25.3334 5.33331 25.3334H6.99998V13.6667C6.99998 11.3612 7.69442 9.31254 9.08331 7.52087C10.4722 5.72921 12.2778 4.5556 14.5 4.00004V2.83337C14.5 2.13893 14.743 1.54865 15.2291 1.06254C15.7153 0.57643 16.3055 0.333374 17 0.333374C17.6944 0.333374 18.2847 0.57643 18.7708 1.06254C19.2569 1.54865 19.5 2.13893 19.5 2.83337V4.00004C21.7222 4.5556 23.5278 5.72921 24.9166 7.52087C26.3055 9.31254 27 11.3612 27 13.6667V25.3334H28.6666C29.1389 25.3334 29.5347 25.4931 29.8541 25.8125C30.1736 26.132 30.3333 26.5278 30.3333 27C30.3333 27.4723 30.1736 27.8681 29.8541 28.1875C29.5347 28.507 29.1389 28.6667 28.6666 28.6667H5.33331ZM17 33.6667C16.0833 33.6667 15.2986 33.3403 14.6458 32.6875C13.993 32.0348 13.6666 31.25 13.6666 30.3334H20.3333C20.3333 31.25 20.0069 32.0348 19.3541 32.6875C18.7014 33.3403 17.9166 33.6667 17 33.6667ZM10.3333 25.3334H23.6666V13.6667C23.6666 11.8334 23.0139 10.2639 21.7083 8.95837C20.4028 7.65282 18.8333 7.00004 17 7.00004C15.1666 7.00004 13.5972 7.65282 12.2916 8.95837C10.9861 10.2639 10.3333 11.8334 10.3333 13.6667V25.3334Z" fill="#1C1B1F"/>
</svg>
