<svg width="6" height="6" viewBox="0 0 6 6" fill="none" xmlns="http://www.w3.org/2000/svg">
<path d="M0.306484 2.92C0.306484 2.41333 0.426484 1.95333 0.666484 1.54C0.906485 1.11333 1.22648 0.78 1.62648 0.54C2.03982 0.3 2.49315 0.18 2.98648 0.18C3.50648 0.18 3.96648 0.306666 4.36648 0.56C4.77982 0.8 5.10648 1.12667 5.34648 1.54C5.59982 1.95333 5.72648 2.41333 5.72648 2.92C5.72648 3.41333 5.59982 3.86667 5.34648 4.28C5.10648 4.69333 4.77982 5.02 4.36648 5.26C3.95315 5.5 3.49315 5.62 2.98648 5.62C2.49315 5.62 2.03982 5.5 1.62648 5.26C1.22648 5.02 0.906485 4.69333 0.666484 4.28C0.426484 3.86667 0.306484 3.41333 0.306484 2.92Z" fill="#030303"/>
</svg>
