<svg width="30" height="31" viewBox="0 0 30 31" fill="none" xmlns="http://www.w3.org/2000/svg">
<rect y="0.5" width="30" height="30" rx="4" fill="#722900"/>
<path d="M3.9358 0.5C1.75544 0.5 0 2.25544 0 4.4358V26.5642C0 28.7446 1.75544 30.5 3.9358 30.5H26.0642C28.2446 30.5 30 28.7446 30 26.5642V4.4358C30 2.25544 28.2446 0.5 26.0642 0.5H3.9358ZM21.5725 5.75002C21.755 5.74874 21.9372 5.81731 22.076 5.95638L24.544 8.42431C24.8217 8.70202 24.8185 9.15204 24.5369 9.43357L22.3737 11.597L21.8722 11.0958L19.4045 8.6279L18.9031 8.12647L21.0663 5.96322C21.2071 5.82243 21.3901 5.75131 21.5725 5.75002ZM18.2347 8.79483L21.7053 12.2654L9.9055 24.0647C8.48864 24.4549 7.26526 24.7984 5.7235 25.2259C5.37849 25.322 5.17792 25.1214 5.27392 24.7764C5.68407 23.3012 6.00188 22.1642 6.43514 20.5944L18.2347 8.79483ZM17.8887 10.2878L7.72905 20.4474L8.29348 21.012L18.4531 10.8524L17.8887 10.2878ZM7.0768 21.2137L6.55201 23.1725L7.3029 23.9234L9.26169 23.3984L7.0768 21.2137Z" fill="white"/>
</svg>
