<svg width="28" height="28" viewBox="0 0 28 28" fill="none" xmlns="http://www.w3.org/2000/svg">
<path d="M14.0001 14C12.1667 14 10.5973 13.3472 9.29175 12.0416C7.98619 10.7361 7.33341 9.16663 7.33341 7.33329C7.33341 5.49996 7.98619 3.93052 9.29175 2.62496C10.5973 1.3194 12.1667 0.666626 14.0001 0.666626C15.8334 0.666626 17.4029 1.3194 18.7084 2.62496C20.014 3.93052 20.6667 5.49996 20.6667 7.33329C20.6667 9.16663 20.014 10.7361 18.7084 12.0416C17.4029 13.3472 15.8334 14 14.0001 14ZM24.0001 27.3333H4.00008C3.08341 27.3333 2.29869 27.0069 1.64591 26.3541C0.993137 25.7013 0.666748 24.9166 0.666748 24V22.6666C0.666748 21.7222 0.909804 20.8541 1.39591 20.0625C1.88203 19.2708 2.52786 18.6666 3.33341 18.25C5.05564 17.3888 6.80564 16.743 8.58341 16.3125C10.3612 15.8819 12.1667 15.6666 14.0001 15.6666C15.8334 15.6666 17.639 15.8819 19.4167 16.3125C21.1945 16.743 22.9445 17.3888 24.6667 18.25C25.4723 18.6666 26.1181 19.2708 26.6042 20.0625C27.0904 20.8541 27.3334 21.7222 27.3334 22.6666V24C27.3334 24.9166 27.007 25.7013 26.3542 26.3541C25.7015 27.0069 24.9167 27.3333 24.0001 27.3333ZM4.00008 24H24.0001V22.6666C24.0001 22.3611 23.9237 22.0833 23.7709 21.8333C23.6181 21.5833 23.4167 21.3888 23.1667 21.25C21.6667 20.5 20.1529 19.9375 18.6251 19.5625C17.0973 19.1875 15.5556 19 14.0001 19C12.4445 19 10.9029 19.1875 9.37508 19.5625C7.8473 19.9375 6.33341 20.5 4.83341 21.25C4.58341 21.3888 4.38203 21.5833 4.22925 21.8333C4.07647 22.0833 4.00008 22.3611 4.00008 22.6666V24ZM14.0001 10.6666C14.9167 10.6666 15.7015 10.3402 16.3542 9.68746C17.007 9.03468 17.3334 8.24996 17.3334 7.33329C17.3334 6.41663 17.007 5.6319 16.3542 4.97913C15.7015 4.32635 14.9167 3.99996 14.0001 3.99996C13.0834 3.99996 12.2987 4.32635 11.6459 4.97913C10.9931 5.6319 10.6667 6.41663 10.6667 7.33329C10.6667 8.24996 10.9931 9.03468 11.6459 9.68746C12.2987 10.3402 13.0834 10.6666 14.0001 10.6666Z" fill="#1C1B1F"/>
</svg>
