<svg width="34" height="30" viewBox="0 0 34 30" fill="none" xmlns="http://www.w3.org/2000/svg">
<path d="M17 24.1667C19.0833 24.1667 20.8541 23.4375 22.3125 21.9792C23.7708 20.5208 24.5 18.75 24.5 16.6667C24.5 14.5833 23.7708 12.8125 22.3125 11.3542C20.8541 9.89583 19.0833 9.16667 17 9.16667C14.9166 9.16667 13.1458 9.89583 11.6875 11.3542C10.2291 12.8125 9.49998 14.5833 9.49998 16.6667C9.49998 18.75 10.2291 20.5208 11.6875 21.9792C13.1458 23.4375 14.9166 24.1667 17 24.1667ZM3.66665 30C2.74998 30 1.96526 29.6736 1.31248 29.0208C0.659702 28.3681 0.333313 27.5833 0.333313 26.6667V6.66667C0.333313 5.75 0.659702 4.96528 1.31248 4.3125C1.96526 3.65972 2.74998 3.33333 3.66665 3.33333H8.91665L11 1.08333C11.3055 0.722222 11.6736 0.451389 12.1041 0.270833C12.5347 0.0902778 12.9861 0 13.4583 0H20.5416C21.0139 0 21.4653 0.0902778 21.8958 0.270833C22.3264 0.451389 22.6944 0.722222 23 1.08333L25.0833 3.33333H30.3333C31.25 3.33333 32.0347 3.65972 32.6875 4.3125C33.3403 4.96528 33.6666 5.75 33.6666 6.66667V26.6667C33.6666 27.5833 33.3403 28.3681 32.6875 29.0208C32.0347 29.6736 31.25 30 30.3333 30H3.66665ZM30.3333 26.6667V6.66667H3.66665V26.6667H30.3333Z" fill="#1C1B1F"/>
</svg>
