<svg width="30" height="30" viewBox="0 0 30 30" fill="none" xmlns="http://www.w3.org/2000/svg">
<path d="M15 16.6667C14.5278 16.6667 14.1319 16.5069 13.8125 16.1875C13.4931 15.8681 13.3333 15.4722 13.3333 15V1.66667C13.3333 1.19444 13.4931 0.798611 13.8125 0.479167C14.1319 0.159722 14.5278 0 15 0C15.4722 0 15.8681 0.159722 16.1875 0.479167C16.5069 0.798611 16.6667 1.19444 16.6667 1.66667V15C16.6667 15.4722 16.5069 15.8681 16.1875 16.1875C15.8681 16.5069 15.4722 16.6667 15 16.6667ZM15 30C12.9167 30 10.9653 29.6042 9.14583 28.8125C7.32639 28.0208 5.74306 26.9514 4.39583 25.6042C3.04861 24.2569 1.97917 22.6736 1.1875 20.8542C0.395833 19.0347 0 17.0833 0 15C0 13.0833 0.347222 11.25 1.04167 9.5C1.73611 7.75 2.73611 6.16667 4.04167 4.75C4.34722 4.41667 4.73611 4.25 5.20833 4.25C5.68056 4.25 6.08333 4.41667 6.41667 4.75C6.72222 5.05556 6.86111 5.4375 6.83333 5.89583C6.80556 6.35417 6.63889 6.76389 6.33333 7.125C5.36111 8.20833 4.61806 9.42361 4.10417 10.7708C3.59028 12.1181 3.33333 13.5278 3.33333 15C3.33333 18.25 4.46528 21.0069 6.72917 23.2708C8.99306 25.5347 11.75 26.6667 15 26.6667C18.25 26.6667 21.0069 25.5347 23.2708 23.2708C25.5347 21.0069 26.6667 18.25 26.6667 15C26.6667 13.5278 26.4028 12.1042 25.875 10.7292C25.3472 9.35417 24.5972 8.125 23.625 7.04167C23.3194 6.70833 23.1597 6.31944 23.1458 5.875C23.1319 5.43056 23.2778 5.05556 23.5833 4.75C23.9167 4.41667 24.3194 4.25 24.7917 4.25C25.2639 4.25 25.6528 4.41667 25.9583 4.75C27.2639 6.16667 28.2639 7.75 28.9583 9.5C29.6528 11.25 30 13.0833 30 15C30 17.0833 29.6042 19.0347 28.8125 20.8542C28.0208 22.6736 26.9514 24.2569 25.6042 25.6042C24.2569 26.9514 22.6736 28.0208 20.8542 28.8125C19.0347 29.6042 17.0833 30 15 30Z" fill="#1C1B1F"/>
</svg>
