<svg width="48" height="54" viewBox="0 0 48 54" fill="none" xmlns="http://www.w3.org/2000/svg">
<g clip-path="url(#clip0_121_1780)">
<path d="M46.97 31.6C46.42 28.52 44.71 25.37 42.46 23.04C44.29 19.95 46.32 17.36 46.69 13.61C47.01 10.41 46.45 6.50002 44.34 3.95002C42.27 1.45002 39.46 0.660016 36.35 0.450016C32.2 0.170016 28.02 0.0900162 23.87 0.140016C17.54 0.210016 9.30004 -1.15998 4.12004 3.41002C1.61004 5.61002 0.390044 9.24002 0.160044 12.49C-0.139956 16.77 2.80004 19.98 4.96004 23.38C2.89004 26.08 1.57004 29.37 0.880044 32.7C-0.0699555 37.39 0.160045 40.97 2.08004 45.42C3.10004 47.78 4.91004 50.66 7.10004 52.14C8.60004 53.15 10.44 53.12 12.18 53.18C17.52 53.39 22.88 53.34 28.22 53.25C31.67 53.19 35.91 53.7 39.28 52.76C42.6 51.83 44.28 47.99 45.55 45.09C47.35 40.99 47.76 35.97 46.97 31.59V31.6ZM7.24004 3.03002C12 0.610016 18.64 1.59002 23.87 1.53002C26.5 1.50002 29.14 1.53002 31.77 1.64002C35.41 1.80002 39.66 1.43002 42.53 4.07002C44.91 6.25002 45.56 10 45.35 13.1C45.1 16.73 43.17 19.19 41.42 22.07C41.19 21.88 40.97 21.67 40.74 21.5C39.33 20.44 37.93 19.57 36.52 18.85C38.53 15.7 41.59 11.17 37.44 8.23002C33.37 5.35002 26.16 6.54002 21.55 6.59002C19.53 6.61002 17.56 6.79002 15.56 7.01002C13.58 7.22002 10.99 7.14002 9.32004 8.40002C5.21004 11.49 7.58004 15.9 9.95004 19.06C9.53004 19.3 9.11004 19.53 8.71004 19.8C7.66004 20.51 6.73004 21.35 5.89004 22.27C3.92004 19.27 1.46004 16.39 1.62004 12.61C1.78004 8.68002 3.66004 4.87002 7.25004 3.05002L7.24004 3.03002ZM24.08 16.06C19.71 16.09 15.17 16.54 11.19 18.4C9.50004 16.25 7.35004 13.43 9.17004 10.67C10.58 8.52002 13 8.65002 15.22 8.42002C17.71 8.16002 20.13 7.97002 22.64 7.96002C26.12 7.95002 29.79 7.71002 33.24 8.21002C35.69 8.56002 37.84 9.58002 37.97 12.42C38.07 14.69 36.42 16.42 35.26 18.23C31.85 16.73 28.27 16.1 24.09 16.05L24.08 16.06ZM45.84 37.37C45.68 41.37 44.36 45.08 42.24 48.46C39.68 52.54 34.72 51.74 30.49 51.83C25.44 51.94 20.39 51.99 15.34 51.89C12.01 51.83 9.04004 52.11 6.46004 49.62C4.09004 47.34 2.93004 44.12 2.00004 41.05C0.380044 35.7 2.95004 27.9 6.41004 23.74C10.76 18.51 17.66 17.51 24.07 17.46C30.32 17.53 36.47 19.1 41.12 23.58C44.86 27.19 46.04 32.37 45.83 37.37H45.84Z" fill="#3FCDFD"/>
<path d="M25.27 24.49C21.64 23.98 18.26 26.08 17.32 29.66C16.41 33.15 17.78 36.64 21.52 37.39C25.06 38.1 29.96 36.95 30.7 32.92C31.36 29.3 28.92 25.23 25.27 24.49ZM22.94 36.13C15.55 35.84 18.23 24.9 24.9 25.83C27.51 26.36 29.27 28.85 29.4 31.47C29.58 35.19 25.99 36.25 22.94 36.13Z" fill="#3FCDFD"/>
<path d="M13.35 21.49C9.52002 23.58 6.78002 27.06 5.62002 31.27C5.38002 32.14 6.73002 32.51 6.96002 31.64C8.02002 27.77 10.52 24.62 14.05 22.69C14.84 22.26 14.13 21.06 13.35 21.49Z" fill="#3FCDFD"/>
<path d="M5.50996 33.87C4.60996 33.87 4.60996 35.26 5.50996 35.26C6.40996 35.26 6.40996 33.87 5.50996 33.87Z" fill="#3FCDFD"/>
</g>
<defs>
<clipPath id="clip0_121_1780">
<rect width="47.22" height="53.35" fill="white" transform="translate(0.140015)"/>
</clipPath>
</defs>
</svg>
