<svg width="18" height="20" viewBox="0 0 18 20" fill="none" xmlns="http://www.w3.org/2000/svg">
<path d="M3 20C2.16667 20 1.45833 19.7083 0.875 19.125C0.291667 18.5416 0 17.8333 0 17V15C0 14.7166 0.0958333 14.4791 0.2875 14.2875C0.479167 14.0958 0.716667 14 1 14H3V0.724951C3 0.574951 3.06667 0.483285 3.2 0.449951C3.33333 0.416618 3.46667 0.466618 3.6 0.599951L4.5 1.49995L5.65 0.349951C5.75 0.249951 5.86667 0.199951 6 0.199951C6.13333 0.199951 6.25 0.249951 6.35 0.349951L7.5 1.49995L8.65 0.349951C8.75 0.249951 8.86667 0.199951 9 0.199951C9.13333 0.199951 9.25 0.249951 9.35 0.349951L10.5 1.49995L11.65 0.349951C11.75 0.249951 11.8667 0.199951 12 0.199951C12.1333 0.199951 12.25 0.249951 12.35 0.349951L13.5 1.49995L14.65 0.349951C14.75 0.249951 14.8667 0.199951 15 0.199951C15.1333 0.199951 15.25 0.249951 15.35 0.349951L16.5 1.49995L17.4 0.599951C17.5333 0.466618 17.6667 0.412451 17.8 0.437451C17.9333 0.462451 18 0.558285 18 0.724951V17C18 17.8333 17.7083 18.5416 17.125 19.125C16.5417 19.7083 15.8333 20 15 20H3ZM15 18C15.2833 18 15.5208 17.9041 15.7125 17.7125C15.9042 17.5208 16 17.2833 16 17V2.99995H5V14H13C13.2833 14 13.5208 14.0958 13.7125 14.2875C13.9042 14.4791 14 14.7166 14 15V17C14 17.2833 14.0958 17.5208 14.2875 17.7125C14.4792 17.9041 14.7167 18 15 18ZM6.975 6.99995C6.69167 6.99995 6.45833 6.90412 6.275 6.71245C6.09167 6.52079 6 6.28329 6 5.99995C6 5.71662 6.09583 5.47912 6.2875 5.28745C6.47917 5.09579 6.71667 4.99995 7 4.99995H11C11.2833 4.99995 11.5208 5.09579 11.7125 5.28745C11.9042 5.47912 12 5.71662 12 5.99995C12 6.28329 11.9042 6.52079 11.7125 6.71245C11.5208 6.90412 11.2833 6.99995 11 6.99995H6.975ZM6.975 9.99995C6.69167 9.99995 6.45833 9.90412 6.275 9.71245C6.09167 9.52079 6 9.28329 6 8.99995C6 8.71662 6.09583 8.47912 6.2875 8.28745C6.47917 8.09579 6.71667 7.99995 7 7.99995H11C11.2833 7.99995 11.5208 8.09579 11.7125 8.28745C11.9042 8.47912 12 8.71662 12 8.99995C12 9.28329 11.9042 9.52079 11.7125 9.71245C11.5208 9.90412 11.2833 9.99995 11 9.99995H6.975ZM14 6.99995C13.7167 6.99995 13.4792 6.90412 13.2875 6.71245C13.0958 6.52079 13 6.28329 13 5.99995C13 5.71662 13.0958 5.47912 13.2875 5.28745C13.4792 5.09579 13.7167 4.99995 14 4.99995C14.2833 4.99995 14.5208 5.09579 14.7125 5.28745C14.9042 5.47912 15 5.71662 15 5.99995C15 6.28329 14.9042 6.52079 14.7125 6.71245C14.5208 6.90412 14.2833 6.99995 14 6.99995ZM14 9.99995C13.7167 9.99995 13.4792 9.90412 13.2875 9.71245C13.0958 9.52079 13 9.28329 13 8.99995C13 8.71662 13.0958 8.47912 13.2875 8.28745C13.4792 8.09579 13.7167 7.99995 14 7.99995C14.2833 7.99995 14.5208 8.09579 14.7125 8.28745C14.9042 8.47912 15 8.71662 15 8.99995C15 9.28329 14.9042 9.52079 14.7125 9.71245C14.5208 9.90412 14.2833 9.99995 14 9.99995ZM3 18H12V16H2V17C2 17.2833 2.09583 17.5208 2.2875 17.7125C2.47917 17.9041 2.71667 18 3 18Z" fill="#1C1B1F"/>
</svg>
