<svg width="24" height="28" viewBox="0 0 24 28" fill="none" xmlns="http://www.w3.org/2000/svg">
<path d="M4 27.3334C2.88889 27.3334 1.94444 26.9445 1.16667 26.1667C0.388889 25.3889 0 24.4445 0 23.3334V20.6667C0 20.2889 0.127778 19.9722 0.383333 19.7167C0.638889 19.4611 0.955556 19.3334 1.33333 19.3334H4V1.63335C4 1.43335 4.08889 1.31113 4.26667 1.26668C4.44444 1.22224 4.62222 1.28891 4.8 1.46668L6 2.66668L7.53333 1.13335C7.66667 1.00002 7.82222 0.93335 8 0.93335C8.17778 0.93335 8.33333 1.00002 8.46667 1.13335L10 2.66668L11.5333 1.13335C11.6667 1.00002 11.8222 0.93335 12 0.93335C12.1778 0.93335 12.3333 1.00002 12.4667 1.13335L14 2.66668L15.5333 1.13335C15.6667 1.00002 15.8222 0.93335 16 0.93335C16.1778 0.93335 16.3333 1.00002 16.4667 1.13335L18 2.66668L19.5333 1.13335C19.6667 1.00002 19.8222 0.93335 20 0.93335C20.1778 0.93335 20.3333 1.00002 20.4667 1.13335L22 2.66668L23.2 1.46668C23.3778 1.28891 23.5556 1.21668 23.7333 1.25002C23.9111 1.28335 24 1.41113 24 1.63335V23.3334C24 24.4445 23.6111 25.3889 22.8333 26.1667C22.0556 26.9445 21.1111 27.3334 20 27.3334H4ZM20 24.6667C20.3778 24.6667 20.6944 24.5389 20.95 24.2834C21.2056 24.0278 21.3333 23.7111 21.3333 23.3334V4.66668H6.66667V19.3334H17.3333C17.7111 19.3334 18.0278 19.4611 18.2833 19.7167C18.5389 19.9722 18.6667 20.2889 18.6667 20.6667V23.3334C18.6667 23.7111 18.7944 24.0278 19.05 24.2834C19.3056 24.5389 19.6222 24.6667 20 24.6667ZM9.3 10C8.92222 10 8.61111 9.87224 8.36667 9.61668C8.12222 9.36113 8 9.04446 8 8.66668C8 8.28891 8.12778 7.97224 8.38333 7.71668C8.63889 7.46113 8.95556 7.33335 9.33333 7.33335H14.6667C15.0444 7.33335 15.3611 7.46113 15.6167 7.71668C15.8722 7.97224 16 8.28891 16 8.66668C16 9.04446 15.8722 9.36113 15.6167 9.61668C15.3611 9.87224 15.0444 10 14.6667 10H9.3ZM9.3 14C8.92222 14 8.61111 13.8722 8.36667 13.6167C8.12222 13.3611 8 13.0445 8 12.6667C8 12.2889 8.12778 11.9722 8.38333 11.7167C8.63889 11.4611 8.95556 11.3334 9.33333 11.3334H14.6667C15.0444 11.3334 15.3611 11.4611 15.6167 11.7167C15.8722 11.9722 16 12.2889 16 12.6667C16 13.0445 15.8722 13.3611 15.6167 13.6167C15.3611 13.8722 15.0444 14 14.6667 14H9.3ZM18.6667 10C18.2889 10 17.9722 9.87224 17.7167 9.61668C17.4611 9.36113 17.3333 9.04446 17.3333 8.66668C17.3333 8.28891 17.4611 7.97224 17.7167 7.71668C17.9722 7.46113 18.2889 7.33335 18.6667 7.33335C19.0444 7.33335 19.3611 7.46113 19.6167 7.71668C19.8722 7.97224 20 8.28891 20 8.66668C20 9.04446 19.8722 9.36113 19.6167 9.61668C19.3611 9.87224 19.0444 10 18.6667 10ZM18.6667 14C18.2889 14 17.9722 13.8722 17.7167 13.6167C17.4611 13.3611 17.3333 13.0445 17.3333 12.6667C17.3333 12.2889 17.4611 11.9722 17.7167 11.7167C17.9722 11.4611 18.2889 11.3334 18.6667 11.3334C19.0444 11.3334 19.3611 11.4611 19.6167 11.7167C19.8722 11.9722 20 12.2889 20 12.6667C20 13.0445 19.8722 13.3611 19.6167 13.6167C19.3611 13.8722 19.0444 14 18.6667 14ZM4 24.6667H16V22H2.66667V23.3334C2.66667 23.7111 2.79444 24.0278 3.05 24.2834C3.30556 24.5389 3.62222 24.6667 4 24.6667Z" fill="#919191"/>
</svg>
