<svg width="24" height="38" viewBox="0 0 24 38" fill="none" xmlns="http://www.w3.org/2000/svg">
<path d="M3.66659 37.3333C2.74992 37.3333 1.9652 37.0069 1.31242 36.3541C0.659641 35.7014 0.333252 34.9166 0.333252 34V3.99996C0.333252 3.08329 0.659641 2.29857 1.31242 1.64579C1.9652 0.993015 2.74992 0.666626 3.66659 0.666626H20.3333C21.2499 0.666626 22.0346 0.993015 22.6874 1.64579C23.3402 2.29857 23.6666 3.08329 23.6666 3.99996V34C23.6666 34.9166 23.3402 35.7014 22.6874 36.3541C22.0346 37.0069 21.2499 37.3333 20.3333 37.3333H3.66659ZM3.66659 32.3333V34H20.3333V32.3333H3.66659ZM3.66659 5.66663H20.3333V3.99996H3.66659V5.66663ZM11.9999 25.6666C10.4999 25.6666 9.04159 25.8819 7.62492 26.3125C6.20825 26.743 4.88881 27.3611 3.66659 28.1666V29H20.3333V28.1666C19.111 27.3611 17.7916 26.743 16.3749 26.3125C14.9583 25.8819 13.4999 25.6666 11.9999 25.6666ZM11.9999 22.3333C13.4999 22.3333 14.9513 22.5069 16.3541 22.8541C17.7569 23.2013 19.0833 23.6944 20.3333 24.3333V8.99996H3.66659V24.3333C4.91659 23.6944 6.24297 23.2013 7.64575 22.8541C9.04853 22.5069 10.4999 22.3333 11.9999 22.3333ZM11.9999 20.6666C13.3888 20.6666 14.5694 20.1805 15.5416 19.2083C16.5138 18.2361 16.9999 17.0555 16.9999 15.6666C16.9999 14.2777 16.5138 13.0972 15.5416 12.125C14.5694 11.1527 13.3888 10.6666 11.9999 10.6666C10.611 10.6666 9.43047 11.1527 8.45825 12.125C7.48603 13.0972 6.99992 14.2777 6.99992 15.6666C6.99992 17.0555 7.48603 18.2361 8.45825 19.2083C9.43047 20.1805 10.611 20.6666 11.9999 20.6666ZM11.9999 17.3333C11.5277 17.3333 11.1319 17.1736 10.8124 16.8541C10.493 16.5347 10.3333 16.1388 10.3333 15.6666C10.3333 15.1944 10.493 14.7986 10.8124 14.4791C11.1319 14.1597 11.5277 14 11.9999 14C12.4721 14 12.868 14.1597 13.1874 14.4791C13.5069 14.7986 13.6666 15.1944 13.6666 15.6666C13.6666 16.1388 13.5069 16.5347 13.1874 16.8541C12.868 17.1736 12.4721 17.3333 11.9999 17.3333Z" fill="#1C1B1F"/>
</svg>
