<svg width="39" height="62" viewBox="0 0 39 62" fill="none" xmlns="http://www.w3.org/2000/svg">
<g clip-path="url(#clip0_121_1788)">
<path d="M37.93 22.17C37.89 20.73 38.28 17.48 36.64 16.68C35.8 16.27 34.83 16.36 34.03 16.77C33.9 14.91 33.4 13.22 32.01 12.27C30.94 11.53 29.6 11.22 28.28 11.09C28.35 8.53001 28.93 4.65001 28.3 2.23001C28.1 1.46001 28.09 0.990013 27.37 0.480013C26.28 -0.289987 23.81 0.110013 22.6 0.120013C20.46 0.140013 18.32 0.200013 16.17 0.180013C14.13 0.160013 12.09 0.150013 10.04 0.240013C9.03996 0.290013 7.28996 0.0700133 6.45996 0.740013C5.73996 1.32001 5.95996 2.13001 5.95996 3.01001C5.95996 5.70001 5.94996 8.39001 5.98996 11.07C5.30996 11.09 4.64996 11.17 4.03996 11.4C0.399956 12.82 0.859956 18.91 0.659956 22C0.309956 27.62 0.369956 33.28 0.719956 38.9C0.899956 41.84 0.209956 47.65 3.28996 49.35C4.06996 49.78 5.02996 49.99 6.01996 50.09C5.94996 52.89 5.45996 56.36 6.00996 59.09C6.19996 60.03 6.37996 60.69 7.24996 61.18C8.51996 61.89 10.77 61.5 12.15 61.5C14.09 61.49 16.04 61.43 17.98 61.43C19.77 61.43 21.54 61.46 23.33 61.4C24.56 61.36 26.74 61.66 27.76 60.93C28.55 60.36 28.33 59.52 28.33 58.61C28.33 55.85 28.34 53.09 28.3 50.33C28.35 50.33 28.39 50.33 28.44 50.33C29.77 50.33 31.13 50.21 32.15 49.25C34.89 46.69 33.57 41.53 33.6 38.3C33.63 34.58 33.68 30.87 33.72 27.15C34.62 27.65 35.71 27.73 36.77 27.33C38.61 26.63 37.98 23.69 37.93 22.18V22.17ZM8.15996 1.75001C8.94996 1.29001 11.02 1.59001 11.94 1.57001C13.35 1.54001 14.76 1.55001 16.17 1.57001C18.82 1.59001 21.47 1.49001 24.12 1.51001C26.46 1.52001 26.86 3.35001 26.86 5.42001C26.86 7.28001 26.9 9.14001 26.86 11C26.71 11 26.56 11 26.42 11C23.41 10.98 20.34 11.12 17.33 11.18C14.65 11.09 11.97 11.16 9.28996 11.18C8.67996 11.18 8.02996 11.14 7.36996 11.1C7.26996 8.97001 6.41996 2.76001 8.14996 1.75001H8.15996ZM26.93 55.63C26.93 57.61 27.35 59.32 25.17 59.93C23.03 60.53 20.22 60.03 17.98 60.03C15.59 60.03 13.2 60.11 10.8 60.1C10.28 60.1 9.32996 60.3 8.83996 60.08C7.64996 59.54 7.56996 57.5 7.41996 56.46C7.13996 54.46 7.34996 52.21 7.39996 50.17C8.36996 50.2 9.31996 50.19 10.14 50.22C13.44 50.34 16.74 50.22 20.04 50.15C22.33 50.11 24.61 50.25 26.89 50.3C26.92 52.08 26.92 53.85 26.91 55.62L26.93 55.63ZM32.25 40.84C32.3 41.74 32.42 42.64 32.41 43.55C32.4 45.66 31.6 48.1 29.33 48.93C27.5 49.6 23.93 48.73 22.04 48.74C19.4 48.76 16.75 48.87 14.11 48.89C12 48.9 6.54996 49.53 4.80996 48.37C2.09996 46.55 2.34996 42.35 2.15996 39.49C1.99996 37.08 1.89996 34.67 1.85996 32.25C1.77996 27.49 1.85996 22.67 2.39996 17.94C2.67996 15.45 3.43996 13.36 6.22996 12.54C7.04996 12.3 8.40996 12.59 9.30996 12.58C11.99 12.56 14.66 12.48 17.35 12.58C19.79 12.53 22.2 12.61 24.64 12.47C27.23 12.32 30.36 12.04 31.7 14.6C32.83 16.75 32.4 19.49 32.39 21.91C32.39 24.12 32.37 26.33 32.35 28.54C32.32 32.63 32.06 36.77 32.28 40.86L32.25 40.84ZM36.06 25.81C35.4 26.3 34.43 26.32 33.82 25.5C33.79 25.46 33.76 25.45 33.73 25.42C33.73 24.79 33.75 24.16 33.75 23.53C33.75 22.15 34.01 20.28 34.05 18.43C34.08 18.4 34.11 18.39 34.14 18.35C34.63 17.71 35.86 17.77 36.25 18.39C36.68 19.07 36.49 21.06 36.52 21.85C36.55 22.72 36.56 23.6 36.55 24.47C36.54 25.19 36.66 25.37 36.06 25.81Z" fill="#DB4151"/>
<path d="M26.2798 22.99C26.2798 22.99 26.2298 22.96 26.1898 22.96C26.1598 22.96 26.1298 22.96 26.0898 22.96C26.0598 22.96 26.0298 22.94 25.9998 22.94C25.9798 22.94 25.9598 22.94 25.9398 22.94C24.1998 22.79 22.4198 23.48 22.0598 25.39C21.8398 26.58 22.3798 27.87 23.2998 28.66C22.5598 29.87 21.6198 30.95 20.9898 32.23C20.9198 32.21 20.8398 32.2 20.7698 32.18C20.7398 32.18 20.7198 32.15 20.6798 32.15C20.6498 32.15 20.6098 32.15 20.5798 32.15C20.5498 32.15 20.5198 32.13 20.4898 32.13C20.4698 32.13 20.4498 32.13 20.4298 32.13C19.9498 32.09 19.4698 32.11 19.0098 32.21C18.2098 30.96 17.3398 29.75 16.4098 28.59C17.0698 28.08 17.5798 27.4 17.7498 26.64C18.1098 25.06 16.8198 23.29 15.2498 22.99C15.2198 22.99 15.1998 22.96 15.1598 22.96C15.1298 22.96 15.0998 22.96 15.0598 22.96C15.0298 22.96 14.9998 22.94 14.9698 22.94C14.9498 22.94 14.9298 22.94 14.9098 22.94C13.1698 22.79 11.3898 23.48 11.0298 25.39C10.7898 26.65 11.3998 28.02 12.4198 28.79C11.5198 29.88 10.5798 30.97 9.89983 32.22C9.83983 32.2 9.78983 32.2 9.72983 32.18C9.69983 32.18 9.67983 32.15 9.63983 32.15C9.60983 32.15 9.56983 32.15 9.53983 32.15C9.50983 32.15 9.47983 32.13 9.44983 32.13C9.42983 32.13 9.40983 32.13 9.38983 32.13C7.64983 31.98 5.86983 32.67 5.50983 34.58C5.18983 36.3 6.43983 38.25 8.18983 38.56C9.87983 38.86 11.8398 37.48 12.2198 35.83C12.4598 34.76 11.9598 33.61 11.1198 32.87C11.8198 31.61 12.7898 30.52 13.6898 29.41C13.6998 29.4 13.6998 29.38 13.7098 29.37C14.2098 29.45 14.7398 29.38 15.2398 29.21C15.2598 29.33 15.2898 29.45 15.3898 29.57C16.2098 30.6 16.9698 31.67 17.6798 32.77C17.1098 33.17 16.6798 33.76 16.5298 34.59C16.2098 36.31 17.4598 38.26 19.2098 38.57C20.8998 38.87 22.8598 37.49 23.2398 35.84C23.4798 34.79 22.9998 33.65 22.1898 32.91C22.8298 31.62 23.7898 30.54 24.5198 29.31C24.5898 29.33 24.6498 29.36 24.7198 29.37C26.4098 29.67 28.3698 28.29 28.7498 26.64C29.1098 25.06 27.8198 23.29 26.2498 22.99H26.2798ZM10.7598 35.88C10.3698 36.69 9.16983 37.42 8.27983 37.16C7.36983 36.9 6.70983 35.71 6.89983 34.81C7.12983 33.7 8.28983 33.36 9.28983 33.49C9.31983 33.49 9.33983 33.49 9.36983 33.49C9.40983 33.49 9.43983 33.52 9.47983 33.52C10.4898 33.6 11.1798 35.02 10.7698 35.87L10.7598 35.88ZM13.7898 27.97C12.8798 27.71 12.2198 26.52 12.4098 25.62C12.6398 24.51 13.7998 24.17 14.7998 24.3C14.8298 24.3 14.8498 24.3 14.8798 24.3C14.9198 24.3 14.9498 24.33 14.9898 24.33C15.9998 24.41 16.6898 25.83 16.2798 26.68C15.8898 27.49 14.6898 28.22 13.7998 27.96L13.7898 27.97ZM21.7798 35.88C21.3898 36.69 20.1898 37.42 19.2998 37.16C18.3898 36.9 17.7298 35.71 17.9198 34.81C18.1498 33.7 19.3098 33.36 20.3098 33.49C20.3398 33.49 20.3598 33.49 20.3898 33.49C20.4298 33.49 20.4598 33.52 20.4998 33.52C21.5098 33.6 22.1998 35.02 21.7898 35.87L21.7798 35.88ZM27.2898 26.69C26.8998 27.5 25.6998 28.23 24.8098 27.97C23.8998 27.71 23.2398 26.52 23.4298 25.62C23.6598 24.51 24.8198 24.17 25.8198 24.3C25.8498 24.3 25.8698 24.3 25.8998 24.3C25.9398 24.3 25.9698 24.33 26.0098 24.33C27.0198 24.41 27.7098 25.83 27.2998 26.68L27.2898 26.69Z" fill="#DB4151"/>
<path d="M6.88985 16.2C7.67985 15.77 6.97985 14.57 6.18985 15C3.62985 16.38 3.94985 20.05 4.04985 22.52C4.08985 23.41 5.47985 23.42 5.43985 22.52C5.36985 20.65 4.93985 17.25 6.88985 16.2Z" fill="#DB4151"/>
<path d="M9.5399 14.88V14.81C9.5399 13.91 8.1499 13.91 8.1499 14.81V14.88C8.1499 15.78 9.5399 15.78 9.5399 14.88Z" fill="#DB4151"/>
</g>
<defs>
<clipPath id="clip0_121_1788">
<rect width="37.64" height="61.61" fill="white" transform="translate(0.429932)"/>
</clipPath>
</defs>
</svg>
