<svg width="40" height="40" viewBox="0 0 40 40" fill="none" xmlns="http://www.w3.org/2000/svg">
<mask id="mask0_69_987" style="mask-type:luminance" maskUnits="userSpaceOnUse" x="6" y="3" width="29" height="35">
<path fill-rule="evenodd" clip-rule="evenodd" d="M6.66711 3.33398H34.945V37.26H6.66711V3.33398Z" fill="white"/>
</mask>
<g mask="url(#mask0_69_987)">
<path fill-rule="evenodd" clip-rule="evenodd" d="M20.8062 5.83337C19.3928 5.83337 10.4745 8.97337 9.44617 9.83171C9.14451 10.135 9.13284 10.665 9.19617 14.21C9.22784 15.92 9.26951 18.245 9.26951 21.465C9.26951 30.1334 18.8062 33.9817 20.8045 34.69C22.8012 33.9784 32.3428 30.1084 32.3428 21.465C32.3428 18.2484 32.3845 15.925 32.4145 14.215C32.4795 10.6667 32.4678 10.1367 32.1462 9.81504C31.1362 8.97337 22.2195 5.83337 20.8062 5.83337ZM20.8062 37.26C20.6845 37.26 20.5628 37.2434 20.4445 37.2067C19.8862 37.0384 6.76951 32.935 6.76951 21.465C6.76951 18.265 6.72784 15.9534 6.69784 14.2567C6.62117 10.0234 6.60451 9.14004 7.69617 8.04671C9.00784 6.73504 18.9178 3.33337 20.8062 3.33337C22.6945 3.33337 32.6045 6.73504 33.9145 8.04671C35.0078 9.14004 34.9912 10.0234 34.9145 14.2617C34.8845 15.9584 34.8428 18.27 34.8428 21.465C34.8428 32.935 21.7262 37.0384 21.1678 37.2067C21.0495 37.2434 20.9278 37.26 20.8062 37.26Z" fill="black"/>
</g>
<path fill-rule="evenodd" clip-rule="evenodd" d="M23.9377 24.292C23.6177 24.292 23.2977 24.1703 23.0543 23.9253L16.791 17.662C16.3027 17.1736 16.3027 16.3836 16.791 15.8953C17.2793 15.407 18.0693 15.407 18.5577 15.8953L24.821 22.1586C25.3093 22.647 25.3093 23.437 24.821 23.9253C24.5777 24.1703 24.2577 24.292 23.9377 24.292Z" fill="black"/>
<path fill-rule="evenodd" clip-rule="evenodd" d="M17.6747 24.292C17.3547 24.292 17.0347 24.1703 16.7914 23.9253C16.303 23.437 16.303 22.647 16.7914 22.1586L23.0547 15.8953C23.543 15.407 24.333 15.407 24.8214 15.8953C25.3097 16.3836 25.3097 17.1736 24.8214 17.662L18.558 23.9253C18.3147 24.1703 17.9947 24.292 17.6747 24.292Z" fill="black"/>
</svg>
