<svg width="38" height="31" viewBox="0 0 38 31" fill="none" xmlns="http://www.w3.org/2000/svg">
<path d="M19.0001 30.6666L18.1667 14L12.3334 12.3333H0.666748V8.99996H10.6667L22.3334 0.666626L24.5001 3.20829L17.5834 8.16663H22.3334L35.3334 0.666626L37.3334 2.99996L23.1667 14L22.3334 30.6666H19.0001ZM9.00008 7.33329C8.08342 7.33329 7.29869 7.0069 6.64592 6.35413C5.99314 5.70135 5.66675 4.91663 5.66675 3.99996C5.66675 3.08329 5.99314 2.29857 6.64592 1.64579C7.29869 0.993015 8.08342 0.666626 9.00008 0.666626C9.91675 0.666626 10.7015 0.993015 11.3542 1.64579C12.007 2.29857 12.3334 3.08329 12.3334 3.99996C12.3334 4.91663 12.007 5.70135 11.3542 6.35413C10.7015 7.0069 9.91675 7.33329 9.00008 7.33329Z" fill="#1C1B1F"/>
</svg>
