<svg width="30" height="32" viewBox="0 0 30 32" fill="none" xmlns="http://www.w3.org/2000/svg">
<path d="M14.5001 23.1667C14.8334 22.8334 15.2292 22.6667 15.6876 22.6667C16.1459 22.6667 16.5279 22.8195 16.8334 23.1251L20.0001 26.2917V2.66675C20.0001 2.19453 20.1598 1.79869 20.4792 1.47925C20.7987 1.1598 21.1945 1.00008 21.6667 1.00008C22.139 1.00008 22.5348 1.1598 22.8542 1.47925C23.1737 1.79869 23.3334 2.19453 23.3334 2.66675V26.2917L26.5001 23.1251C26.8056 22.8195 27.1876 22.6667 27.6459 22.6667C28.1042 22.6667 28.5001 22.8334 28.8334 23.1667C29.139 23.4723 29.2917 23.8612 29.2917 24.3334C29.2917 24.8056 29.139 25.1945 28.8334 25.5001L22.8334 31.5001C22.6667 31.6667 22.4862 31.7848 22.2917 31.8542C22.0973 31.9237 21.889 31.9584 21.6667 31.9584C21.4445 31.9584 21.2362 31.9237 21.0417 31.8542C20.8473 31.7848 20.6667 31.6667 20.5001 31.5001L14.5001 25.5001C14.1667 25.1667 14.007 24.7709 14.0209 24.3126C14.0348 23.8542 14.1945 23.4723 14.5001 23.1667ZM1.16675 6.50008L7.16675 0.500081C7.33341 0.333415 7.51397 0.215359 7.70841 0.145915C7.90286 0.0764703 8.11119 0.041748 8.33341 0.041748C8.55564 0.041748 8.76397 0.0764703 8.95841 0.145915C9.15286 0.215359 9.33341 0.333415 9.50008 0.500081L15.5001 6.50008C15.8056 6.80564 15.9654 7.18758 15.9792 7.64591C15.9931 8.10425 15.8334 8.50008 15.5001 8.83342C15.1945 9.16675 14.8126 9.34036 14.3542 9.35425C13.8959 9.36814 13.5001 9.20842 13.1667 8.87508L10.0001 5.70841V29.3334C10.0001 29.8056 9.84036 30.2015 9.52091 30.5209C9.20147 30.8404 8.80564 31.0001 8.33341 31.0001C7.86119 31.0001 7.46536 30.8404 7.14591 30.5209C6.82647 30.2015 6.66675 29.8056 6.66675 29.3334V5.70841L3.50008 8.87508C3.19452 9.18064 2.80564 9.34036 2.33341 9.35425C1.86119 9.36814 1.4723 9.20842 1.16675 8.87508C0.833412 8.56953 0.666746 8.18064 0.666746 7.70841C0.666746 7.23619 0.833412 6.83341 1.16675 6.50008Z" fill="#1C1B1F"/>
</svg>
