<svg width="28" height="28" viewBox="0 0 28 28" fill="none" xmlns="http://www.w3.org/2000/svg">
<path d="M13.9998 27.3333C12.1554 27.3333 10.4221 26.9833 8.79984 26.2833C7.17762 25.5833 5.7665 24.6333 4.5665 23.4333C3.3665 22.2333 2.4165 20.8222 1.7165 19.2C1.0165 17.5777 0.666504 15.8444 0.666504 14C0.666504 12.1555 1.0165 10.4222 1.7165 8.79996C2.4165 7.17774 3.3665 5.76663 4.5665 4.56663C5.7665 3.36663 7.17762 2.41663 8.79984 1.71663C10.4221 1.01663 12.1554 0.666626 13.9998 0.666626C15.0665 0.666626 16.1054 0.788848 17.1165 1.03329C18.1276 1.27774 19.0998 1.63329 20.0332 2.09996C20.3665 2.27774 20.5832 2.5444 20.6832 2.89996C20.7832 3.25552 20.7221 3.58885 20.4998 3.89996C20.2776 4.21107 19.9832 4.41107 19.6165 4.49996C19.2498 4.58885 18.8887 4.5444 18.5332 4.36663C17.8221 4.03329 17.0832 3.77774 16.3165 3.59996C15.5498 3.42218 14.7776 3.33329 13.9998 3.33329C11.0443 3.33329 8.52762 4.37218 6.44984 6.44996C4.37206 8.52774 3.33317 11.0444 3.33317 14C3.33317 16.9555 4.37206 19.4722 6.44984 21.55C8.52762 23.6277 11.0443 24.6666 13.9998 24.6666C16.9554 24.6666 19.4721 23.6277 21.5498 21.55C23.6276 19.4722 24.6665 16.9555 24.6665 14C24.6665 13.8222 24.6609 13.65 24.6498 13.4833C24.6387 13.3166 24.6221 13.1444 24.5998 12.9666C24.5554 12.5888 24.6276 12.2277 24.8165 11.8833C25.0054 11.5388 25.2887 11.3111 25.6665 11.2C26.0221 11.0888 26.3554 11.1222 26.6665 11.3C26.9776 11.4777 27.1554 11.7444 27.1998 12.1C27.2443 12.4111 27.2776 12.7222 27.2998 13.0333C27.3221 13.3444 27.3332 13.6666 27.3332 14C27.3332 15.8444 26.9832 17.5777 26.2832 19.2C25.5832 20.8222 24.6332 22.2333 23.4332 23.4333C22.2332 24.6333 20.8221 25.5833 19.1998 26.2833C17.5776 26.9833 15.8443 27.3333 13.9998 27.3333ZM12.1332 16.4L24.5332 3.96663C24.7776 3.72218 25.0832 3.5944 25.4498 3.58329C25.8165 3.57218 26.1332 3.69996 26.3998 3.96663C26.6443 4.21107 26.7665 4.52218 26.7665 4.89996C26.7665 5.27774 26.6443 5.58885 26.3998 5.83329L13.0665 19.2C12.7998 19.4666 12.4887 19.6 12.1332 19.6C11.7776 19.6 11.4665 19.4666 11.1998 19.2L7.39984 15.4C7.15539 15.1555 7.03317 14.8444 7.03317 14.4666C7.03317 14.0888 7.15539 13.7777 7.39984 13.5333C7.64428 13.2888 7.95539 13.1666 8.33317 13.1666C8.71095 13.1666 9.02206 13.2888 9.2665 13.5333L12.1332 16.4Z" fill="#44DD77"/>
</svg>
