<svg width="30" height="31" viewBox="0 0 30 31" fill="none" xmlns="http://www.w3.org/2000/svg">
<rect x="-7.62939e-06" y="0.5" width="30" height="30" rx="2" fill="white"/>
<path d="M4.42861 6.57643H25.5714V8.68025H4.42861V6.57643Z" fill="#F60621"/>
<path d="M6.48026 5.05121H23.5563V7.15503H6.48026V5.05121Z" fill="#F60621"/>
<path d="M10.8626 3H18.9622V4.40241H10.8626V3Z" fill="#F60621"/>
<path d="M17.6296 4.13939H18.9618V5.96249H17.6296V4.13939Z" fill="#F60621"/>
<path d="M10.8626 3.92882H12.1947V5.75192H10.8626V3.92882Z" fill="#F60621"/>
<path d="M5.32321 9.2587L8.37372 28H21.7324L24.7829 9.2587H5.32321ZM12.0907 24.9756C12.0907 25.4384 11.7121 25.8171 11.2491 25.8171H10.2325C9.76973 25.8171 9.37158 25.4392 9.34764 24.977L8.69749 12.2818C8.67354 11.8194 9.0333 11.4412 9.49573 11.4412H11.2486C11.7114 11.4412 12.0902 11.8198 12.0902 12.2827L12.0903 24.9752L12.0907 24.9756ZM16.5264 24.9756C16.5264 25.4384 16.1478 25.8171 15.6848 25.8171H14.3523C13.8895 25.8171 13.5107 25.4385 13.5107 24.9756V12.2832C13.5107 11.8204 13.8893 11.4416 14.3523 11.4416H15.6848C16.1476 11.4416 16.5264 11.8202 16.5264 12.2832V24.9756ZM20.7242 24.9768C20.7002 25.4392 20.3021 25.817 19.8393 25.817H18.8227C18.3599 25.817 17.9811 25.4384 17.9811 24.9754L17.9813 12.2834C17.9813 11.8206 18.3599 11.4419 18.8228 11.4419H20.5757C21.0385 11.4419 21.3979 11.8201 21.3739 12.2825L20.7242 24.9768Z" fill="#F60621"/>
</svg>
