<svg width="30" height="24" viewBox="0 0 30 24" fill="none" xmlns="http://www.w3.org/2000/svg">
<path d="M3.66683 23.3333C2.88766 23.3333 2.22065 23.0559 1.66579 22.501C1.11093 21.9462 0.833496 21.2792 0.833496 20.5V3.5C0.833496 2.72083 1.11093 2.05382 1.66579 1.49896C2.22065 0.944095 2.88766 0.666664 3.66683 0.666664H20.6668C21.446 0.666664 22.113 0.944095 22.6679 1.49896C23.2227 2.05382 23.5002 2.72083 23.5002 3.5V9.875L27.9627 5.4125C28.1988 5.17639 28.4585 5.11736 28.7418 5.23541C29.0252 5.35347 29.1668 5.57778 29.1668 5.90833V18.0917C29.1668 18.4222 29.0252 18.6465 28.7418 18.7646C28.4585 18.8826 28.1988 18.8236 27.9627 18.5875L23.5002 14.125V20.5C23.5002 21.2792 23.2227 21.9462 22.6679 22.501C22.113 23.0559 21.446 23.3333 20.6668 23.3333H3.66683ZM3.66683 20.5H20.6668V3.5H3.66683V20.5Z" fill="#919191"/>
</svg>
