<svg width="34" height="28" viewBox="0 0 34 28" fill="none" xmlns="http://www.w3.org/2000/svg">
<path d="M3.66671 27.3333C2.75004 27.3333 1.96532 27.0069 1.31254 26.3541C0.659763 25.7013 0.333374 24.9166 0.333374 24V3.99996C0.333374 3.08329 0.659763 2.29857 1.31254 1.64579C1.96532 0.993015 2.75004 0.666626 3.66671 0.666626H23.6667C24.5834 0.666626 25.3681 0.993015 26.0209 1.64579C26.6737 2.29857 27 3.08329 27 3.99996V11.5L32.25 6.24996C32.5278 5.97218 32.8334 5.90274 33.1667 6.04163C33.5 6.18051 33.6667 6.4444 33.6667 6.83329V21.1666C33.6667 21.5555 33.5 21.8194 33.1667 21.9583C32.8334 22.0972 32.5278 22.0277 32.25 21.75L27 16.5V24C27 24.9166 26.6737 25.7013 26.0209 26.3541C25.3681 27.0069 24.5834 27.3333 23.6667 27.3333H3.66671ZM3.66671 24H23.6667V3.99996H3.66671V24Z" fill="#1C1B1F"/>
</svg>
