<svg width="14" height="18" viewBox="0 0 14 18" fill="none" xmlns="http://www.w3.org/2000/svg">
<path d="M6.10421 9.625L7.00004 8.9375L7.87504 9.625C8.02782 9.75 8.19449 9.75347 8.37504 9.63541C8.5556 9.51736 8.61115 9.36111 8.54171 9.16666L8.18754 8.04166L9.18754 7.25C9.34032 7.125 9.38546 6.96875 9.32296 6.78125C9.26046 6.59375 9.13198 6.5 8.93754 6.5H7.75004L7.39587 5.39583C7.32643 5.20139 7.19449 5.10416 7.00004 5.10416C6.8056 5.10416 6.67365 5.20139 6.60421 5.39583L6.25004 6.5H5.06254C4.8681 6.5 4.73615 6.59722 4.66671 6.79166C4.59726 6.98611 4.63893 7.13889 4.79171 7.25L5.79171 8.04166L5.43754 9.16666C5.3681 9.36111 5.42018 9.51736 5.59379 9.63541C5.7674 9.75347 5.93754 9.75 6.10421 9.625ZM3.10421 17.7917C2.82643 17.8889 2.57296 17.8542 2.34379 17.6875C2.11462 17.5208 2.00004 17.2986 2.00004 17.0208V11.7292C1.47226 11.1458 1.06254 10.4792 0.770874 9.72916C0.479207 8.97916 0.333374 8.18055 0.333374 7.33333C0.333374 5.47222 0.979207 3.89583 2.27087 2.60416C3.56254 1.3125 5.13893 0.666664 7.00004 0.666664C8.86115 0.666664 10.4375 1.3125 11.7292 2.60416C13.0209 3.89583 13.6667 5.47222 13.6667 7.33333C13.6667 8.18055 13.5209 8.97916 13.2292 9.72916C12.9375 10.4792 12.5278 11.1458 12 11.7292V17.0208C12 17.2986 11.8855 17.5208 11.6563 17.6875C11.4271 17.8542 11.1737 17.8889 10.8959 17.7917L7.00004 16.5L3.10421 17.7917ZM7.00004 12.3333C8.38893 12.3333 9.56948 11.8472 10.5417 10.875C11.5139 9.90278 12 8.72222 12 7.33333C12 5.94444 11.5139 4.76389 10.5417 3.79166C9.56948 2.81944 8.38893 2.33333 7.00004 2.33333C5.61115 2.33333 4.4306 2.81944 3.45837 3.79166C2.48615 4.76389 2.00004 5.94444 2.00004 7.33333C2.00004 8.72222 2.48615 9.90278 3.45837 10.875C4.4306 11.8472 5.61115 12.3333 7.00004 12.3333ZM3.66671 15.6875L7.00004 14.8333L10.3334 15.6875V13.1042C9.84726 13.3819 9.32296 13.6007 8.76046 13.7604C8.19796 13.9201 7.61115 14 7.00004 14C6.38893 14 5.80212 13.9201 5.23962 13.7604C4.67712 13.6007 4.15282 13.3819 3.66671 13.1042V15.6875Z" fill="#B5B5B5"/>
</svg>
